<?xml version="1.0" encoding="UTF-8" standalone="no"?>
<svg
   width="6mm"
   height="10mm"
   viewBox="0 0 6 10"
   version="1.1"
   id="schemalib-ind-tunable-s"
   xmlns="http://www.w3.org/2000/svg"
   xmlns:svg="http://www.w3.org/2000/svg">
  <g
     id="ind-tunable-s">
    <path
       id="path1"
       style="fill:none;fill-opacity:1;stroke:#000000;stroke-width:0.25;stroke-linecap:round;stroke-linejoin:round;stroke-dasharray:none;stroke-opacity:1;shape-rendering:geometricPrecision"
       d="M 2,1 V 2 C 2.6,2 3,2.4 3,2.8 3,3.3 2.6,3.6 2,3.6 2.6,3.6 3,4 3,4.4 3,4.9 2.6,5.2 2,5.2 2.6,5.2 3,5.6 3,6 3,6.5 2.6,6.8 2,6.8 2.6,6.8 3,7.2 3,7.6 3,8.1 2.6,8.4 2,8.4 V 9.1"  />
    <path
       id="path2" 
       style="fill:none;fill-opacity:1;stroke:#000000;stroke-width:0.25;stroke-linecap:round;stroke-linejoin:round;stroke-dasharray:none;stroke-opacity:1;shape-rendering:geometricPrecision"
       d="M 1,7 4.3,2.5" />
    <path
       id="path3" 
       style="fill:none;fill-opacity:1;stroke:#000000;stroke-width:0.25;stroke-linecap:round;stroke-linejoin:round;stroke-dasharray:none;stroke-opacity:1;shape-rendering:geometricPrecision"
       d="M 4.3,3.5 V 2.5 L 3.3,3" />
  </g>
</svg>
