<?xml version="1.0" encoding="UTF-8" standalone="no"?>
<svg
   width="13mm"
   height="14mm"
   viewBox="0 0 13 14"
   version="1.1"
   id="schemalib-ind-transf-m"
   xmlns="http://www.w3.org/2000/svg"
   xmlns:svg="http://www.w3.org/2000/svg">
  <g
     id="ind-transf-m">
    <path
       id="path1"
       style="fill:#000000;fill-opacity:1;stroke:#000000;stroke-width:0.25;stroke-linecap:round;stroke-linejoin:round;stroke-dasharray:none;stroke-opacity:1;shape-rendering:geometricPrecision"
       d="M 1.9,3 A 0.4,0.4 0 0 1 1.5,3.4 0.4,0.4 0 0 1 1.1,3 0.4,0.4 0 0 1 1.5,2.6 0.4,0.4 0 0 1 1.9,3 Z"  />
    <path
       id="path2"
       style="fill:#000000;fill-opacity:1;stroke:#000000;stroke-width:0.25;stroke-linecap:round;stroke-linejoin:round;stroke-dasharray:none;stroke-opacity:1;shape-rendering:geometricPrecision"
       d="M 11.1,3 A 0.4,0.4 0 0 0 11.5,3.4 0.4,0.4 0 0 0 11.9,3 0.4,0.4 0 0 0 11.5,2.6 0.4,0.4 0 0 0 11.1,3 Z"  />
    <path
       id="path3" 
       style="fill:none;fill-opacity:1;stroke:#000000;stroke-width:0.25;stroke-linecap:round;stroke-linejoin:round;stroke-dasharray:none;stroke-opacity:1;shape-rendering:geometricPrecision"
       d="M 6,3 V 11" />
    <path
       id="path4" 
       style="fill:none;fill-opacity:1;stroke:#000000;stroke-width:0.25;stroke-linecap:round;stroke-linejoin:round;stroke-dasharray:none;stroke-opacity:1;shape-rendering:geometricPrecision"
       d="M 7,3 V 11" />
    <path
       id="path5"
       style="fill:none;fill-opacity:1;stroke:#000000;stroke-width:0.25;stroke-linecap:round;stroke-linejoin:round;stroke-dasharray:none;stroke-opacity:1;shape-rendering:geometricPrecision"
       d="M 3,1 V 3 C 3.9,3 4.5,3.4 4.5,4 4.5,4.6 3.9,5 3,5 3.9,5 4.5,5.4 4.5,6 4.5,6.6 3.9,7 3,7 3.9,7 4.5,7.4 4.5,8 4.5,8.6 3.9,9 3,9 3.9,9 4.5,9.4 4.5,10 4.5,10.6 3.9,11 3,11 V 13"  />
    <path
       id="path6"
       style="fill:none;fill-opacity:1;stroke:#000000;stroke-width:0.25;stroke-linecap:round;stroke-linejoin:round;stroke-dasharray:none;stroke-opacity:1;shape-rendering:geometricPrecision"
       d="M 10,1 V 3 C 9.1,3 8.5,3.4 8.5,4 8.5,4.6 9.1,5 10,5 9.1,5 8.5,5.4 8.5,6 8.5,6.6 9.1,7 10,7 9.1,7 8.5,7.4 8.5,8 8.5,8.6 9.1,9 10,9 9.1,9 8.5,9.4 8.5,10 8.5,10.6 9.1,11 10,11 V 13"  />
  </g>
</svg>
