<?xml version="1.0" encoding="UTF-8" standalone="no"?>
<svg
   width="10mm"
   height="18mm"
   viewBox="0 0 10 18"
   version="1.1"
   id="schemalib-switch-2p-l"
   xmlns="http://www.w3.org/2000/svg"
   xmlns:svg="http://www.w3.org/2000/svg">
  <g
     id="switch-2p-l">
    <path
       id="path1"
       style="clip-rule:evenodd;fill:none;fill-rule:evenodd;stroke:#000000;stroke-width:0.25;stroke-linecap:round;stroke-linejoin:round;image-rendering:optimizeQuality;shape-rendering:geometricPrecision;text-rendering:geometricPrecision"
       d="M 5,1 V 6"  />
    <path
       id="path2"
       style="clip-rule:evenodd;fill:none;fill-rule:evenodd;stroke:#000000;stroke-width:0.25;stroke-linecap:round;stroke-linejoin:round;image-rendering:optimizeQuality;shape-rendering:geometricPrecision;text-rendering:geometricPrecision"
       d="M 8,12 V 17"  />
    <path
       id="path3"
       style="clip-rule:evenodd;fill:none;fill-rule:evenodd;stroke:#000000;stroke-width:0.25;stroke-linecap:round;stroke-linejoin:round;image-rendering:optimizeQuality;shape-rendering:geometricPrecision;text-rendering:geometricPrecision"
       d="M 5.1,6 7.3,12.2"  />
    <path
       id="path4"
       style="clip-rule:evenodd;fill:none;fill-rule:evenodd;stroke:#000000;stroke-width:0.25;stroke-linecap:round;stroke-linejoin:round;image-rendering:optimizeQuality;shape-rendering:geometricPrecision;text-rendering:geometricPrecision"
       d="M 2,12 V 17"  />
    <path
       id="path5"
       style="fill:#ffffff;fill-opacity:1;stroke:#000000;stroke-width:0.25;stroke-linecap:round;stroke-linejoin:round;stroke-dasharray:none;stroke-opacity:1;shape-rendering:geometricPrecision"
       d="M 5.5,6 A 0.5,0.5 0 0 1 5,6.5 0.5,0.5 0 0 1 4.5,6 0.5,0.5 0 0 1 5,5.5 0.5,0.5 0 0 1 5.5,6 Z"  />
    <path
       id="path6"
       style="fill:#ffffff;fill-opacity:1;stroke:#000000;stroke-width:0.25;stroke-linecap:round;stroke-linejoin:round;stroke-dasharray:none;stroke-opacity:1;shape-rendering:geometricPrecision"
       d="M 2.5,12 A 0.5,0.5 0 0 1 2,12.5 0.5,0.5 0 0 1 1.5,12 0.5,0.5 0 0 1 2,11.5 0.5,0.5 0 0 1 2.5,12 Z"  />
    <path
       id="path7"
       style="fill:#ffffff;fill-opacity:1;stroke:#000000;stroke-width:0.25;stroke-linecap:round;stroke-linejoin:round;stroke-dasharray:none;stroke-opacity:1;shape-rendering:geometricPrecision"
       d="M 8.5,12 A 0.5,0.5 0 0 1 8,12.5 0.5,0.5 0 0 1 7.5,12 0.5,0.5 0 0 1 8,11.5 0.5,0.5 0 0 1 8.5,12 Z"  />
  </g>
</svg>
