<?xml version="1.0" encoding="UTF-8" standalone="no"?>
<svg
   width="11mm"
   height="7mm"
   viewBox="0 0 11 7"
   version="1.1"
   id="schemalib-aoi-2-1-1-s"
   xmlns="http://www.w3.org/2000/svg"
   xmlns:svg="http://www.w3.org/2000/svg">
  <g
    id="aoi-2-1-1-s">
    <path
       id="path1"
       style="fill:#ffffff;fill-opacity:1;stroke:#000000;stroke-width:0.25;stroke-linecap:round;stroke-linejoin:round;stroke-dasharray:none;stroke-opacity:1;shape-rendering:geometricPrecision"
       d="M 3.4,4.5 H 2 V 1.5 H 3.4 C 4.2,1.5 5,2.1 5,3 5,3.9 4.2,4.5 3.4,4.5 Z" />
    <path
       id="path2"
       style="fill:none;fill-opacity:1;stroke:#000000;stroke-width:0.25;stroke-linecap:round;stroke-linejoin:round;stroke-dasharray:none;stroke-opacity:1;shape-rendering:geometricPrecision"
       d="M 1,2 2,2" />
    <path
       id="path3"
       style="fill:none;fill-opacity:1;stroke:#000000;stroke-width:0.25;stroke-linecap:round;stroke-linejoin:round;stroke-dasharray:none;stroke-opacity:1;shape-rendering:geometricPrecision"
       d="M 1,4 H 2" />
    <path
       id="path4"
       style="fill:none;fill-opacity:1;stroke:#000000;stroke-width:0.25;stroke-linecap:round;stroke-linejoin:round;stroke-dasharray:none;stroke-opacity:1;shape-rendering:geometricPrecision"
       d="M 1,5 5.4,5" />
    <path
       id="path5"
       style="fill:none;fill-opacity:1;stroke:#000000;stroke-width:0.25;stroke-linecap:round;stroke-linejoin:round;stroke-dasharray:none;stroke-opacity:1;shape-rendering:geometricPrecision"
       d="M 1,6 5,6" />
    <path
       id="path6"
       style="fill:none;fill-opacity:1;stroke:#000000;stroke-width:0.25;stroke-linecap:round;stroke-linejoin:round;stroke-dasharray:none;stroke-opacity:1;shape-rendering:geometricPrecision"
       d="M 8,4.5 H 10" />
    <path
       id="path7"
       style="fill:#ffffff;fill-opacity:1;stroke:#000000;stroke-width:0.25;stroke-linecap:round;stroke-linejoin:round;stroke-dasharray:none;stroke-opacity:1;shape-rendering:geometricPrecision"
       d="M 9,4.5 C 9,4.8 8.8,5 8.5,5 8.2,5 8,4.8 8,4.5 8,4.2 8.2,4 8.5,4 8.8,4 9,4.2 9,4.5 Z" />
    <path
       id="path8"
       style="fill:#ffffff;fill-opacity:1;stroke:#000000;stroke-width:0.25;stroke-linecap:round;stroke-linejoin:round;stroke-dasharray:none;stroke-opacity:1;shape-rendering:geometricPrecision"
       d="M 5,6 H 5.7 C 6.8,6 7.4,5.9 8,4.5 7.4,3.1 6.8,3 5.7,3 H 5 C 5.7,4.1 5.7,4.9 5,6 Z" />
  </g>
</svg>
