<?xml version="1.0" encoding="UTF-8" standalone="no"?>
<svg
   width="19mm"
   height="20mm"
   viewBox="0 0 19 20"
   version="1.1"
   id="schemalib-aoi-2-2-2-l"
   xmlns="http://www.w3.org/2000/svg"
   xmlns:svg="http://www.w3.org/2000/svg">
  <g
    id="aoi-2-2-2-l">
    <path
       id="path1"
       style="fill:#ffffff;fill-opacity:1;stroke:#000000;stroke-width:0.25;stroke-linecap:round;stroke-linejoin:round;stroke-dasharray:none;stroke-opacity:1;shape-rendering:geometricPrecision"
       d="M 5.9,7 H 3 V 1 L 5.9,1 C 7.7,1 9,2.2 9,4 9,5.8 7.4,7 5.9,7 Z" />
    <path
       id="path2"
       style="fill:none;fill-opacity:1;stroke:#000000;stroke-width:0.25;stroke-linecap:round;stroke-linejoin:round;stroke-dasharray:none;stroke-opacity:1;shape-rendering:geometricPrecision"
       d="M 3,2 H 1" />
    <path
       id="path3"
       style="fill:none;fill-opacity:1;stroke:#000000;stroke-width:0.25;stroke-linecap:round;stroke-linejoin:round;stroke-dasharray:none;stroke-opacity:1;shape-rendering:geometricPrecision"
       d="M 3,6 H 1" />
    <path
       id="path4"
       style="fill:#ffffff;fill-opacity:1;stroke:#000000;stroke-width:0.25;stroke-linecap:round;stroke-linejoin:round;stroke-dasharray:none;stroke-opacity:1;shape-rendering:geometricPrecision"
       d="M 5.9,13 H 3 V 7 L 5.9,7 C 7.7,7 9,8.2 9,10 9,11.8 7.4,13 5.9,13 Z" />
    <path
       id="path5"
       style="fill:none;fill-opacity:1;stroke:#000000;stroke-width:0.25;stroke-linecap:round;stroke-linejoin:round;stroke-dasharray:none;stroke-opacity:1;shape-rendering:geometricPrecision"
       d="M 3,8 H 1" />
    <path
       id="path6"
       style="fill:none;fill-opacity:1;stroke:#000000;stroke-width:0.25;stroke-linecap:round;stroke-linejoin:round;stroke-dasharray:none;stroke-opacity:1;shape-rendering:geometricPrecision"
       d="M 3,12 H 1" />
    <path
       id="path7"
       style="fill:#ffffff;fill-opacity:1;stroke:#000000;stroke-width:0.25;stroke-linecap:round;stroke-linejoin:round;stroke-dasharray:none;stroke-opacity:1;shape-rendering:geometricPrecision"
       d="M 5.9,19 H 3 V 13 L 5.9,13 C 7.7,13 9,14.2 9,16 9,17.8 7.4,19 5.9,19 Z" />
    <path
       id="path8"
       style="fill:none;fill-opacity:1;stroke:#000000;stroke-width:0.25;stroke-linecap:round;stroke-linejoin:round;stroke-dasharray:none;stroke-opacity:1;shape-rendering:geometricPrecision"
       d="M 3,14 H 1" />
    <path
       id="path9"
       style="fill:none;fill-opacity:1;stroke:#000000;stroke-width:0.25;stroke-linecap:round;stroke-linejoin:round;stroke-dasharray:none;stroke-opacity:1;shape-rendering:geometricPrecision"
       d="M 3,18 H 1" />
    <path
       id="path10"
       style="fill:none;fill-opacity:1;stroke:#000000;stroke-width:0.25;stroke-linecap:round;stroke-linejoin:round;stroke-dasharray:none;stroke-opacity:1;shape-rendering:geometricPrecision"
       d="M 15,7 H 18" />
    <path
       id="path11"
       style="fill:#ffffff;fill-opacity:1;stroke:#000000;stroke-width:0.25;stroke-linecap:round;stroke-linejoin:round;stroke-dasharray:none;stroke-opacity:1;shape-rendering:geometricPrecision"
       d="M 9,10 H 10.4 C 12.7,10 13.7,9.9 15,7 13.7,4.1 12.7,4 10.4,4 H 9 C 10.4,6.1 10.4,7.9 9,10 Z" />
    <path
       id="path12"
       style="fill:none;fill-opacity:1;stroke:#000000;stroke-width:0.25;stroke-linecap:round;stroke-linejoin:round;stroke-dasharray:none;stroke-opacity:1;shape-rendering:geometricPrecision"
       d="M 9,10 C 10.4,12.1 10.4,13.9 9,16" />
    <path
       id="path13"
       style="fill:#ffffff;fill-opacity:1;stroke:#000000;stroke-width:0.25;stroke-linecap:round;stroke-linejoin:round;stroke-dasharray:none;stroke-opacity:1;shape-rendering:geometricPrecision"
       d="M 16.4,7 C 16.4,7.4 16.1,7.7 15.7,7.7 15.3,7.7 15,7.4 15,7 15,6.6 15.3,6.3 15.7,6.3 16.1,6.3 16.4,6.6 16.4,7 Z" />
  </g>
</svg>
