<?xml version="1.0" encoding="UTF-8" standalone="no"?>
<svg
   width="12mm"
   height="12mm"
   viewBox="0 0 12 12"
   version="1.1"
   id="schemalib-fft-clkdn-setx-resx-qnx-s"
   xmlns="http://www.w3.org/2000/svg"
   xmlns:svg="http://www.w3.org/2000/svg">
  <g
     id="fft-clkdn-setx-resx-qnx-s">
    <path
       id="path1" 
       style="fill:#ffffff;fill-opacity:1;stroke:#000000;stroke-width:0.25;stroke-linecap:round;stroke-linejoin:round;stroke-dasharray:none;stroke-opacity:1;shape-rendering:geometricPrecision"
       d="M 3,3 H 9 V 9 H 3 Z"  />
    <path
       id="path3"
       style="fill:none;fill-opacity:1;stroke:#000000;stroke-width:0.25;stroke-linecap:round;stroke-linejoin:round;stroke-dasharray:none;stroke-opacity:1;shape-rendering:geometricPrecision" 
       d="M 9,5 H 11"  />
    <path
       id="path4"
       style="fill:none;fill-opacity:1;stroke:#000000;stroke-width:0.25;stroke-linecap:round;stroke-linejoin:round;stroke-dasharray:none;stroke-opacity:1;shape-rendering:geometricPrecision" 
       d="M 1,4 H 3"  />
    <path
       id="path6"
       style="fill:none;fill-opacity:1;stroke:#000000;stroke-width:0.25;stroke-linecap:round;stroke-linejoin:round;stroke-dasharray:none;stroke-opacity:1;shape-rendering:geometricPrecision" 
       d="M 1,6 H 3"  />
    <path
       id="path7" 
       style="fill:none;fill-opacity:1;stroke:#000000;stroke-width:0.25;stroke-linecap:round;stroke-linejoin:round;stroke-dasharray:none;stroke-opacity:1;shape-rendering:geometricPrecision"
       d="M 3,5.5 4,6 3,6.5"  />
    <path
       id="path9" 
       style="fill:none;fill-opacity:1;stroke:#000000;stroke-width:0.25;stroke-linecap:round;stroke-linejoin:round;stroke-dasharray:none;stroke-opacity:1;shape-rendering:geometricPrecision"
       d="M 4.5,5.5 H 5 V 6.5 H 5.5"  />
    <path
       id="path15" 
       style="fill:#000000;fill-opacity:1;stroke:none;stroke-width:0;shape-rendering:geometricPrecision"
       d="M 8.5000099,4.9417105 C 8.5000099,4.6242105 8.3834279,4.3488785 7.9691896,4.3488785 7.5326271,4.3488785 7.4383693,4.6514957 7.4383693,4.9417105 7.4383693,5.2368863 7.5400685,5.5171793 7.9691896,5.5171793 7.9939946,5.5171793 8.0312016,5.5171793 8.0832912,5.5097393 L 8.1403422,5.5940753 C 8.1750692,5.6461653 8.1800302,5.6511263 8.2321192,5.6511263 H 8.3586231 C 8.3784671,5.6511263 8.4156741,5.6511263 8.4156741,5.6163993 8.4156741,5.6015163 8.4107141,5.5990363 8.3908691,5.5717513 L 8.2891701,5.4378043 C 8.490088,5.3162613 8.5000099,5.0558121 8.5000099,4.9417105 Z M 8.2718068,4.93923 C 8.2718068,5.038449 8.2718068,5.2046402 8.1825098,5.3063394 L 8.0956935,5.1922379 C 8.0808105,5.1748749 8.0733695,5.1748749 8.0436035,5.1748749 H 7.9468655 C 7.9245415,5.1748749 7.8898145,5.1748749 7.8898145,5.2120819 7.8898145,5.2294449 7.9394235,5.3013789 7.9691895,5.3410663 7.9741495,5.3485063 7.9989555,5.3857143 7.9989555,5.3906753 7.9989555,5.3906753 7.9741505,5.3931553 7.9691895,5.3931553 7.6665723,5.3931553 7.6665723,5.0806163 7.6665723,4.9392295 7.6665723,4.8003233 7.6665723,4.4729014 7.9691895,4.4729014 8.2718067,4.4729014 8.2718067,4.7978428 8.2718068,4.93923 Z M 8.2718068,4.93923"  />
    <path
       id="path21" 
       style="fill:#ffffff;fill-opacity:1;stroke:#000000;stroke-width:0.25;stroke-linecap:round;stroke-linejoin:round;stroke-dasharray:none;stroke-opacity:1;shape-rendering:geometricPrecision"
       d="M 3,6 C 3,6.3 2.8,6.5 2.5,6.5 2.2,6.5 2,6.3 2,6 2,5.7 2.2,5.5 2.5,5.5 2.8,5.5 3,5.7 3,6 Z"  />
    <path
       id="path22" 
       style="fill:#000000;fill-opacity:1;stroke:none;stroke-width:0;shape-rendering:geometricPrecision"
       d="M 4.4614337,3.5449398 V 3.5325375 C 4.4614337,3.4804476 4.4515118,3.4556429 4.3870197,3.4556429 H 3.5064532 C 3.4494025,3.4556429 3.4320392,3.4730062 3.4320392,3.5325375 V 3.5449398 C 3.4320392,3.6193539 3.4692462,3.6193539 3.5138947,3.6193539 L 3.8313947,3.6143929 V 4.4676742 C 3.8313947,4.524725 3.8487579,4.5445687 3.9082892,4.5445687 H 3.9876642 C 4.0471954,4.5445687 4.0645587,4.524725 4.0645587,4.4676742 V 3.6143929 L 4.3795782,3.6193539 C 4.4242267,3.6193539 4.4614337,3.6193539 4.4614337,3.5449398 Z M 4.4614337,3.5449398" />
  </g>
</svg>
