<?xml version="1.0" encoding="UTF-8" standalone="no"?>
<svg
   width="8mm"
   height="7mm"
   viewBox="0 0 8 7"
   version="1.1"
   id="schemalib-nor6-s"
   xmlns="http://www.w3.org/2000/svg"
   xmlns:svg="http://www.w3.org/2000/svg">
  <g
     id="nor6-s">
    <path
       id="path1"
       style="fill:none;fill-opacity:1;stroke:#000000;stroke-width:0.25;stroke-linecap:round;stroke-linejoin:round;stroke-dasharray:none;stroke-opacity:1;shape-rendering:geometricPrecision" 
       d="M 1,2 H 2" />
    <path
       id="path2"
       style="fill:none;fill-opacity:1;stroke:#000000;stroke-width:0.25;stroke-linecap:round;stroke-linejoin:round;stroke-dasharray:none;stroke-opacity:1;shape-rendering:geometricPrecision" 
       d="M 1,5 H 2" />
    <path
       id="path3"
       style="fill:none;fill-opacity:1;stroke:#000000;stroke-width:0.25;stroke-linecap:round;stroke-linejoin:round;stroke-dasharray:none;stroke-opacity:1;shape-rendering:geometricPrecision" 
       d="M 1,3 H 2.4" />
    <path
       id="path4"
       style="fill:none;fill-opacity:1;stroke:#000000;stroke-width:0.25;stroke-linecap:round;stroke-linejoin:round;stroke-dasharray:none;stroke-opacity:1;shape-rendering:geometricPrecision" 
       d="M 5,3.5 H 7" />
    <path
       id="path5" 
       style="fill:#ffffff;fill-opacity:1;stroke:#000000;stroke-width:0.25;stroke-linecap:round;stroke-linejoin:round;stroke-dasharray:none;stroke-opacity:1;shape-rendering:geometricPrecision"
       d="M 6,3.5 C 6,3.8 5.8,4 5.5,4 5.2,4 5,3.8 5,3.5 5,3.2 5.2,3 5.5,3 5.8,3 6,3.2 6,3.5 Z" />
    <path
       id="path6"
       style="fill:#ffffff;fill-opacity:1;stroke:#000000;stroke-width:0.25;stroke-linecap:round;stroke-linejoin:round;stroke-dasharray:none;stroke-opacity:1;shape-rendering:geometricPrecision" 
       d="M 2,5 H 2.7 C 3.8,5 4.4,4.9 5,3.5 4.4,2.1 3.8,2 2.7,2 H 2 C 2.7,3.1 2.7,3.9 2,5 Z" />
    <path
       id="path7"
       style="fill:none;fill-opacity:1;stroke:#000000;stroke-width:0.25;stroke-linecap:round;stroke-linejoin:round;stroke-dasharray:none;stroke-opacity:1;shape-rendering:geometricPrecision" 
       d="M 2,2 C 2.2,1.7 2.3,1.4 2.4,1 H 1" />
    <path
       id="path8"
       style="fill:none;fill-opacity:1;stroke:#000000;stroke-width:0.25;stroke-linecap:round;stroke-linejoin:round;stroke-dasharray:none;stroke-opacity:1;shape-rendering:geometricPrecision" 
       d="M 1,4 H 2.4" />
    <path
       id="path9"
       style="fill:none;fill-opacity:1;stroke:#000000;stroke-width:0.25;stroke-linecap:round;stroke-linejoin:round;stroke-dasharray:none;stroke-opacity:1;shape-rendering:geometricPrecision" 
       d="M 2,5 C 2.2,5.3 2.3,5.6 2.4,6 H 1" />
  </g>
</svg>
