<?xml version="1.0" encoding="UTF-8" standalone="no"?>
<svg
   width="6mm"
   height="7mm"
   viewBox="0 0 6 7"
   version="1.1"
   id="schemalib-demux2-s"
   xmlns="http://www.w3.org/2000/svg"
   xmlns:svg="http://www.w3.org/2000/svg">
  <g
    id="demux2-s">
    <path
       id="path1"
       style="fill:none;fill-opacity:1;stroke:#000000;stroke-width:0.25;stroke-linecap:round;stroke-linejoin:round;stroke-dasharray:none;stroke-opacity:1;shape-rendering:geometricPrecision"
       d="M 2,3.5 H 1" />
    <path
       id="path2"
       style="fill:none;fill-opacity:1;stroke:#000000;stroke-width:0.25;stroke-linecap:round;stroke-linejoin:round;stroke-dasharray:none;stroke-opacity:1;shape-rendering:geometricPrecision"
       d="M 3,6 V 5" />
    <path
       id="path3"
       style="fill:none;fill-opacity:1;stroke:#000000;stroke-width:0.25;stroke-linecap:round;stroke-linejoin:round;stroke-dasharray:none;stroke-opacity:1;shape-rendering:geometricPrecision"
       d="M 4,3 H 5" />
    <path
       id="path4"
       style="fill:none;fill-opacity:1;stroke:#000000;stroke-width:0.25;stroke-linecap:round;stroke-linejoin:round;stroke-dasharray:none;stroke-opacity:1;shape-rendering:geometricPrecision"
       d="M 4,4 H 5" />
    <path
       id="path5"
       style="fill:#ffffff;fill-opacity:1;stroke:#000000;stroke-width:0.25;stroke-linecap:round;stroke-linejoin:round;stroke-dasharray:none;stroke-opacity:1;shape-rendering:geometricPrecision"
       d="M 4,5.5 V 1.5 L 2,2.5 2,4.5 Z" />
    <path
       id="path6"
       style="fill:#000000;fill-opacity:1;stroke:none;stroke-width:0;shape-rendering:geometricPrecision"
       d="M 3.5000039,4.0000009 C 3.5000039,3.8453061 3.5000039,3.5768127 3.2368448,3.5768127 2.9736857,3.5768127 2.9736857,3.8417499 2.9736857,4.0000009 2.9736857,4.1564739 2.9736857,4.4142986 3.2368448,4.4142986 3.5000039,4.4142986 3.5000039,4.158252 3.5000039,4.0000009 Z M 3.345309,3.983998 C 3.345309,4.0497878 3.345309,4.1369148 3.3381966,4.1991483 3.3346404,4.229376 3.3221937,4.3325059 3.2368448,4.3325059 3.153274,4.3325059 3.1408273,4.2275979 3.1372711,4.1973702 3.1283806,4.1369148 3.1283806,4.0302287 3.1283806,3.983998 3.1283806,3.9182082 3.1283806,3.8453061 3.135493,3.7884068 3.1390492,3.7581791 3.1497178,3.6586054 3.2368448,3.6586054 3.3204156,3.6586054 3.3346404,3.7546229 3.3381966,3.7759601 3.345309,3.8346375 3.345309,3.9235425 3.345309,3.983998 Z M 3.345309,3.983998" />
    <path
       id="path7"
       style="fill:#000000;fill-opacity:1;stroke:none;stroke-width:0;shape-rendering:geometricPrecision"
       d="M 3.4623299,3.3647417 C 3.4623299,3.3238452 3.4196553,3.3238452 3.4072085,3.3238452 H 3.3271936 V 2.6481636 C 3.3271936,2.6268263 3.3271936,2.5930422 3.2774066,2.5930422 3.2560692,2.5930422 3.2507349,2.5948203 3.23651,2.6090452 3.2169508,2.6268263 3.1742762,2.6695009 3.0622553,2.671279 3.040918,2.671279 3.0106902,2.6801696 3.0106902,2.7121755 3.0106902,2.7530721 3.0515867,2.7530721 3.0658115,2.7530721 3.0995956,2.7530721 3.1404921,2.7477377 3.1724981,2.7388472 V 3.3238452 H 3.0835926 C 3.0693678,3.3238452 3.0302494,3.3238452 3.0302494,3.3647417 3.0302494,3.4056382 3.0693678,3.4056382 3.0835926,3.4056382 H 3.4072085 C 3.4196553,3.4056382 3.4623299,3.4056382 3.4623299,3.3647417 Z M 3.4623299,3.3647417" />
  </g>
</svg>
