<?xml version="1.0" encoding="UTF-8" standalone="no"?>
<svg
   width="6mm"
   height="14mm"
   viewBox="0 0 6 14"
   version="1.1"
   id="schemalib-ind-tunable-m"
   xmlns="http://www.w3.org/2000/svg"
   xmlns:svg="http://www.w3.org/2000/svg">
  <g
     id="ind-tunable-m">
    <path
       id="path1"
       style="fill:none;fill-opacity:1;stroke:#000000;stroke-width:0.25;stroke-linecap:round;stroke-linejoin:round;stroke-dasharray:none;stroke-opacity:1;shape-rendering:geometricPrecision"
       d="M 2,1 V 3 C 2.9,3 3.5,3.4 3.5,4 3.5,4.6 2.9,5 2,5 2.9,5 3.5,5.4 3.5,6 3.5,6.6 2.9,7 2,7 2.9,7 3.5,7.4 3.5,8 3.5,8.6 2.9,9 2,9 2.9,9 3.5,9.4 3.5,10 3.5,10.6 2.9,11 2,11 V 13"  />
    <path
       id="path2" 
       style="fill:none;fill-opacity:1;stroke:#000000;stroke-width:0.25;stroke-linecap:round;stroke-linejoin:round;stroke-dasharray:none;stroke-opacity:1;shape-rendering:geometricPrecision"
       d="M 1,10 5,4" />
    <path
       id="path3" 
       style="fill:none;fill-opacity:1;stroke:#000000;stroke-width:0.25;stroke-linecap:round;stroke-linejoin:round;stroke-dasharray:none;stroke-opacity:1;shape-rendering:geometricPrecision"
       d="M 4.8,5.5 5,4 3.8,4.8" />
  </g>
</svg>
