<?xml version="1.0" encoding="UTF-8" standalone="no"?>
<svg
   width="6mm"
   height="7mm"
   viewBox="0 0 6 7"
   version="1.1"
   id="schemalib-mux2-s"
   xmlns="http://www.w3.org/2000/svg"
   xmlns:svg="http://www.w3.org/2000/svg">
  <g
    id="mux2-s">
    <path
       id="path1"
       style="fill:none;fill-opacity:1;stroke:#000000;stroke-width:0.25;stroke-linecap:round;stroke-linejoin:round;stroke-dasharray:none;stroke-opacity:1;shape-rendering:geometricPrecision"
       d="M 4,3.5 H 5" />
    <path
       id="path2"
       style="fill:none;fill-opacity:1;stroke:#000000;stroke-width:0.25;stroke-linecap:round;stroke-linejoin:round;stroke-dasharray:none;stroke-opacity:1;shape-rendering:geometricPrecision"
       d="M 3,6 V 5" />
    <path
       id="path3"
       style="fill:none;fill-opacity:1;stroke:#000000;stroke-width:0.25;stroke-linecap:round;stroke-linejoin:round;stroke-dasharray:none;stroke-opacity:1;shape-rendering:geometricPrecision"
       d="M 2,3 H 1" />
    <path
       id="path4"
       style="fill:none;fill-opacity:1;stroke:#000000;stroke-width:0.25;stroke-linecap:round;stroke-linejoin:round;stroke-dasharray:none;stroke-opacity:1;shape-rendering:geometricPrecision"
       d="M 2,4 H 1" />
    <path
       id="path5"
       style="fill:#ffffff;fill-opacity:1;stroke:#000000;stroke-width:0.25;stroke-linecap:round;stroke-linejoin:round;stroke-dasharray:none;stroke-opacity:1;shape-rendering:geometricPrecision"
       d="M 2,5.5 V 1.5 L 4,2.5 4,4.5 Z" />
    <path
       id="path6"
       style="fill:#000000;fill-opacity:1;stroke:none;stroke-width:0;shape-rendering:geometricPrecision"
       d="M 3.0263139,4.0000009 C 3.0263139,3.8453061 3.0263139,3.5768127 2.7631548,3.5768127 2.4999957,3.5768127 2.4999957,3.8417499 2.4999957,4.0000009 2.4999957,4.1564739 2.4999957,4.4142986 2.7631548,4.4142986 3.0263139,4.4142986 3.0263139,4.158252 3.0263139,4.0000009 Z M 2.871619,3.983998 C 2.871619,4.0497878 2.871619,4.1369148 2.8645066,4.1991483 2.8609504,4.229376 2.8485037,4.3325059 2.7631548,4.3325059 2.679584,4.3325059 2.6671373,4.2275979 2.6635811,4.1973702 2.6546906,4.1369148 2.6546906,4.0302287 2.6546906,3.983998 2.6546906,3.9182082 2.6546906,3.8453061 2.661803,3.7884068 2.6653592,3.7581791 2.6760278,3.6586054 2.7631548,3.6586054 2.8467256,3.6586054 2.8609504,3.7546229 2.8645066,3.7759601 2.871619,3.8346375 2.871619,3.9235425 2.871619,3.983998 Z M 2.871619,3.983998" />
    <path
       id="path7"
       style="fill:#000000;fill-opacity:1;stroke:none;stroke-width:0;shape-rendering:geometricPrecision"
       d="M 2.9886399,3.3647417 C 2.9886399,3.3238452 2.9459653,3.3238452 2.9335185,3.3238452 H 2.8535036 V 2.6481636 C 2.8535036,2.6268263 2.8535036,2.5930422 2.8037166,2.5930422 2.7823792,2.5930422 2.7770449,2.5948203 2.76282,2.6090452 2.7432608,2.6268263 2.7005862,2.6695009 2.5885653,2.671279 2.567228,2.671279 2.5370002,2.6801696 2.5370002,2.7121755 2.5370002,2.7530721 2.5778967,2.7530721 2.5921215,2.7530721 2.6259056,2.7530721 2.6668021,2.7477377 2.6988081,2.7388472 V 3.3238452 H 2.6099026 C 2.5956778,3.3238452 2.5565594,3.3238452 2.5565594,3.3647417 2.5565594,3.4056382 2.5956778,3.4056382 2.6099026,3.4056382 H 2.9335185 C 2.9459653,3.4056382 2.9886399,3.4056382 2.9886399,3.3647417 Z M 2.9886399,3.3647417" />
  </g>
</svg>
