<?xml version="1.0" encoding="UTF-8" standalone="no"?>
<svg
   width="7mm"
   height="12mm"
   viewBox="0 0 7 12"
   version="1.1"
   id="schemalib-demux4-m"
   xmlns="http://www.w3.org/2000/svg"
   xmlns:svg="http://www.w3.org/2000/svg">
  <g
    id="demux4-m">
    <path
       id="path1"
       style="fill:none;fill-opacity:1;stroke:#000000;stroke-width:0.25;stroke-linecap:round;stroke-linejoin:round;stroke-dasharray:none;stroke-opacity:1;shape-rendering:geometricPrecision"
       d="M 2,6 H 1" />
    <path
       id="path2"
       style="fill:none;fill-opacity:1;stroke:#000000;stroke-width:0.25;stroke-linecap:round;stroke-linejoin:round;stroke-dasharray:none;stroke-opacity:1;shape-rendering:geometricPrecision"
       d="M 3.5,11 V 10.3" />
    <path
       id="path3"
       style="fill:none;fill-opacity:1;stroke:#000000;stroke-width:0.25;stroke-linecap:round;stroke-linejoin:round;stroke-dasharray:none;stroke-opacity:1;shape-rendering:geometricPrecision"
       d="M 5,3 H 6" />
    <path
       id="path4"
       style="fill:none;fill-opacity:1;stroke:#000000;stroke-width:0.25;stroke-linecap:round;stroke-linejoin:round;stroke-dasharray:none;stroke-opacity:1;shape-rendering:geometricPrecision"
       d="M 5,5 H 6" />
    <path
       id="path5"
       style="fill:none;fill-opacity:1;stroke:#000000;stroke-width:0.25;stroke-linecap:round;stroke-linejoin:round;stroke-dasharray:none;stroke-opacity:1;shape-rendering:geometricPrecision"
       d="M 5,7 H 6" />
    <path
       id="path6"
       style="fill:none;fill-opacity:1;stroke:#000000;stroke-width:0.25;stroke-linecap:round;stroke-linejoin:round;stroke-dasharray:none;stroke-opacity:1;shape-rendering:geometricPrecision"
       d="M 5,9 H 6" />
    <path
       id="path7"
       style="fill:#ffffff;fill-opacity:1;stroke:#000000;stroke-width:0.25;stroke-linecap:round;stroke-linejoin:round;stroke-dasharray:none;stroke-opacity:1;shape-rendering:geometricPrecision"
       d="M 5,11 V 1 L 2,2.5 V 9.5 Z" />
    <path
       id="path8"
       style="fill:#000000;fill-opacity:1;stroke:none;stroke-width:0;shape-rendering:geometricPrecision"
       d="M 4.5000045,8.9999982 C 4.5000045,8.7637737 4.5000045,8.3537748 4.0981513,8.3537748 3.6962982,8.3537748 3.6962982,8.7583432 3.6962982,8.9999982 3.6962982,9.2389379 3.6962982,9.6326454 4.0981513,9.6326454 4.5000045,9.6326454 4.5000045,9.2416532 4.5000045,8.9999982 Z M 4.26378,8.9755612 C 4.26378,9.0760245 4.26378,9.2090705 4.2529191,9.3041033 4.2474887,9.3502621 4.2284821,9.5077451 4.0981513,9.5077451 3.9705358,9.5077451 3.9515292,9.3475469 3.9460988,9.3013881 3.9325227,9.2090705 3.9325227,9.046157 3.9325227,8.9755612 3.9325227,8.8750979 3.9325227,8.7637737 3.9433836,8.6768865 3.948814,8.6307277 3.9651054,8.4786751 4.0981513,8.4786751 4.2257669,8.4786751 4.2474887,8.6252973 4.2529191,8.6578799 4.26378,8.7474823 4.26378,8.8832436 4.26378,8.9755612 Z M 4.26378,8.9755612" />
    <path
       id="path9"
       style="fill:#000000;fill-opacity:1;stroke:none;stroke-width:0;shape-rendering:geometricPrecision"
       d="M 4.4429652,7.5584601 C 4.4429652,7.49601 4.3777999,7.49601 4.3587934,7.49601 H 4.2366085 V 6.4642269 C 4.2366085,6.4316443 4.2366085,6.3800551 4.1605824,6.3800551 4.1279998,6.3800551 4.1198541,6.3827703 4.0981324,6.4044921 4.068265,6.4316443 4.0030997,6.4968095 3.8320409,6.4995248 3.7994583,6.4995248 3.7532996,6.5131008 3.7532996,6.5619748 3.7532996,6.6244248 3.8157496,6.6244248 3.8374714,6.6244248 3.8890605,6.6244248 3.9515106,6.6162792 4.0003845,6.6027031 V 7.49601 H 3.8646236 C 3.8429018,7.49601 3.783167,7.49601 3.783167,7.5584601 3.783167,7.6209101 3.8429018,7.6209101 3.8646236,7.6209101 H 4.3587934 C 4.3777999,7.6209101 4.4429652,7.6209101 4.4429652,7.5584601 Z M 4.4429652,7.5584601" />
    <path
       id="path10"
       style="fill:#000000;fill-opacity:1;stroke:none;stroke-width:0;shape-rendering:geometricPrecision"
       d="M 4.486874,5.5297483 V 5.5107418 C 4.486874,5.4835896 4.486874,5.4482918 4.4515762,5.4347157 4.4380001,5.42657 4.3836957,5.42657 4.3483978,5.42657 L 4.2316434,5.4292852 H 3.9492607 L 4.1800543,5.2120677 C 4.2044913,5.190346 4.2696565,5.1360416 4.2968087,5.1116046 4.3918413,5.0192872 4.486874,4.9269698 4.486874,4.7722023 4.486874,4.5604152 4.3348218,4.3730651 4.0795912,4.3730651 4.0198564,4.3730651 3.9221085,4.3812108 3.8379367,4.4490913 3.8216454,4.4626673 3.7429041,4.5251174 3.7103214,4.6391566 L 3.7972084,4.7504805 C 3.8080693,4.7640566 3.8134998,4.7722023 3.8243606,4.7722023 3.8406519,4.7722023 3.8433672,4.7586262 3.8487976,4.7396197 3.8840954,4.62015 3.9438303,4.5468391 4.0551542,4.5468391 4.1881999,4.5468391 4.2452195,4.669024 4.2452195,4.7749175 4.2452195,4.8862415 4.1800543,5.0029959 4.0741608,5.1143198 L 3.7429041,5.4672983 C 3.7266128,5.4835896 3.7266128,5.4863048 3.7266128,5.5161722 V 5.5297483 C 3.7266128,5.5921983 3.7456193,5.6139201 3.8107845,5.6139201 H 4.4054174 C 4.4705827,5.6139201 4.486874,5.5921983 4.486874,5.5297483 Z M 4.486874,5.5297483" />
    <path
       id="path11"
       style="fill:#000000;fill-opacity:1;stroke:none;stroke-width:0;shape-rendering:geometricPrecision"
       d="M 4.4941653,3.2489417 C 4.4941653,3.0941742 4.4099935,2.9882807 4.2552261,2.9475524 4.3964174,2.8715263 4.4425762,2.7602023 4.4425762,2.6624544 4.4425762,2.3827869 4.1954913,2.3610651 4.0814521,2.3610651 3.845228,2.3610651 3.7284736,2.5321239 3.7284736,2.5457 3.7284736,2.5565609 3.7393345,2.570137 3.7393345,2.570137 L 3.7882084,2.6407327 C 3.8017845,2.6624544 3.8153606,2.6624544 3.8153606,2.6624544 3.8262215,2.6624544 3.8316519,2.6543088 3.8397976,2.6434479 3.9266846,2.5158326 4.0515847,2.5158326 4.0733064,2.5158326 4.1846304,2.5158326 4.1982065,2.5728522 4.1982065,2.657024 4.1982065,2.6814609 4.1982065,2.7656327 4.1466173,2.830798 4.1031738,2.8796719 4.0597303,2.8823871 4.0081412,2.8878176 3.9891346,2.8878176 3.956552,2.8905328 3.9511216,2.893248 3.9402607,2.8986784 3.9402607,2.9095393 3.9402607,2.9366915 V 2.9665589 C 3.9402607,3.0127176 3.9402607,3.0154328 3.9864194,3.0154328 H 4.0624455 C 4.2199282,3.0154328 4.2389348,3.1131807 4.2389348,3.2462264 4.2389348,3.3629809 4.2280739,3.47702 4.0705912,3.47702 4.0135716,3.47702 3.8859563,3.4661592 3.7692019,3.3548352 3.7529106,3.3412591 3.7529106,3.3385439 3.7447649,3.3385439 3.7284736,3.3385439 3.7257584,3.3548352 3.7230432,3.3575504 3.7230432,3.3575504 3.7013214,3.4688744 3.7013214,3.47702 3.7013214,3.4987418 3.8506585,3.6399332 4.0787368,3.6399332 4.3774109,3.6399332 4.4941653,3.4797353 4.4941653,3.2489417 Z M 4.4941653,3.2489417" />
  </g>
</svg>
