<?xml version="1.0" encoding="UTF-8" standalone="no"?>
<svg
   width="6mm"
   height="9mm"
   viewBox="0 0 6 9"
   version="1.1"
   id="schemalib-mux4-s"
   xmlns="http://www.w3.org/2000/svg"
   xmlns:svg="http://www.w3.org/2000/svg">
  <g
    id="mux4-s">
    <path
       id="path1"
       style="fill:none;fill-opacity:1;stroke:#000000;stroke-width:0.25;stroke-linecap:round;stroke-linejoin:round;stroke-dasharray:none;stroke-opacity:1;shape-rendering:geometricPrecision"
       d="M 4,4.5 H 5" />
    <path
       id="path2"
       style="fill:none;fill-opacity:1;stroke:#000000;stroke-width:0.25;stroke-linecap:round;stroke-linejoin:round;stroke-dasharray:none;stroke-opacity:1;shape-rendering:geometricPrecision"
       d="M 3,8 V 7" />
    <path
       id="path3"
       style="fill:none;fill-opacity:1;stroke:#000000;stroke-width:0.25;stroke-linecap:round;stroke-linejoin:round;stroke-dasharray:none;stroke-opacity:1;shape-rendering:geometricPrecision"
       d="M 2,3 H 1" />
    <path
       id="path4"
       style="fill:none;fill-opacity:1;stroke:#000000;stroke-width:0.25;stroke-linecap:round;stroke-linejoin:round;stroke-dasharray:none;stroke-opacity:1;shape-rendering:geometricPrecision"
       d="M 2,4 H 1" />
    <path
       id="path5"
       style="fill:#ffffff;fill-opacity:1;stroke:#000000;stroke-width:0.25;stroke-linecap:round;stroke-linejoin:round;stroke-dasharray:none;stroke-opacity:1;shape-rendering:geometricPrecision"
       d="M 2,7.5 V 1.5 L 4,2.5 4,6.5 Z" />
    <path
       id="path6"
       style="fill:none;fill-opacity:1;stroke:#000000;stroke-width:0.25;stroke-linecap:round;stroke-linejoin:round;stroke-dasharray:none;stroke-opacity:1;shape-rendering:geometricPrecision"
       d="M 2,5 H 1" />
    <path
       id="path7"
       style="fill:none;fill-opacity:1;stroke:#000000;stroke-width:0.25;stroke-linecap:round;stroke-linejoin:round;stroke-dasharray:none;stroke-opacity:1;shape-rendering:geometricPrecision"
       d="M 2,6 H 1" />
    <path
       id="path8"
       style="fill:#000000;fill-opacity:1;stroke:none;stroke-width:0;shape-rendering:geometricPrecision"
       d="M 3.0263139,6.0000009 C 3.0263139,5.8453061 3.0263139,5.5768127 2.7631548,5.5768127 2.4999957,5.5768127 2.4999957,5.8417499 2.4999957,6.0000009 2.4999957,6.1564739 2.4999957,6.4142986 2.7631548,6.4142986 3.0263139,6.4142986 3.0263139,6.158252 3.0263139,6.0000009 Z M 2.871619,5.983998 C 2.871619,6.0497878 2.871619,6.1369148 2.8645066,6.1991483 2.8609504,6.229376 2.8485037,6.3325059 2.7631548,6.3325059 2.679584,6.3325059 2.6671373,6.2275979 2.6635811,6.1973702 2.6546906,6.1369148 2.6546906,6.0302287 2.6546906,5.983998 2.6546906,5.9182082 2.6546906,5.8453061 2.661803,5.7884068 2.6653592,5.7581791 2.6760278,5.6586054 2.7631548,5.6586054 2.8467256,5.6586054 2.8609504,5.7546229 2.8645066,5.7759601 2.871619,5.8346375 2.871619,5.9235425 2.871619,5.983998 Z M 2.871619,5.983998" />
    <path
       id="path9"
       style="fill:#000000;fill-opacity:1;stroke:none;stroke-width:0;shape-rendering:geometricPrecision"
       d="M 2.9886399,5.3647421 C 2.9886399,5.3238456 2.9459653,5.3238456 2.9335185,5.3238456 H 2.8535036 V 4.648164 C 2.8535036,4.6268267 2.8535036,4.5930426 2.8037166,4.5930426 2.7823792,4.5930426 2.7770449,4.5948207 2.76282,4.6090456 2.7432608,4.6268267 2.7005862,4.6695013 2.5885653,4.6712794 2.567228,4.6712794 2.5370002,4.68017 2.5370002,4.7121759 2.5370002,4.7530725 2.5778967,4.7530725 2.5921215,4.7530725 2.6259056,4.7530725 2.6668021,4.7477381 2.6988081,4.7388476 V 5.3238456 H 2.6099026 C 2.5956778,5.3238456 2.5565594,5.3238456 2.5565594,5.3647421 2.5565594,5.4056386 2.5956778,5.4056386 2.6099026,5.4056386 H 2.9335185 C 2.9459653,5.4056386 2.9886399,5.4056386 2.9886399,5.3647421 Z M 2.9886399,5.3647421" />
    <path
       id="path10"
       style="fill:#000000;fill-opacity:1;stroke:none;stroke-width:0;shape-rendering:geometricPrecision"
       d="M 3.0175534,4.3465168 V 4.33407 C 3.0175534,4.3162889 3.0175534,4.2931735 2.9944379,4.284283 2.9855474,4.2789487 2.9499852,4.2789487 2.9268698,4.2789487 L 2.8504111,4.2807268 H 2.6654877 L 2.816627,4.138478 C 2.83263,4.1242531 2.8753046,4.0886909 2.8930857,4.072688 2.9553195,4.0122322 3.0175534,3.9517765 3.0175534,3.8504243 3.0175534,3.7117318 2.9179792,3.5890422 2.7508369,3.5890422 2.7117185,3.5890422 2.6477066,3.5943765 2.5925852,3.6388293 2.5819166,3.6477198 2.5303514,3.6886163 2.5090141,3.7632969 L 2.5659136,3.8361994 C 2.573026,3.84509 2.5765822,3.8504243 2.5836947,3.8504243 2.5943633,3.8504243 2.5961414,3.8415337 2.5996977,3.829087 2.6228131,3.7508502 2.6619315,3.7028412 2.734834,3.7028412 2.8219613,3.7028412 2.8593016,3.7828561 2.8593016,3.8522024 2.8593016,3.9251049 2.816627,4.0015636 2.7472807,4.0744661 L 2.5303514,4.3056203 C 2.5196827,4.3162889 2.5196827,4.3180671 2.5196827,4.3376263 V 4.3465168 C 2.5196827,4.3874133 2.5321295,4.4016382 2.5748041,4.4016382 H 2.9642101 C 3.0068847,4.4016382 3.0175534,4.3874133 3.0175534,4.3465168 Z M 3.0175534,4.3465168" />
    <path
       id="path11"
       style="fill:#000000;fill-opacity:1;stroke:none;stroke-width:0;shape-rendering:geometricPrecision"
       d="M 3.022222,3.162484 C 3.022222,3.0611317 2.9671006,2.9917855 2.8657484,2.9651138 2.9582101,2.9153268 2.9884379,2.8424243 2.9884379,2.7784124 2.9884379,2.5952671 2.82663,2.5810422 2.7519494,2.5810422 2.5972539,2.5810422 2.5207952,2.6930631 2.5207952,2.7019537 2.5207952,2.7090661 2.5279076,2.7179566 2.5279076,2.7179566 L 2.5599136,2.7641875 C 2.5688041,2.7784124 2.5776947,2.7784124 2.5776947,2.7784124 2.5848071,2.7784124 2.5883633,2.773078 2.5936976,2.7659656 2.6505971,2.6823945 2.7323902,2.6823945 2.7466151,2.6823945 2.8195175,2.6823945 2.8284081,2.7197347 2.8284081,2.7748561 2.8284081,2.7908591 2.8284081,2.8459805 2.794624,2.8886551 2.7661743,2.9206611 2.7377245,2.9224392 2.7039404,2.9259954 2.6914937,2.9259954 2.6701564,2.9277735 2.6666001,2.9295517 2.6594877,2.9331079 2.6594877,2.9402203 2.6594877,2.9580014 V 2.9775606 C 2.6594877,3.0077885 2.6594877,3.0095666 2.6897156,3.0095666 H 2.7395026 C 2.842633,3.0095666 2.8550797,3.0735785 2.8550797,3.1607059 2.8550797,3.2371646 2.8479673,3.3118452 2.7448369,3.3118452 2.7074967,3.3118452 2.6239255,3.3047327 2.5474668,3.2318302 2.5367982,3.2229397 2.5367982,3.2211616 2.5314638,3.2211616 2.5207952,3.2211616 2.5190171,3.2318302 2.5172389,3.2336084 2.5172389,3.2336084 2.5030141,3.3065108 2.5030141,3.3118452 2.5030141,3.32607 2.6008101,3.4185317 2.7501713,3.4185317 2.9457633,3.4185317 3.022222,3.3136233 3.022222,3.162484 Z M 3.022222,3.162484" />
  </g>
</svg>
