<?xml version="1.0" encoding="UTF-8" standalone="no"?>
<svg
   width="7mm"
   height="20mm"
   viewBox="0 0 7 20"
   version="1.1"
   id="schemalib-demux8-m"
   xmlns="http://www.w3.org/2000/svg"
   xmlns:svg="http://www.w3.org/2000/svg">
  <g
    id="demux8-m">
    <path
       id="path1"
       style="fill:none;fill-opacity:1;stroke:#000000;stroke-width:0.25;stroke-linecap:round;stroke-linejoin:round;stroke-dasharray:none;stroke-opacity:1;shape-rendering:geometricPrecision"
       d="M 2,10 H 1" />
    <path
       id="path2"
       style="fill:none;fill-opacity:1;stroke:#000000;stroke-width:0.25;stroke-linecap:round;stroke-linejoin:round;stroke-dasharray:none;stroke-opacity:1;shape-rendering:geometricPrecision"
       d="M 3.5,19 V 18.3" />
    <path
       id="path3"
       style="fill:none;fill-opacity:1;stroke:#000000;stroke-width:0.25;stroke-linecap:round;stroke-linejoin:round;stroke-dasharray:none;stroke-opacity:1;shape-rendering:geometricPrecision"
       d="M 5,11 H 6" />
    <path
       id="path4"
       style="fill:none;fill-opacity:1;stroke:#000000;stroke-width:0.25;stroke-linecap:round;stroke-linejoin:round;stroke-dasharray:none;stroke-opacity:1;shape-rendering:geometricPrecision"
       d="M 5,13 H 6" />
    <path
       id="path5"
       style="fill:none;fill-opacity:1;stroke:#000000;stroke-width:0.25;stroke-linecap:round;stroke-linejoin:round;stroke-dasharray:none;stroke-opacity:1;shape-rendering:geometricPrecision"
       d="M 5,15 H 6" />
    <path
       id="path6"
       style="fill:none;fill-opacity:1;stroke:#000000;stroke-width:0.25;stroke-linecap:round;stroke-linejoin:round;stroke-dasharray:none;stroke-opacity:1;shape-rendering:geometricPrecision"
       d="M 5,17 H 6" />
    <path
       id="path7"
       style="fill:#ffffff;fill-opacity:1;stroke:#000000;stroke-width:0.25;stroke-linecap:round;stroke-linejoin:round;stroke-dasharray:none;stroke-opacity:1;shape-rendering:geometricPrecision"
       d="M 5,19 V 1 L 2,2.5 V 17.5 Z" />
    <path
       id="path8"
       style="fill:#000000;fill-opacity:1;stroke:none;stroke-width:0;shape-rendering:geometricPrecision"
       d="M 4.5001645,16.999989 C 4.5001645,16.763764 4.5001645,16.353766 4.0983113,16.353766 3.6964582,16.353766 3.6964582,16.758334 3.6964582,16.999989 3.6964582,17.238929 3.6964582,17.632636 4.0983113,17.632636 4.5001645,17.632636 4.5001645,17.241644 4.5001645,16.999989 Z M 4.26394,16.975552 C 4.26394,17.076015 4.26394,17.209061 4.2530791,17.304094 4.2476487,17.350253 4.2286421,17.507736 4.0983113,17.507736 3.9706958,17.507736 3.9516892,17.347538 3.9462588,17.301379 3.9326827,17.209061 3.9326827,17.046148 3.9326827,16.975552 3.9326827,16.875089 3.9326827,16.763764 3.9435436,16.676877 3.948974,16.630718 3.9652654,16.478666 4.0983113,16.478666 4.2259269,16.478666 4.2476487,16.625288 4.2530791,16.657871 4.26394,16.747473 4.26394,16.883234 4.26394,16.975552 Z M 4.26394,16.975552" />
    <path
       id="path9"
       style="fill:#000000;fill-opacity:1;stroke:none;stroke-width:0;shape-rendering:geometricPrecision"
       d="M 4.4431252,15.55845 C 4.4431252,15.496 4.3779599,15.496 4.3589534,15.496 H 4.2367685 V 14.464217 C 4.2367685,14.431634 4.2367685,14.380045 4.1607424,14.380045 4.1281598,14.380045 4.1200141,14.38276 4.0982924,14.404482 4.068425,14.431634 4.0032597,14.496799 3.8322009,14.499515 3.7996183,14.499515 3.7534596,14.513091 3.7534596,14.561965 3.7534596,14.624415 3.8159096,14.624415 3.8376314,14.624415 3.8892205,14.624415 3.9516706,14.616269 4.0005445,14.602693 V 15.496 H 3.8647836 C 3.8430618,15.496 3.783327,15.496 3.783327,15.55845 3.783327,15.6209 3.8430618,15.6209 3.8647836,15.6209 H 4.3589534 C 4.3779599,15.6209 4.4431252,15.6209 4.4431252,15.55845 Z M 4.4431252,15.55845" />
    <path
       id="path10"
       style="fill:#000000;fill-opacity:1;stroke:none;stroke-width:0;shape-rendering:geometricPrecision"
       d="M 4.487034,13.529738 V 13.510732 C 4.487034,13.48358 4.487034,13.448282 4.4517362,13.434706 4.4381601,13.42656 4.3838557,13.42656 4.3485578,13.42656 L 4.2318034,13.429275 H 3.9494207 L 4.1802143,13.212058 C 4.2046513,13.190336 4.2698165,13.136032 4.2969687,13.111595 4.3920013,13.019277 4.487034,12.92696 4.487034,12.772192 4.487034,12.560405 4.3349818,12.373055 4.0797512,12.373055 4.0200164,12.373055 3.9222685,12.381201 3.8380967,12.449081 3.8218054,12.462657 3.7430641,12.525107 3.7104814,12.639146 L 3.7973684,12.75047 C 3.8082293,12.764047 3.8136598,12.772192 3.8245206,12.772192 3.8408119,12.772192 3.8435272,12.758616 3.8489576,12.73961 3.8842554,12.62014 3.9439903,12.546829 4.0553142,12.546829 4.1883599,12.546829 4.2453795,12.669014 4.2453795,12.774907 4.2453795,12.886231 4.1802143,13.002986 4.0743208,13.11431 L 3.7430641,13.467288 C 3.7267728,13.48358 3.7267728,13.486295 3.7267728,13.516162 V 13.529738 C 3.7267728,13.592188 3.7457793,13.61391 3.8109445,13.61391 H 4.4055774 C 4.4707427,13.61391 4.487034,13.592188 4.487034,13.529738 Z M 4.487034,13.529738" />
    <path
       id="path11"
       style="fill:#000000;fill-opacity:1;stroke:none;stroke-width:0;shape-rendering:geometricPrecision"
       d="M 4.4943253,11.248932 C 4.4943253,11.094164 4.4101535,10.988271 4.2553861,10.947542 4.3965774,10.871516 4.4427362,10.760192 4.4427362,10.662444 4.4427362,10.382777 4.1956513,10.361055 4.0816121,10.361055 3.845388,10.361055 3.7286336,10.532114 3.7286336,10.54569 3.7286336,10.556551 3.7394945,10.570127 3.7394945,10.570127 L 3.7883684,10.640723 C 3.8019445,10.662444 3.8155206,10.662444 3.8155206,10.662444 3.8263815,10.662444 3.8318119,10.654299 3.8399576,10.643438 3.9268446,10.515823 4.0517447,10.515823 4.0734664,10.515823 4.1847904,10.515823 4.1983665,10.572842 4.1983665,10.657014 4.1983665,10.681451 4.1983665,10.765623 4.1467773,10.830788 4.1033338,10.879662 4.0598903,10.882377 4.0083012,10.887807 3.9892946,10.887807 3.956712,10.890523 3.9512816,10.893238 3.9404207,10.898668 3.9404207,10.909529 3.9404207,10.936681 V 10.966549 C 3.9404207,11.012708 3.9404207,11.015423 3.9865794,11.015423 H 4.0626055 C 4.2200882,11.015423 4.2390948,11.113171 4.2390948,11.246216 4.2390948,11.362971 4.2282339,11.47701 4.0707512,11.47701 4.0137316,11.47701 3.8861163,11.466149 3.7693619,11.354825 3.7530706,11.341249 3.7530706,11.338534 3.7449249,11.338534 3.7286336,11.338534 3.7259184,11.354825 3.7232032,11.35754 3.7232032,11.35754 3.7014814,11.468864 3.7014814,11.47701 3.7014814,11.498732 3.8508185,11.639923 4.0788969,11.639923 4.3775709,11.639923 4.4943253,11.479725 4.4943253,11.248932 Z M 4.4943253,11.248932" />
    <path
       id="path12"
       style="fill:none;fill-opacity:1;stroke:#000000;stroke-width:0.25;stroke-linecap:round;stroke-linejoin:round;stroke-dasharray:none;stroke-opacity:1;shape-rendering:geometricPrecision"
       d="M 5,3 H 6" />
    <path
       id="path13"
       style="fill:none;fill-opacity:1;stroke:#000000;stroke-width:0.25;stroke-linecap:round;stroke-linejoin:round;stroke-dasharray:none;stroke-opacity:1;shape-rendering:geometricPrecision"
       d="M 5,5 H 6" />
    <path
       id="path14"
       style="fill:none;fill-opacity:1;stroke:#000000;stroke-width:0.25;stroke-linecap:round;stroke-linejoin:round;stroke-dasharray:none;stroke-opacity:1;shape-rendering:geometricPrecision"
       d="M 5,7 H 6" />
    <path
       id="path15"
       style="fill:none;fill-opacity:1;stroke:#000000;stroke-width:0.25;stroke-linecap:round;stroke-linejoin:round;stroke-dasharray:none;stroke-opacity:1;shape-rendering:geometricPrecision"
       d="M 5,9 H 6" />
    <path
       id="path16"
       style="fill:#000000;fill-opacity:1;stroke:none;stroke-width:0;shape-rendering:geometricPrecision"
       d="M 4.5190913,9.2473161 C 4.5190913,9.1848661 4.4973695,9.1658595 4.4376347,9.1658595 H 4.3643238 V 8.476194 C 4.3643238,8.4137439 4.3453173,8.3920222 4.280152,8.3920222 H 4.155252 C 4.1226693,8.3920222 4.0955172,8.3920222 4.0765106,8.4327505 L 3.6909496,9.1414226 C 3.6773735,9.1658595 3.6773735,9.17129 3.6773735,9.2038726 V 9.2473161 C 3.6773735,9.3016205 3.6882344,9.3287727 3.75883,9.3287727 H 4.1498215 V 9.5106923 C 4.1498215,9.5677119 4.1606824,9.5948641 4.2339933,9.5948641 H 4.280152 C 4.3480325,9.5948641 4.3643238,9.5731424 4.3643238,9.5106923 V 9.3287727 H 4.4376347 C 4.4919391,9.3287727 4.5190913,9.3179118 4.5190913,9.2473161 Z M 4.1606824,9.1658595 H 3.8565779 C 4.1335302,8.6581136 4.1498215,8.6038093 4.1579672,8.5739419 H 4.1606824 Z M 4.1606824,9.1658595" />
    <path
       id="path17"
       style="fill:#000000;fill-opacity:1;stroke:none;stroke-width:0;shape-rendering:geometricPrecision"
       d="M 4.493589,7.2000183 C 4.493589,6.9719399 4.3985563,6.8008811 4.1324649,6.8008811 4.0917366,6.8008811 4.0482931,6.8090268 4.0075649,6.8253181 V 6.5537962 H 4.3469672 C 4.4284238,6.5537962 4.431139,6.5130679 4.431139,6.4669092 4.431139,6.4234657 4.431139,6.3800222 4.3469672,6.3800222 H 3.8663735 C 3.8093539,6.3800222 3.7822017,6.3908831 3.7822017,6.4614788 V 6.9909464 C 3.7822017,7.0696878 3.82293,7.0696878 3.8690887,7.0696878 3.9125322,7.0696878 3.9288235,7.0696878 3.9532605,7.0289595 3.9939888,6.961079 4.0537236,6.9257812 4.1270345,6.9257812 4.2383584,6.9257812 4.2383584,7.0588269 4.2383584,7.1918726 4.2383584,7.3276335 4.2383584,7.457964 4.0564388,7.457964 4.0048496,7.457964 3.88538,7.4416727 3.8174995,7.3059118 3.8120691,7.2950509 3.8066387,7.28419 3.7930626,7.28419 3.7794865,7.28419 3.7767713,7.2923357 3.7659104,7.308627 3.7414734,7.3466401 3.7034604,7.4090901 3.7034604,7.419951 3.7034604,7.4335271 3.8147843,7.6208772 4.0618692,7.6208772 4.3415368,7.6208772 4.493589,7.4796858 4.493589,7.2000183 Z M 4.493589,7.2000183" />
    <path
       id="path18"
       style="fill:#000000;fill-opacity:1;stroke:none;stroke-width:0;shape-rendering:geometricPrecision"
       d="M 4.4953253,5.1849221 C 4.4953253,5.0871742 4.4953253,4.7640632 4.1586382,4.7640632 4.0608903,4.7640632 3.9930099,4.8183675 3.9468511,4.9188306 3.9549968,4.7640632 3.9549968,4.7260501 3.982149,4.6554544 4.0337381,4.5251239 4.1477773,4.5088326 4.2075121,4.5088326 4.2373795,4.5088326 4.2835383,4.514263 4.3242665,4.5359848 4.3378426,4.5441304 4.3432731,4.5495609 4.3514187,4.5495609 4.3731405,4.5495609 4.3731405,4.5278391 4.3731405,4.5006869 V 4.4382369 C 4.3731405,4.3975086 4.3731405,4.3947934 4.3106904,4.3730717 4.2672469,4.3540651 4.218373,4.3540651 4.2020817,4.3540651 3.7024814,4.3540651 3.7024814,4.8536654 3.7024814,5.0057176 3.7024814,5.1849221 3.7024814,5.6329332 4.107049,5.6329332 4.2400948,5.6329332 4.3242665,5.6003505 4.3948622,5.5216092 4.4844644,5.4211461 4.4953253,5.320683 4.4953253,5.1849221 Z M 4.2536708,5.1849221 C 4.2536708,5.3532656 4.2536708,5.47002 4.1043338,5.47002 3.9685729,5.47002 3.9495664,5.3152526 3.9495664,5.1659155 3.9495664,5.0220089 3.9902946,4.8889632 4.1151947,4.8889632 4.2536708,4.8889632 4.2536708,5.0138633 4.2536708,5.1849221 Z M 4.2536708,5.1849221" />
    <path
       id="path19"
       style="fill:#000000;fill-opacity:1;stroke:none;stroke-width:0;shape-rendering:geometricPrecision"
       d="M 4.4943253,2.4769092 C 4.4943253,2.4388961 4.4943253,2.3927374 4.4210144,2.3900222 H 3.8209511 C 3.7367793,2.3900222 3.7014814,2.3900222 3.7014814,2.4714788 V 2.4959157 C 3.7014814,2.5230679 3.7014814,2.5556505 3.7394945,2.5719419 3.7503554,2.5773723 3.807375,2.5773723 3.845388,2.5773723 L 3.9648577,2.5746571 H 4.2581013 C 3.869825,3.0036616 3.869825,3.4408118 3.869825,3.5276988 3.869825,3.5847184 3.8834011,3.6118706 3.9539968,3.6118706 H 4.0327381 C 4.0598903,3.6118706 4.1169099,3.6118706 4.1169099,3.5439902 4.1223403,3.1149856 4.2716774,2.8000202 4.4807492,2.5393592 4.4943253,2.5230679 4.4943253,2.5094918 4.4943253,2.4769092 Z M 4.4943253,2.4769092" />
  </g>
</svg>
