<?xml version="1.0" encoding="UTF-8" standalone="no"?>
<svg
   width="7mm"
   height="8mm"
   viewBox="0 0 7 8"
   version="1.1"
   id="schemalib-mux2-m"
   xmlns="http://www.w3.org/2000/svg"
   xmlns:svg="http://www.w3.org/2000/svg">
  <g
    id="mux2-m">
    <path
       id="path1"
       style="fill:none;fill-opacity:1;stroke:#000000;stroke-width:0.25;stroke-linecap:round;stroke-linejoin:round;stroke-dasharray:none;stroke-opacity:1;shape-rendering:geometricPrecision"
       d="M 5,4 H 6" />
    <path
       id="path2"
       style="fill:none;fill-opacity:1;stroke:#000000;stroke-width:0.25;stroke-linecap:round;stroke-linejoin:round;stroke-dasharray:none;stroke-opacity:1;shape-rendering:geometricPrecision"
       d="M 3.5,7 V 6.3" />
    <path
       id="path3"
       style="fill:none;fill-opacity:1;stroke:#000000;stroke-width:0.25;stroke-linecap:round;stroke-linejoin:round;stroke-dasharray:none;stroke-opacity:1;shape-rendering:geometricPrecision"
       d="M 2,3 H 1" />
    <path
       id="path4"
       style="fill:none;fill-opacity:1;stroke:#000000;stroke-width:0.25;stroke-linecap:round;stroke-linejoin:round;stroke-dasharray:none;stroke-opacity:1;shape-rendering:geometricPrecision"
       d="M 2,5 H 1" />
    <path
       id="path5"
       style="fill:#ffffff;fill-opacity:1;stroke:#000000;stroke-width:0.25;stroke-linecap:round;stroke-linejoin:round;stroke-dasharray:none;stroke-opacity:1;shape-rendering:geometricPrecision"
       d="M 2,7 V 1 L 5,2.5 V 5.5 Z" />
    <path
       id="path6"
       style="fill:#000000;fill-opacity:1;stroke:none;stroke-width:0;shape-rendering:geometricPrecision"
       d="M 3.3037045,5.0000082 C 3.3037045,4.7637837 3.3037045,4.3537848 2.9018513,4.3537848 2.4999982,4.3537848 2.4999982,4.7583532 2.4999982,5.0000082 2.4999982,5.2389479 2.4999982,5.6326554 2.9018513,5.6326554 3.3037045,5.6326554 3.3037045,5.2416632 3.3037045,5.0000082 Z M 3.06748,4.9755712 C 3.06748,5.0760345 3.06748,5.2090805 3.0566191,5.3041133 3.0511887,5.3502721 3.0321821,5.5077551 2.9018513,5.5077551 2.7742358,5.5077551 2.7552292,5.3475569 2.7497988,5.3013981 2.7362227,5.2090805 2.7362227,5.046167 2.7362227,4.9755712 2.7362227,4.8751079 2.7362227,4.7637837 2.7470836,4.6768965 2.752514,4.6307377 2.7688054,4.4786851 2.9018513,4.4786851 3.0294669,4.4786851 3.0511887,4.6253073 3.0566191,4.6578899 3.06748,4.7474923 3.06748,4.8832536 3.06748,4.9755712 Z M 3.06748,4.9755712" />
    <path
       id="path7"
       style="fill:#000000;fill-opacity:1;stroke:none;stroke-width:0;shape-rendering:geometricPrecision"
       d="M 3.2466652,3.5584701 C 3.2466652,3.49602 3.1814999,3.49602 3.1624934,3.49602 H 3.0403085 V 2.4642369 C 3.0403085,2.4316543 3.0403085,2.3800651 2.9642824,2.3800651 2.9316998,2.3800651 2.9235541,2.3827804 2.9018324,2.4045021 2.871965,2.4316543 2.8067997,2.4968195 2.6357409,2.4995348 2.6031583,2.4995348 2.5569996,2.5131109 2.5569996,2.5619848 2.5569996,2.6244348 2.6194496,2.6244348 2.6411714,2.6244348 2.6927605,2.6244348 2.7552106,2.6162892 2.8040845,2.6027131 V 3.49602 H 2.6683236 C 2.6466018,3.49602 2.586867,3.49602 2.586867,3.5584701 2.586867,3.6209201 2.6466018,3.6209201 2.6683236,3.6209201 H 3.1624934 C 3.1814999,3.6209201 3.2466652,3.6209201 3.2466652,3.5584701 Z M 3.2466652,3.5584701" />
  </g>
</svg>
