<?xml version="1.0" encoding="UTF-8" standalone="no"?>
<svg
   width="10mm"
   height="13mm"
   viewBox="0 0 10 13"
   version="1.1"
   id="schemalib-demux4-l"
   xmlns="http://www.w3.org/2000/svg"
   xmlns:svg="http://www.w3.org/2000/svg">
  <g
    id="demux4-l">
    <path
       id="path1"
       style="fill:none;fill-opacity:1;stroke:#000000;stroke-width:0.25;stroke-linecap:round;stroke-linejoin:round;stroke-dasharray:none;stroke-opacity:1;shape-rendering:geometricPrecision"
       d="M 3,6 H 1" />
    <path
       id="path2"
       style="fill:none;fill-opacity:1;stroke:#000000;stroke-width:0.25;stroke-linecap:round;stroke-linejoin:round;stroke-dasharray:none;stroke-opacity:1;shape-rendering:geometricPrecision"
       d="M 7,3 H 9" />
    <path
       id="path3"
       style="fill:none;fill-opacity:1;stroke:#000000;stroke-width:0.25;stroke-linecap:round;stroke-linejoin:round;stroke-dasharray:none;stroke-opacity:1;shape-rendering:geometricPrecision"
       d="M 7,5 H 9" />
    <path
       id="path4"
       style="fill:none;fill-opacity:1;stroke:#000000;stroke-width:0.25;stroke-linecap:round;stroke-linejoin:round;stroke-dasharray:none;stroke-opacity:1;shape-rendering:geometricPrecision"
       d="M 7,7 H 9" />
    <path
       id="path5"
       style="fill:none;fill-opacity:1;stroke:#000000;stroke-width:0.25;stroke-linecap:round;stroke-linejoin:round;stroke-dasharray:none;stroke-opacity:1;shape-rendering:geometricPrecision"
       d="M 7,9 H 9" />
    <path
       id="path6"
       style="fill:#ffffff;fill-opacity:1;stroke:#000000;stroke-width:0.25;stroke-linecap:round;stroke-linejoin:round;stroke-dasharray:none;stroke-opacity:1;shape-rendering:geometricPrecision"
       d="M 7,11 V 1 L 3,3 V 9 Z" />
    <path
       id="path7"
       style="fill:#000000;fill-opacity:1;stroke:none;stroke-width:0;shape-rendering:geometricPrecision"
       d="M 6.5000085,8.9999962 C 6.5000085,8.7637717 6.5000085,8.3537728 6.0981553,8.3537728 5.6963022,8.3537728 5.6963022,8.7583412 5.6963022,8.9999962 5.6963022,9.2389359 5.6963022,9.6326434 6.0981553,9.6326434 6.5000085,9.6326434 6.5000085,9.2416512 6.5000085,8.9999962 Z M 6.263784,8.9755592 C 6.263784,9.0760225 6.263784,9.2090685 6.2529231,9.3041013 6.2474927,9.3502601 6.2284861,9.5077431 6.0981553,9.5077431 5.9705398,9.5077431 5.9515332,9.3475449 5.9461028,9.3013861 5.9325267,9.2090685 5.9325267,9.046155 5.9325267,8.9755592 5.9325267,8.8750959 5.9325267,8.7637717 5.9433876,8.6768845 5.948818,8.6307257 5.9651094,8.4786731 6.0981553,8.4786731 6.2257709,8.4786731 6.2474927,8.6252953 6.2529231,8.6578779 6.263784,8.7474803 6.263784,8.8832416 6.263784,8.9755592 Z M 6.263784,8.9755592" />
    <path
       id="path8"
       style="fill:#000000;fill-opacity:1;stroke:none;stroke-width:0;shape-rendering:geometricPrecision"
       d="M 6.4429652,7.5584731 C 6.4429652,7.496023 6.3777999,7.496023 6.3587934,7.496023 H 6.2366085 V 6.4642399 C 6.2366085,6.4316573 6.2366085,6.3800681 6.1605824,6.3800681 6.1279998,6.3800681 6.1198541,6.3827833 6.0981324,6.4045051 6.068265,6.4316573 6.0030997,6.4968225 5.8320409,6.4995378 5.7994583,6.4995378 5.7532996,6.5131138 5.7532996,6.5619878 5.7532996,6.6244378 5.8157496,6.6244378 5.8374714,6.6244378 5.8890605,6.6244378 5.9515106,6.6162922 6.0003845,6.6027161 V 7.496023 H 5.8646236 C 5.8429018,7.496023 5.783167,7.496023 5.783167,7.5584731 5.783167,7.6209231 5.8429018,7.6209231 5.8646236,7.6209231 H 6.3587934 C 6.3777999,7.6209231 6.4429652,7.6209231 6.4429652,7.5584731 Z M 6.4429652,7.5584731" />
    <path
       id="path9"
       style="fill:#000000;fill-opacity:1;stroke:none;stroke-width:0;shape-rendering:geometricPrecision"
       d="M 6.486873,5.5367513 V 5.5177448 C 6.486873,5.4905926 6.486873,5.4552948 6.4515752,5.4417187 6.4379991,5.433573 6.3836947,5.433573 6.3483968,5.433573 L 6.2316424,5.4362882 H 5.9492597 L 6.1800533,5.2190707 C 6.2044903,5.197349 6.2696555,5.1430446 6.2968077,5.1186076 6.3918403,5.0262902 6.486873,4.9339728 6.486873,4.7792053 6.486873,4.5674182 6.3348208,4.3800681 6.0795902,4.3800681 6.0198554,4.3800681 5.9221075,4.3882138 5.8379357,4.4560943 5.8216444,4.4696703 5.7429031,4.5321204 5.7103204,4.6461596 L 5.7972074,4.7574835 C 5.8080683,4.7710596 5.8134988,4.7792053 5.8243596,4.7792053 5.8406509,4.7792053 5.8433662,4.7656292 5.8487966,4.7466227 5.8840944,4.627153 5.9438293,4.5538421 6.0551532,4.5538421 6.1881989,4.5538421 6.2452185,4.676027 6.2452185,4.7819205 6.2452185,4.8932445 6.1800533,5.0099989 6.0741598,5.1213228 L 5.7429031,5.4743013 C 5.7266118,5.4905926 5.7266118,5.4933078 5.7266118,5.5231752 V 5.5367513 C 5.7266118,5.5992013 5.7456183,5.6209231 5.8107835,5.6209231 H 6.4054164 C 6.4705817,5.6209231 6.486873,5.5992013 6.486873,5.5367513 Z M 6.486873,5.5367513" />
    <path
       id="path10"
       style="fill:#000000;fill-opacity:1;stroke:none;stroke-width:0;shape-rendering:geometricPrecision"
       d="M 6.4941643,3.2659447 C 6.4941643,3.1111772 6.4099925,3.0052837 6.2552251,2.9645554 6.3964164,2.8885293 6.4425752,2.7772053 6.4425752,2.6794574 6.4425752,2.3997899 6.1954903,2.3780681 6.0814511,2.3780681 5.845227,2.3780681 5.7284726,2.5491269 5.7284726,2.562703 5.7284726,2.5735639 5.7393335,2.58714 5.7393335,2.58714 L 5.7882074,2.6577357 C 5.8017835,2.6794574 5.8153596,2.6794574 5.8153596,2.6794574 5.8262205,2.6794574 5.8316509,2.6713118 5.8397966,2.6604509 5.9266836,2.5328356 6.0515837,2.5328356 6.0733054,2.5328356 6.1846294,2.5328356 6.1982055,2.5898552 6.1982055,2.674027 6.1982055,2.6984639 6.1982055,2.7826357 6.1466163,2.847801 6.1031728,2.8966749 6.0597293,2.8993901 6.0081402,2.9048206 5.9891336,2.9048206 5.956551,2.9075358 5.9511206,2.910251 5.9402597,2.9156814 5.9402597,2.9265423 5.9402597,2.9536945 V 2.9835619 C 5.9402597,3.0297206 5.9402597,3.0324358 5.9864184,3.0324358 H 6.0624445 C 6.2199272,3.0324358 6.2389338,3.1301837 6.2389338,3.2632294 6.2389338,3.3799839 6.2280729,3.494023 6.0705902,3.494023 6.0135706,3.494023 5.8859553,3.4831622 5.7692009,3.3718382 5.7529096,3.3582621 5.7529096,3.3555469 5.7447639,3.3555469 5.7284726,3.3555469 5.7257574,3.3718382 5.7230422,3.3745534 5.7230422,3.3745534 5.7013204,3.4858774 5.7013204,3.494023 5.7013204,3.5157448 5.8506575,3.6569362 6.0787358,3.6569362 6.3774099,3.6569362 6.4941643,3.4967383 6.4941643,3.2659447 Z M 6.4941643,3.2659447" />
    <path
       id="path11"
       style="fill:none;fill-opacity:1;stroke:#000000;stroke-width:0.25;stroke-linecap:round;stroke-linejoin:round;stroke-dasharray:none;stroke-opacity:1;shape-rendering:geometricPrecision"
       d="M 5,10 V 12"  />
  </g>
</svg>
