<?xml version="1.0" encoding="UTF-8" standalone="no"?>
<svg
   width="12mm"
   height="14mm"
   viewBox="0 0 12 14"
   version="1.1"
   id="schemalib-fft-clkdn-setl-resx-qnq-m"
   xmlns="http://www.w3.org/2000/svg"
   xmlns:svg="http://www.w3.org/2000/svg">
  <g
     id="fft-clkdn-setl-resx-qnq-m">
    <path
       id="path1" 
       style="fill:#ffffff;fill-opacity:1;stroke:#000000;stroke-width:0.25;stroke-linecap:round;stroke-linejoin:round;stroke-dasharray:none;stroke-opacity:1;shape-rendering:geometricPrecision"
       d="M 2.5,2.5 H 9.5 V 11.5 H 2.5 Z"  />
    <path
       id="path3"
       style="fill:none;fill-opacity:1;stroke:#000000;stroke-width:0.25;stroke-linecap:round;stroke-linejoin:round;stroke-dasharray:none;stroke-opacity:1;shape-rendering:geometricPrecision" 
       d="M 9.5,5 H 11"  />
    <path
       id="path4"
       style="fill:none;fill-opacity:1;stroke:#000000;stroke-width:0.25;stroke-linecap:round;stroke-linejoin:round;stroke-dasharray:none;stroke-opacity:1;shape-rendering:geometricPrecision" 
       d="M 1,5 H 2.5"  />
    <path
       id="path5" 
       style="fill:none;fill-opacity:1;stroke:#000000;stroke-width:0.25;stroke-linecap:round;stroke-linejoin:round;stroke-dasharray:none;stroke-opacity:1;shape-rendering:geometricPrecision"
       d="M 6,2.5 V 1"  />
    <path
       id="path6"
       style="fill:none;fill-opacity:1;stroke:#000000;stroke-width:0.25;stroke-linecap:round;stroke-linejoin:round;stroke-dasharray:none;stroke-opacity:1;shape-rendering:geometricPrecision" 
       d="M 1,7 H 2.5"  />
    <path
       id="path7" 
       style="fill:none;fill-opacity:1;stroke:#000000;stroke-width:0.25;stroke-linecap:round;stroke-linejoin:round;stroke-dasharray:none;stroke-opacity:1;shape-rendering:geometricPrecision"
       d="M 2.5,6 4,7 2.5,8"  />
    <path
       id="path8" 
       style="fill:none;fill-opacity:1;stroke:#000000;stroke-width:0.25;stroke-linecap:round;stroke-linejoin:round;stroke-dasharray:none;stroke-opacity:1;shape-rendering:geometricPrecision"
       d="M 9.5,9 H 11"  />
    <path
       id="path9" 
       style="fill:none;fill-opacity:1;stroke:#000000;stroke-width:0.25;stroke-linecap:round;stroke-linejoin:round;stroke-dasharray:none;stroke-opacity:1;shape-rendering:geometricPrecision"
       d="M 4.5,6 H 5 V 8 H 5.5"  />
    <path
       id="path11" 
       style="fill:#000000;fill-opacity:1;stroke:none;stroke-width:0;shape-rendering:geometricPrecision"
       d="M 9.0000025,5.0000116 C 9.0000025,4.5766776 8.8445596,4.2095676 8.292241,4.2095676 7.7101568,4.2095676 7.5844795,4.6130578 7.5844795,5.0000116 7.5844795,5.3935799 7.7200786,5.7673045 8.292241,5.7673045 8.325314,5.7673045 8.374923,5.7673045 8.4443767,5.7573845 L 8.5204447,5.8698326 C 8.5667467,5.9392856 8.5733617,5.9459006 8.6428147,5.9459006 H 8.8114868 C 8.8379448,5.9459006 8.8875548,5.9459006 8.8875548,5.8995986 8.8875548,5.8797546 8.8809448,5.8764476 8.8544818,5.8400676 L 8.7188823,5.661471 C 8.9867734,5.4994134 9.0000025,5.1521472 9.0000025,5.0000116 Z M 8.6957312,4.9967016 C 8.6957312,5.1289935 8.6957312,5.3505823 8.5766685,5.4861815 L 8.4609132,5.3340486 C 8.4410694,5.3108975 8.4311475,5.3108975 8.3914599,5.3108975 H 8.2624753 C 8.2327093,5.3108975 8.1864073,5.3108975 8.1864073,5.3605065 8.1864073,5.3836575 8.2525533,5.4795692 8.2922408,5.532486 8.2988508,5.542406 8.3319288,5.592017 8.3319288,5.598632 8.3319288,5.598632 8.2988558,5.601942 8.2922408,5.601942 7.8887506,5.601942 7.8887506,5.1852226 7.8887506,4.9967067 7.8887506,4.8114981 7.8887506,4.3749349 8.2922408,4.3749349 8.695731,4.3749349 8.695731,4.8081908 8.695731,4.9967067 Z M 8.6957312,4.9967016"  />
    <path
       id="path12" 
       style="fill:none;fill-opacity:1;stroke:#000000;stroke-width:0.25;stroke-linecap:round;stroke-linejoin:round;stroke-dasharray:none;stroke-opacity:1;shape-rendering:geometricPrecision"
       d="M 7.324027,8.0078776 H 8.9999996"  />
    <path
       id="path13" 
       style="fill:#000000;fill-opacity:1;stroke:none;stroke-width:0;shape-rendering:geometricPrecision"
       d="M 8.8687595,9.0462366 C 8.8687595,8.6229026 8.7133166,8.2557926 8.160998,8.2557926 7.5789138,8.2557926 7.4532365,8.6592828 7.4532365,9.0462366 7.4532365,9.4398049 7.5888356,9.8135295 8.160998,9.8135295 8.194071,9.8135295 8.24368,9.8135295 8.3131337,9.8036095 L 8.3892017,9.9160576 C 8.4355037,9.9855106 8.4421187,9.9921256 8.5115717,9.9921256 H 8.6802438 C 8.7067018,9.9921256 8.7563118,9.9921256 8.7563118,9.9458236 8.7563118,9.9259796 8.7497018,9.9226726 8.7232388,9.8862926 L 8.5876393,9.707696 C 8.8555304,9.5456384 8.8687595,9.1983722 8.8687595,9.0462366 Z M 8.5644882,9.0429266 C 8.5644882,9.1752185 8.5644882,9.3968074 8.4454255,9.5324065 L 8.3296702,9.3802736 C 8.3098264,9.3571225 8.2999045,9.3571225 8.2602169,9.3571225 H 8.1312323 C 8.1014663,9.3571225 8.0551643,9.3571225 8.0551643,9.4067315 8.0551643,9.4298825 8.1213103,9.5257942 8.1609978,9.578711 8.1676078,9.588631 8.2006858,9.638242 8.2006858,9.644857 8.2006858,9.644857 8.1676128,9.648167 8.1609978,9.648167 7.7575076,9.648167 7.7575076,9.2314476 7.7575076,9.0429317 7.7575076,8.8577231 7.7575076,8.4211599 8.1609978,8.4211599 8.564488,8.4211599 8.564488,8.8544158 8.564488,9.0429317 Z M 8.5644882,9.0429266"  />
    <path
       id="path14" 
       style="fill:#ffffff;fill-opacity:1;stroke:#000000;stroke-width:0.25;stroke-linecap:round;stroke-linejoin:round;stroke-dasharray:none;stroke-opacity:1;shape-rendering:geometricPrecision"
       d="M 10.5,9 C 10.5,9.3 10.3,9.5 10,9.5 9.7,9.5 9.5,9.3 9.5,9 9.5,8.7 9.7,8.5 10,8.5 10.3,8.5 10.5,8.7 10.5,9 Z"  />
    <path
       id="path15" 
       style="fill:#ffffff;fill-opacity:1;stroke:#000000;stroke-width:0.25;stroke-linecap:round;stroke-linejoin:round;stroke-dasharray:none;stroke-opacity:1;shape-rendering:geometricPrecision"
       d="M 2.5,7 C 2.5,7.3 2.3,7.5 2,7.5 1.7,7.5 1.5,7.3 1.5,7 1.5,6.7 1.7,6.5 2,6.5 2.3,6.5 2.5,6.7 2.5,7 Z"  />
    <path
       id="path16" 
       style="fill:#ffffff;fill-opacity:1;stroke:#000000;stroke-width:0.25;stroke-linecap:round;stroke-linejoin:round;stroke-dasharray:none;stroke-opacity:1;shape-rendering:geometricPrecision"
       d="M 6.5,2 C 6.5,2.3 6.3,2.5 6,2.5 5.7,2.5 5.5,2.3 5.5,2 5.5,1.7 5.7,1.5 6,1.5 6.3,1.5 6.5,1.7 6.5,2 Z"  />
    <path
       id="path18" 
       style="fill:#000000;fill-opacity:1;stroke:none;stroke-width:0;shape-rendering:geometricPrecision"
       d="M 4.3525808,4.3930837 V 4.3765472 C 4.3525808,4.3070939 4.3393516,4.274021 4.2533619,4.274021 H 3.0792715 C 3.0032037,4.274021 2.9800526,4.2971721 2.9800526,4.3765472 V 4.3930837 C 2.9800526,4.4923026 3.0296621,4.4923026 3.0891934,4.4923026 L 3.5125274,4.485688 V 5.6233981 C 3.5125274,5.6994659 3.5356785,5.7259243 3.6150536,5.7259243 H 3.7208871 C 3.8002622,5.7259243 3.8234133,5.6994659 3.8234133,5.6233981 V 4.485688 L 4.24344,4.4923026 C 4.3029714,4.4923026 4.3525808,4.4923026 4.3525808,4.3930837 Z M 4.3525808,4.3930837" />
    <path
       id="path22" 
       style="fill:none;fill-opacity:1;stroke:#000000;stroke-width:0.25;stroke-linecap:round;stroke-linejoin:round;stroke-dasharray:none;stroke-opacity:1;shape-rendering:geometricPrecision"
       d="M 5.340587,3.0187126 H 6.6296059"  />
    <path
       id="path23" 
       style="fill:#000000;fill-opacity:1;stroke:none;stroke-width:0;shape-rendering:geometricPrecision"
       d="M 6.4983658,4.3547283 C 6.4983658,4.1199102 6.3230791,3.9413162 6.1147194,3.895014 L 5.909667,3.8487119 C 5.8633648,3.8354827 5.7343802,3.7891805 5.7343802,3.6668106 5.7343802,3.4882165 5.9129743,3.4849092 5.9857348,3.4849092 6.1014902,3.4849092 6.2073237,3.5113672 6.3098499,3.6138938 6.3462299,3.6436598 6.3462299,3.6469668 6.3561519,3.6469668 6.3693809,3.6469668 6.3793029,3.6403568 6.3859179,3.6105868 L 6.4156839,3.4253782 C 6.4222939,3.4088422 6.4222939,3.4055342 6.4222939,3.3989202 6.4222939,3.3823842 6.4189839,3.3790762 6.3660699,3.3526182 6.2172416,3.2765502 6.0915643,3.2666282 5.9857308,3.2666282 5.7972149,3.2666282 5.4697925,3.3129302 5.4697925,3.7064987 5.4697925,3.8553271 5.5491675,3.954546 5.5888552,3.9942335 5.6946887,4.1033743 5.7939076,4.1265254 5.9592724,4.1629057 6.0783351,4.1926717 6.1246373,4.2025937 6.1709394,4.2455877 6.1907834,4.2654317 6.2370854,4.3084267 6.2370854,4.3911088 6.2370854,4.5895466 6.055184,4.5928539 5.9857308,4.5928539 5.8071368,4.5928539 5.6516938,4.5234009 5.5491676,4.427489 5.5227096,4.401031 5.5194016,4.401031 5.5094796,4.401031 5.4962506,4.401031 5.4863286,4.407641 5.4797136,4.440719 L 5.4499476,4.6226203 C 5.4433376,4.6424643 5.4433376,4.6457713 5.4433376,4.6523863 5.4433376,4.6953813 5.6649265,4.771449 5.6748484,4.7747563 5.8170622,4.8210583 5.9295102,4.8243653 5.9857343,4.8243653 6.2999275,4.8243653 6.4983653,4.6821515 6.4983658,4.3547283 Z M 6.4983658,4.3547283"  />
  </g>
</svg>
