<?xml version="1.0" encoding="UTF-8" standalone="no"?>
<svg
   width="10mm"
   height="21mm"
   viewBox="0 0 10 21"
   version="1.1"
   id="schemalib-demux8-l"
   xmlns="http://www.w3.org/2000/svg"
   xmlns:svg="http://www.w3.org/2000/svg">
  <g
    id="demux8-l">
    <path
       id="path1"
       style="fill:none;fill-opacity:1;stroke:#000000;stroke-width:0.25;stroke-linecap:round;stroke-linejoin:round;stroke-dasharray:none;stroke-opacity:1;shape-rendering:geometricPrecision"
       d="M 3,10 H 1" />
    <path
       id="path2"
       style="fill:none;fill-opacity:1;stroke:#000000;stroke-width:0.25;stroke-linecap:round;stroke-linejoin:round;stroke-dasharray:none;stroke-opacity:1;shape-rendering:geometricPrecision"
       d="M 7,11 H 9" />
    <path
       id="path3"
       style="fill:none;fill-opacity:1;stroke:#000000;stroke-width:0.25;stroke-linecap:round;stroke-linejoin:round;stroke-dasharray:none;stroke-opacity:1;shape-rendering:geometricPrecision"
       d="M 7,13 H 9" />
    <path
       id="path4"
       style="fill:none;fill-opacity:1;stroke:#000000;stroke-width:0.25;stroke-linecap:round;stroke-linejoin:round;stroke-dasharray:none;stroke-opacity:1;shape-rendering:geometricPrecision"
       d="M 7,15 H 9" />
    <path
       id="path5"
       style="fill:none;fill-opacity:1;stroke:#000000;stroke-width:0.25;stroke-linecap:round;stroke-linejoin:round;stroke-dasharray:none;stroke-opacity:1;shape-rendering:geometricPrecision"
       d="M 7,17 H 9" />
    <path
       id="path6"
       style="fill:none;fill-opacity:1;stroke:#000000;stroke-width:0.25;stroke-linecap:round;stroke-linejoin:round;stroke-dasharray:none;stroke-opacity:1;shape-rendering:geometricPrecision"
       d="M 7,3 H 9" />
    <path
       id="path7"
       style="fill:none;fill-opacity:1;stroke:#000000;stroke-width:0.25;stroke-linecap:round;stroke-linejoin:round;stroke-dasharray:none;stroke-opacity:1;shape-rendering:geometricPrecision"
       d="M 7,5 H 9" />
    <path
       id="path8"
       style="fill:none;fill-opacity:1;stroke:#000000;stroke-width:0.25;stroke-linecap:round;stroke-linejoin:round;stroke-dasharray:none;stroke-opacity:1;shape-rendering:geometricPrecision"
       d="M 7,7 H 9" />
    <path
       id="path9"
       style="fill:none;fill-opacity:1;stroke:#000000;stroke-width:0.25;stroke-linecap:round;stroke-linejoin:round;stroke-dasharray:none;stroke-opacity:1;shape-rendering:geometricPrecision"
       d="M 7,9 H 9" />
    <path
       id="path10"
       style="fill:#ffffff;fill-opacity:1;stroke:#000000;stroke-width:0.25;stroke-linecap:round;stroke-linejoin:round;stroke-dasharray:none;stroke-opacity:1;shape-rendering:geometricPrecision"
       d="M 7,19 V 1 L 3,3 V 17 Z" />
    <path
       id="path11"
       style="fill:#000000;fill-opacity:1;stroke:none;stroke-width:0;shape-rendering:geometricPrecision"
       d="M 6.5001645,16.999999 C 6.5001645,16.763774 6.5001645,16.353776 6.0983113,16.353776 5.6964582,16.353776 5.6964582,16.758344 5.6964582,16.999999 5.6964582,17.238939 5.6964582,17.632646 6.0983113,17.632646 6.5001645,17.632646 6.5001645,17.241654 6.5001645,16.999999 Z M 6.26394,16.975562 C 6.26394,17.076025 6.26394,17.209071 6.2530791,17.304104 6.2476487,17.350263 6.2286421,17.507746 6.0983113,17.507746 5.9706958,17.507746 5.9516892,17.347548 5.9462588,17.301389 5.9326827,17.209071 5.9326827,17.046158 5.9326827,16.975562 5.9326827,16.875099 5.9326827,16.763774 5.9435436,16.676887 5.948974,16.630728 5.9652654,16.478676 6.0983113,16.478676 6.2259269,16.478676 6.2476487,16.625298 6.2530791,16.657881 6.26394,16.747483 6.26394,16.883244 6.26394,16.975562 Z M 6.26394,16.975562" />
    <path
       id="path12"
       style="fill:#000000;fill-opacity:1;stroke:none;stroke-width:0;shape-rendering:geometricPrecision"
       d="M 6.4431252,15.55847 C 6.4431252,15.49602 6.3779599,15.49602 6.3589534,15.49602 H 6.2367685 V 14.464237 C 6.2367685,14.431654 6.2367685,14.380065 6.1607424,14.380065 6.1281598,14.380065 6.1200141,14.38278 6.0982924,14.404502 6.068425,14.431654 6.0032597,14.496819 5.8322009,14.499535 5.7996183,14.499535 5.7534596,14.513111 5.7534596,14.561985 5.7534596,14.624435 5.8159096,14.624435 5.8376314,14.624435 5.8892205,14.624435 5.9516706,14.616289 6.0005445,14.602713 V 15.49602 H 5.8647836 C 5.8430618,15.49602 5.783327,15.49602 5.783327,15.55847 5.783327,15.62092 5.8430618,15.62092 5.8647836,15.62092 H 6.3589534 C 6.3779599,15.62092 6.4431252,15.62092 6.4431252,15.55847 Z M 6.4431252,15.55847" />
    <path
       id="path13"
       style="fill:#000000;fill-opacity:1;stroke:none;stroke-width:0;shape-rendering:geometricPrecision"
       d="M 6.487034,13.536748 V 13.517742 C 6.487034,13.49059 6.487034,13.455292 6.4517362,13.441716 6.4381601,13.43357 6.3838557,13.43357 6.3485578,13.43357 L 6.2318034,13.436285 H 5.9494207 L 6.1802143,13.219068 C 6.2046513,13.197346 6.2698165,13.143042 6.2969687,13.118605 6.3920013,13.026287 6.487034,12.93397 6.487034,12.779202 6.487034,12.567415 6.3349818,12.380065 6.0797512,12.380065 6.0200164,12.380065 5.9222685,12.388211 5.8380967,12.456091 5.8218054,12.469667 5.7430641,12.532117 5.7104814,12.646156 L 5.7973684,12.75748 C 5.8082293,12.771057 5.8136598,12.779202 5.8245206,12.779202 5.8408119,12.779202 5.8435272,12.765626 5.8489576,12.74662 5.8842554,12.62715 5.9439903,12.553839 6.0553142,12.553839 6.1883599,12.553839 6.2453795,12.676024 6.2453795,12.781917 6.2453795,12.893241 6.1802143,13.009996 6.0743208,13.12132 L 5.7430641,13.474298 C 5.7267728,13.49059 5.7267728,13.493305 5.7267728,13.523172 V 13.536748 C 5.7267728,13.599198 5.7457793,13.62092 5.8109445,13.62092 H 6.4055774 C 6.4707427,13.62092 6.487034,13.599198 6.487034,13.536748 Z M 6.487034,13.536748" />
    <path
       id="path14"
       style="fill:#000000;fill-opacity:1;stroke:none;stroke-width:0;shape-rendering:geometricPrecision"
       d="M 6.4943253,11.265942 C 6.4943253,11.111174 6.4101535,11.005281 6.2553861,10.964552 6.3965774,10.888526 6.4427362,10.777202 6.4427362,10.679454 6.4427362,10.399787 6.1956513,10.378065 6.0816121,10.378065 5.845388,10.378065 5.7286336,10.549124 5.7286336,10.5627 5.7286336,10.573561 5.7394945,10.587137 5.7394945,10.587137 L 5.7883684,10.657733 C 5.8019445,10.679454 5.8155206,10.679454 5.8155206,10.679454 5.8263815,10.679454 5.8318119,10.671309 5.8399576,10.660448 5.9268446,10.532833 6.0517447,10.532833 6.0734664,10.532833 6.1847904,10.532833 6.1983665,10.589852 6.1983665,10.674024 6.1983665,10.698461 6.1983665,10.782633 6.1467773,10.847798 6.1033338,10.896672 6.0598903,10.899387 6.0083012,10.904817 5.9892946,10.904817 5.956712,10.907533 5.9512816,10.910248 5.9404207,10.915678 5.9404207,10.926539 5.9404207,10.953691 V 10.983559 C 5.9404207,11.029718 5.9404207,11.032433 5.9865794,11.032433 H 6.0626055 C 6.2200882,11.032433 6.2390948,11.130181 6.2390948,11.263226 6.2390948,11.379981 6.2282339,11.49402 6.0707512,11.49402 6.0137316,11.49402 5.8861163,11.483159 5.7693619,11.371835 5.7530706,11.358259 5.7530706,11.355544 5.7449249,11.355544 5.7286336,11.355544 5.7259184,11.371835 5.7232032,11.37455 5.7232032,11.37455 5.7014814,11.485874 5.7014814,11.49402 5.7014814,11.515742 5.8508185,11.656933 6.0788968,11.656933 6.3775709,11.656933 6.4943253,11.496735 6.4943253,11.265942 Z M 6.4943253,11.265942" />
    <path
       id="path15"
       style="fill:#000000;fill-opacity:1;stroke:none;stroke-width:0;shape-rendering:geometricPrecision"
       d="M 6.5190913,9.2473161 C 6.5190913,9.1848661 6.4973695,9.1658595 6.4376347,9.1658595 H 6.3643238 V 8.476194 C 6.3643238,8.4137439 6.3453173,8.3920222 6.280152,8.3920222 H 6.155252 C 6.1226694,8.3920222 6.0955172,8.3920222 6.0765106,8.4327505 L 5.6909496,9.1414226 C 5.6773735,9.1658595 5.6773735,9.17129 5.6773735,9.2038726 V 9.2473161 C 5.6773735,9.3016205 5.6882343,9.3287727 5.75883,9.3287727 H 6.1498215 V 9.5106923 C 6.1498215,9.5677119 6.1606824,9.5948641 6.2339933,9.5948641 H 6.280152 C 6.3480325,9.5948641 6.3643238,9.5731424 6.3643238,9.5106923 V 9.3287727 H 6.4376347 C 6.4919391,9.3287727 6.5190913,9.3179118 6.5190913,9.2473161 Z M 6.1606824,9.1658595 H 5.8565779 C 6.1335302,8.6581136 6.1498215,8.6038093 6.1579672,8.5739419 H 6.1606824 Z M 6.1606824,9.1658595" />
    <path
       id="path16"
       style="fill:#000000;fill-opacity:1;stroke:none;stroke-width:0;shape-rendering:geometricPrecision"
       d="M 6.493589,7.2000183 C 6.493589,6.9719399 6.3985563,6.8008811 6.1324649,6.8008811 6.0917366,6.8008811 6.0482931,6.8090268 6.0075648,6.8253181 V 6.5537962 H 6.3469672 C 6.4284238,6.5537962 6.431139,6.5130679 6.431139,6.4669092 6.431139,6.4234657 6.431139,6.3800222 6.3469672,6.3800222 H 5.8663735 C 5.8093539,6.3800222 5.7822017,6.3908831 5.7822017,6.4614788 V 6.9909464 C 5.7822017,7.0696878 5.82293,7.0696878 5.8690887,7.0696878 5.9125322,7.0696878 5.9288235,7.0696878 5.9532605,7.0289595 5.9939888,6.961079 6.0537236,6.9257812 6.1270345,6.9257812 6.2383584,6.9257812 6.2383584,7.0588269 6.2383584,7.1918726 6.2383584,7.3276335 6.2383584,7.457964 6.0564388,7.457964 6.0048496,7.457964 5.88538,7.4416727 5.8174995,7.3059118 5.8120691,7.2950509 5.8066387,7.28419 5.7930626,7.28419 5.7794865,7.28419 5.7767713,7.2923357 5.7659104,7.308627 5.7414734,7.3466401 5.7034603,7.4090901 5.7034603,7.419951 5.7034603,7.4335271 5.8147843,7.6208772 6.0618692,7.6208772 6.3415368,7.6208772 6.493589,7.4796858 6.493589,7.2000183 Z M 6.493589,7.2000183" />
    <path
       id="path17"
       style="fill:#000000;fill-opacity:1;stroke:none;stroke-width:0;shape-rendering:geometricPrecision"
       d="M 6.4953253,5.1919221 C 6.4953253,5.0941742 6.4953253,4.7710632 6.1586382,4.7710632 6.0608903,4.7710632 5.9930098,4.8253675 5.9468511,4.9258306 5.9549968,4.7710632 5.9549968,4.7330501 5.982149,4.6624544 6.0337381,4.5321239 6.1477773,4.5158326 6.2075121,4.5158326 6.2373795,4.5158326 6.2835383,4.521263 6.3242665,4.5429848 6.3378426,4.5511304 6.3432731,4.5565609 6.3514187,4.5565609 6.3731405,4.5565609 6.3731405,4.5348391 6.3731405,4.5076869 V 4.4452369 C 6.3731405,4.4045086 6.3731405,4.4017934 6.3106904,4.3800717 6.2672469,4.3610651 6.218373,4.3610651 6.2020817,4.3610651 5.7024814,4.3610651 5.7024814,4.8606654 5.7024814,5.0127176 5.7024814,5.1919221 5.7024814,5.6399332 6.107049,5.6399332 6.2400948,5.6399332 6.3242665,5.6073505 6.3948622,5.5286092 6.4844644,5.4281461 6.4953253,5.327683 6.4953253,5.1919221 Z M 6.2536708,5.1919221 C 6.2536708,5.3602656 6.2536708,5.47702 6.1043338,5.47702 5.9685729,5.47702 5.9495664,5.3222526 5.9495664,5.1729155 5.9495664,5.0290089 5.9902946,4.8959632 6.1151947,4.8959632 6.2536708,4.8959632 6.2536708,5.0208633 6.2536708,5.1919221 Z M 6.2536708,5.1919221" />
    <path
       id="path18"
       style="fill:#000000;fill-opacity:1;stroke:none;stroke-width:0;shape-rendering:geometricPrecision"
       d="M 6.4943253,2.4939092 C 6.4943253,2.4558961 6.4943253,2.4097374 6.4210144,2.4070222 H 5.8209511 C 5.7367793,2.4070222 5.7014814,2.4070222 5.7014814,2.4884788 V 2.5129157 C 5.7014814,2.5400679 5.7014814,2.5726505 5.7394945,2.5889418 5.7503554,2.5943723 5.807375,2.5943723 5.845388,2.5943723 L 5.9648577,2.5916571 H 6.2581013 C 5.869825,3.0206616 5.869825,3.4578118 5.869825,3.5446988 5.869825,3.6017184 5.8834011,3.6288706 5.9539968,3.6288706 H 6.0327381 C 6.0598903,3.6288706 6.1169099,3.6288706 6.1169099,3.5609902 6.1223403,3.1319856 6.2716774,2.8170202 6.4807492,2.5563592 6.4943253,2.5400679 6.4943253,2.5264918 6.4943253,2.4939092 Z M 6.4943253,2.4939092" />
    <path
       id="path19"
       style="fill:none;fill-opacity:1;stroke:#000000;stroke-width:0.25;stroke-linecap:round;stroke-linejoin:round;stroke-dasharray:none;stroke-opacity:1;shape-rendering:geometricPrecision"
       d="M 5,18 V 20"  />
  </g>
</svg>
