<?xml version="1.0" encoding="UTF-8" standalone="no"?>
<svg
   width="8mm"
   height="18mm"
   viewBox="0 0 8 18"
   version="1.1"
   id="schemalib-ind-coup-l"
   xmlns="http://www.w3.org/2000/svg"
   xmlns:svg="http://www.w3.org/2000/svg">
  <g
     id="ind-coup-l">
    <path
       id="path1"
       style="fill:none;fill-opacity:1;stroke:#000000;stroke-width:0.25;stroke-linecap:round;stroke-linejoin:round;stroke-dasharray:none;stroke-opacity:1;shape-rendering:geometricPrecision"
       d="M 4,1 V 3 C 5.3,3 6.5,3.7 6.5,4.5 6.5,5.3 5.3,6 4,6 5.3,6 6.5,6.7 6.5,7.5 6.5,8.3 5.3,9 4,9 5.3,9 6.5,9.7 6.5,10.5 6.5,11.3 5.3,12 4,12 5.3,12 6.5,12.7 6.5,13.5 6.5,14.3 5.3,15 4,15 V 17"  />
    <path
       id="path2"
       style="fill:#000000;fill-opacity:1;stroke:#000000;stroke-width:0.25;stroke-linecap:round;stroke-linejoin:round;stroke-dasharray:none;stroke-opacity:1;shape-rendering:geometricPrecision"
       d="M 2.4,3 A 0.4,0.4 0 0 1 2,3.4 0.4,0.4 0 0 1 1.6,3 0.4,0.4 0 0 1 2,2.6 0.4,0.4 0 0 1 2.4,3 Z"  />
  </g>
</svg>
