<?xml version="1.0" encoding="UTF-8" standalone="no"?>
<svg
   width="10mm"
   height="21mm"
   viewBox="0 0 10 21"
   version="1.1"
   id="schemalib-mux8-l"
   xmlns="http://www.w3.org/2000/svg"
   xmlns:svg="http://www.w3.org/2000/svg">
  <g
    id="mux8-l">
    <path
       id="path1"
       style="fill:none;fill-opacity:1;stroke:#000000;stroke-width:0.25;stroke-linecap:round;stroke-linejoin:round;stroke-dasharray:none;stroke-opacity:1;shape-rendering:geometricPrecision"
       d="M 7,10 H 9" />
    <path
       id="path2"
       style="fill:none;fill-opacity:1;stroke:#000000;stroke-width:0.25;stroke-linecap:round;stroke-linejoin:round;stroke-dasharray:none;stroke-opacity:1;shape-rendering:geometricPrecision"
       d="M 3,11 H 1" />
    <path
       id="path3"
       style="fill:none;fill-opacity:1;stroke:#000000;stroke-width:0.25;stroke-linecap:round;stroke-linejoin:round;stroke-dasharray:none;stroke-opacity:1;shape-rendering:geometricPrecision"
       d="M 3,13 H 1" />
    <path
       id="path4"
       style="fill:none;fill-opacity:1;stroke:#000000;stroke-width:0.25;stroke-linecap:round;stroke-linejoin:round;stroke-dasharray:none;stroke-opacity:1;shape-rendering:geometricPrecision"
       d="M 3,15 H 1" />
    <path
       id="path5"
       style="fill:none;fill-opacity:1;stroke:#000000;stroke-width:0.25;stroke-linecap:round;stroke-linejoin:round;stroke-dasharray:none;stroke-opacity:1;shape-rendering:geometricPrecision"
       d="M 3,17 H 1" />
    <path
       id="path6"
       style="fill:none;fill-opacity:1;stroke:#000000;stroke-width:0.25;stroke-linecap:round;stroke-linejoin:round;stroke-dasharray:none;stroke-opacity:1;shape-rendering:geometricPrecision"
       d="M 3,3 H 1" />
    <path
       id="path7"
       style="fill:none;fill-opacity:1;stroke:#000000;stroke-width:0.25;stroke-linecap:round;stroke-linejoin:round;stroke-dasharray:none;stroke-opacity:1;shape-rendering:geometricPrecision"
       d="M 3,5 H 1" />
    <path
       id="path8"
       style="fill:none;fill-opacity:1;stroke:#000000;stroke-width:0.25;stroke-linecap:round;stroke-linejoin:round;stroke-dasharray:none;stroke-opacity:1;shape-rendering:geometricPrecision"
       d="M 3,7 H 1" />
    <path
       id="path9"
       style="fill:none;fill-opacity:1;stroke:#000000;stroke-width:0.25;stroke-linecap:round;stroke-linejoin:round;stroke-dasharray:none;stroke-opacity:1;shape-rendering:geometricPrecision"
       d="M 3,9 H 1" />
    <path
       id="path10"
       style="fill:#ffffff;fill-opacity:1;stroke:#000000;stroke-width:0.25;stroke-linecap:round;stroke-linejoin:round;stroke-dasharray:none;stroke-opacity:1;shape-rendering:geometricPrecision"
       d="M 3,19 V 1 L 7,3 V 17 Z" />
    <path
       id="path11"
       style="fill:#000000;fill-opacity:1;stroke:none;stroke-width:0;shape-rendering:geometricPrecision"
       d="M 4.3037045,16.999999 C 4.3037045,16.763774 4.3037045,16.353776 3.9018513,16.353776 3.4999982,16.353776 3.4999982,16.758344 3.4999982,16.999999 3.4999982,17.238939 3.4999982,17.632646 3.9018513,17.632646 4.3037045,17.632646 4.3037045,17.241654 4.3037045,16.999999 Z M 4.06748,16.975562 C 4.06748,17.076025 4.06748,17.209071 4.0566191,17.304104 4.0511887,17.350263 4.0321821,17.507746 3.9018513,17.507746 3.7742358,17.507746 3.7552292,17.347548 3.7497988,17.301389 3.7362227,17.209071 3.7362227,17.046158 3.7362227,16.975562 3.7362227,16.875099 3.7362227,16.763774 3.7470836,16.676887 3.752514,16.630728 3.7688054,16.478676 3.9018513,16.478676 4.0294669,16.478676 4.0511887,16.625298 4.0566191,16.657881 4.06748,16.747483 4.06748,16.883244 4.06748,16.975562 Z M 4.06748,16.975562" />
    <path
       id="path12"
       style="fill:#000000;fill-opacity:1;stroke:none;stroke-width:0;shape-rendering:geometricPrecision"
       d="M 4.2466652,15.55847 C 4.2466652,15.49602 4.1814999,15.49602 4.1624934,15.49602 H 4.0403085 V 14.464237 C 4.0403085,14.431654 4.0403085,14.380065 3.9642824,14.380065 3.9316998,14.380065 3.9235541,14.38278 3.9018324,14.404502 3.871965,14.431654 3.8067997,14.496819 3.6357409,14.499535 3.6031583,14.499535 3.5569996,14.513111 3.5569996,14.561985 3.5569996,14.624435 3.6194496,14.624435 3.6411714,14.624435 3.6927605,14.624435 3.7552106,14.616289 3.8040845,14.602713 V 15.49602 H 3.6683236 C 3.6466018,15.49602 3.586867,15.49602 3.586867,15.55847 3.586867,15.62092 3.6466018,15.62092 3.6683236,15.62092 H 4.1624934 C 4.1814999,15.62092 4.2466652,15.62092 4.2466652,15.55847 Z M 4.2466652,15.55847" />
    <path
       id="path13"
       style="fill:#000000;fill-opacity:1;stroke:none;stroke-width:0;shape-rendering:geometricPrecision"
       d="M 4.290574,13.536748 V 13.517742 C 4.290574,13.49059 4.290574,13.455292 4.2552762,13.441716 4.2417001,13.43357 4.1873957,13.43357 4.1520978,13.43357 L 4.0353434,13.436285 H 3.7529607 L 3.9837543,13.219068 C 4.0081913,13.197346 4.0733565,13.143042 4.1005087,13.118605 4.1955413,13.026287 4.290574,12.93397 4.290574,12.779202 4.290574,12.567415 4.1385218,12.380065 3.8832912,12.380065 3.8235564,12.380065 3.7258085,12.388211 3.6416367,12.456091 3.6253454,12.469667 3.5466041,12.532117 3.5140214,12.646156 L 3.6009084,12.75748 C 3.6117693,12.771057 3.6171998,12.779202 3.6280606,12.779202 3.6443519,12.779202 3.6470672,12.765626 3.6524976,12.74662 3.6877954,12.62715 3.7475303,12.553839 3.8588542,12.553839 3.9918999,12.553839 4.0489195,12.676024 4.0489195,12.781917 4.0489195,12.893241 3.9837543,13.009996 3.8778608,13.12132 L 3.5466041,13.474298 C 3.5303128,13.49059 3.5303128,13.493305 3.5303128,13.523172 V 13.536748 C 3.5303128,13.599198 3.5493193,13.62092 3.6144845,13.62092 H 4.2091174 C 4.2742827,13.62092 4.290574,13.599198 4.290574,13.536748 Z M 4.290574,13.536748" />
    <path
       id="path14"
       style="fill:#000000;fill-opacity:1;stroke:none;stroke-width:0;shape-rendering:geometricPrecision"
       d="M 4.2978653,11.265942 C 4.2978653,11.111174 4.2136935,11.005281 4.0589261,10.964552 4.2001174,10.888526 4.2462762,10.777202 4.2462762,10.679454 4.2462762,10.399787 3.9991913,10.378065 3.8851521,10.378065 3.648928,10.378065 3.5321736,10.549124 3.5321736,10.5627 3.5321736,10.573561 3.5430345,10.587137 3.5430345,10.587137 L 3.5919084,10.657733 C 3.6054845,10.679454 3.6190606,10.679454 3.6190606,10.679454 3.6299215,10.679454 3.6353519,10.671309 3.6434976,10.660448 3.7303846,10.532833 3.8552847,10.532833 3.8770064,10.532833 3.9883304,10.532833 4.0019065,10.589852 4.0019065,10.674024 4.0019065,10.698461 4.0019065,10.782633 3.9503173,10.847798 3.9068738,10.896672 3.8634303,10.899387 3.8118412,10.904817 3.7928346,10.904817 3.760252,10.907533 3.7548216,10.910248 3.7439607,10.915678 3.7439607,10.926539 3.7439607,10.953691 V 10.983559 C 3.7439607,11.029718 3.7439607,11.032433 3.7901194,11.032433 H 3.8661455 C 4.0236282,11.032433 4.0426348,11.130181 4.0426348,11.263226 4.0426348,11.379981 4.0317739,11.49402 3.8742912,11.49402 3.8172716,11.49402 3.6896563,11.483159 3.5729019,11.371835 3.5566106,11.358259 3.5566106,11.355544 3.5484649,11.355544 3.5321736,11.355544 3.5294584,11.371835 3.5267432,11.37455 3.5267432,11.37455 3.5050214,11.485874 3.5050214,11.49402 3.5050214,11.515742 3.6543585,11.656933 3.8824369,11.656933 4.1811109,11.656933 4.2978653,11.496735 4.2978653,11.265942 Z M 4.2978653,11.265942" />
    <path
       id="path15"
       style="fill:#000000;fill-opacity:1;stroke:none;stroke-width:0;shape-rendering:geometricPrecision"
       d="M 4.3226313,9.2473161 C 4.3226313,9.1848661 4.3009095,9.1658595 4.2411747,9.1658595 H 4.1678638 V 8.476194 C 4.1678638,8.4137439 4.1488573,8.3920222 4.083692,8.3920222 H 3.958792 C 3.9262093,8.3920222 3.8990572,8.3920222 3.8800506,8.4327505 L 3.4944896,9.1414226 C 3.4809135,9.1658595 3.4809135,9.17129 3.4809135,9.2038726 V 9.2473161 C 3.4809135,9.3016205 3.4917744,9.3287727 3.56237,9.3287727 H 3.9533615 V 9.5106923 C 3.9533615,9.5677119 3.9642224,9.5948641 4.0375333,9.5948641 H 4.083692 C 4.1515725,9.5948641 4.1678638,9.5731424 4.1678638,9.5106923 V 9.3287727 H 4.2411747 C 4.2954791,9.3287727 4.3226313,9.3179118 4.3226313,9.2473161 Z M 3.9642224,9.1658595 H 3.6601179 C 3.9370702,8.6581136 3.9533615,8.6038093 3.9615072,8.5739419 H 3.9642224 Z M 3.9642224,9.1658595" />
    <path
       id="path16"
       style="fill:#000000;fill-opacity:1;stroke:none;stroke-width:0;shape-rendering:geometricPrecision"
       d="M 4.297129,7.2000183 C 4.297129,6.9719399 4.2020963,6.8008811 3.9360049,6.8008811 3.8952766,6.8008811 3.8518331,6.8090268 3.8111049,6.8253181 V 6.5537962 H 4.1505072 C 4.2319638,6.5537962 4.234679,6.5130679 4.234679,6.4669092 4.234679,6.4234657 4.234679,6.3800222 4.1505072,6.3800222 H 3.6699135 C 3.6128939,6.3800222 3.5857417,6.3908831 3.5857417,6.4614788 V 6.9909464 C 3.5857417,7.0696878 3.62647,7.0696878 3.6726287,7.0696878 3.7160722,7.0696878 3.7323635,7.0696878 3.7568005,7.0289595 3.7975288,6.961079 3.8572636,6.9257812 3.9305745,6.9257812 4.0418984,6.9257812 4.0418984,7.0588269 4.0418984,7.1918726 4.0418984,7.3276335 4.0418984,7.457964 3.8599788,7.457964 3.8083896,7.457964 3.68892,7.4416727 3.6210395,7.3059118 3.6156091,7.2950509 3.6101787,7.28419 3.5966026,7.28419 3.5830265,7.28419 3.5803113,7.2923357 3.5694504,7.308627 3.5450134,7.3466401 3.5070004,7.4090901 3.5070004,7.419951 3.5070004,7.4335271 3.6183243,7.6208772 3.8654092,7.6208772 4.1450768,7.6208772 4.297129,7.4796858 4.297129,7.2000183 Z M 4.297129,7.2000183" />
    <path
       id="path17"
       style="fill:#000000;fill-opacity:1;stroke:none;stroke-width:0;shape-rendering:geometricPrecision"
       d="M 4.2988653,5.1919221 C 4.2988653,5.0941742 4.2988653,4.7710632 3.9621782,4.7710632 3.8644303,4.7710632 3.7965499,4.8253675 3.7503911,4.9258306 3.7585368,4.7710632 3.7585368,4.7330501 3.785689,4.6624544 3.8372781,4.5321239 3.9513173,4.5158326 4.0110521,4.5158326 4.0409195,4.5158326 4.0870783,4.521263 4.1278065,4.5429848 4.1413826,4.5511304 4.1468131,4.5565609 4.1549587,4.5565609 4.1766805,4.5565609 4.1766805,4.5348391 4.1766805,4.5076869 V 4.4452369 C 4.1766805,4.4045086 4.1766805,4.4017934 4.1142304,4.3800717 4.0707869,4.3610651 4.021913,4.3610651 4.0056217,4.3610651 3.5060214,4.3610651 3.5060214,4.8606654 3.5060214,5.0127176 3.5060214,5.1919221 3.5060214,5.6399332 3.910589,5.6399332 4.0436348,5.6399332 4.1278065,5.6073505 4.1984022,5.5286092 4.2880044,5.4281461 4.2988653,5.327683 4.2988653,5.1919221 Z M 4.0572108,5.1919221 C 4.0572108,5.3602656 4.0572108,5.47702 3.9078738,5.47702 3.7721129,5.47702 3.7531064,5.3222526 3.7531064,5.1729155 3.7531064,5.0290089 3.7938346,4.8959632 3.9187347,4.8959632 4.0572108,4.8959632 4.0572108,5.0208633 4.0572108,5.1919221 Z M 4.0572108,5.1919221" />
    <path
       id="path18"
       style="fill:#000000;fill-opacity:1;stroke:none;stroke-width:0;shape-rendering:geometricPrecision"
       d="M 4.2978653,2.4939092 C 4.2978653,2.4558961 4.2978653,2.4097374 4.2245544,2.4070222 H 3.6244911 C 3.5403193,2.4070222 3.5050214,2.4070222 3.5050214,2.4884788 V 2.5129157 C 3.5050214,2.5400679 3.5050214,2.5726505 3.5430345,2.5889418 3.5538954,2.5943723 3.610915,2.5943723 3.648928,2.5943723 L 3.7683977,2.5916571 H 4.0616413 C 3.673365,3.0206616 3.673365,3.4578118 3.673365,3.5446988 3.673365,3.6017184 3.6869411,3.6288706 3.7575368,3.6288706 H 3.8362781 C 3.8634303,3.6288706 3.9204499,3.6288706 3.9204499,3.5609902 3.9258804,3.1319856 4.0752174,2.8170202 4.2842892,2.5563592 4.2978653,2.5400679 4.2978653,2.5264918 4.2978653,2.4939092 Z M 4.2978653,2.4939092" />
    <path
       id="path19"
       style="fill:none;fill-opacity:1;stroke:#000000;stroke-width:0.25;stroke-linecap:round;stroke-linejoin:round;stroke-dasharray:none;stroke-opacity:1;shape-rendering:geometricPrecision"
       d="M 5,18 V 20"  />
  </g>
</svg>
