<?xml version="1.0" encoding="UTF-8" standalone="no"?>
<svg
   width="6mm"
   height="13mm"
   viewBox="0 0 6 13"
   version="1.1"
   id="schemalib-mux8-s"
   xmlns="http://www.w3.org/2000/svg"
   xmlns:svg="http://www.w3.org/2000/svg">
  <g
    id="mux8-s">
    <path
       id="path1"
       style="fill:none;fill-opacity:1;stroke:#000000;stroke-width:0.25;stroke-linecap:round;stroke-linejoin:round;stroke-dasharray:none;stroke-opacity:1;shape-rendering:geometricPrecision"
       d="M 4,6.5 H 5" />
    <path
       id="path2"
       style="fill:none;fill-opacity:1;stroke:#000000;stroke-width:0.25;stroke-linecap:round;stroke-linejoin:round;stroke-dasharray:none;stroke-opacity:1;shape-rendering:geometricPrecision"
       d="M 3,12 V 11" />
    <path
       id="path3"
       style="fill:none;fill-opacity:1;stroke:#000000;stroke-width:0.25;stroke-linecap:round;stroke-linejoin:round;stroke-dasharray:none;stroke-opacity:1;shape-rendering:geometricPrecision"
       d="M 2,7 H 1" />
    <path
       id="path4"
       style="fill:none;fill-opacity:1;stroke:#000000;stroke-width:0.25;stroke-linecap:round;stroke-linejoin:round;stroke-dasharray:none;stroke-opacity:1;shape-rendering:geometricPrecision"
       d="M 2,8 H 1" />
    <path
       id="path5"
       style="fill:#ffffff;fill-opacity:1;stroke:#000000;stroke-width:0.25;stroke-linecap:round;stroke-linejoin:round;stroke-dasharray:none;stroke-opacity:1;shape-rendering:geometricPrecision"
       d="M 2,11.5 V 1.5 L 4,2.5 4,10.5 Z" />
    <path
       id="path6"
       style="fill:none;fill-opacity:1;stroke:#000000;stroke-width:0.25;stroke-linecap:round;stroke-linejoin:round;stroke-dasharray:none;stroke-opacity:1;shape-rendering:geometricPrecision"
       d="M 2,9 H 1" />
    <path
       id="path7"
       style="fill:none;fill-opacity:1;stroke:#000000;stroke-width:0.25;stroke-linecap:round;stroke-linejoin:round;stroke-dasharray:none;stroke-opacity:1;shape-rendering:geometricPrecision"
       d="M 2,10 H 1" />
    <path
       id="path8"
       style="fill:#000000;fill-opacity:1;stroke:none;stroke-width:0;shape-rendering:geometricPrecision"
       d="M 3.0263139,10.000001 C 3.0263139,9.8453059 3.0263139,9.5768125 2.7631548,9.5768125 2.4999957,9.5768125 2.4999957,9.8417497 2.4999957,10.000001 2.4999957,10.156474 2.4999957,10.414298 2.7631548,10.414298 3.0263139,10.414298 3.0263139,10.158252 3.0263139,10.000001 Z M 2.871619,9.9839978 C 2.871619,10.049788 2.871619,10.136915 2.8645066,10.199148 2.8609504,10.229376 2.8485037,10.332506 2.7631548,10.332506 2.679584,10.332506 2.6671373,10.227598 2.6635811,10.19737 2.6546906,10.136915 2.6546906,10.030228 2.6546906,9.9839978 2.6546906,9.918208 2.6546906,9.8453059 2.661803,9.7884066 2.6653592,9.7581789 2.6760278,9.6586052 2.7631548,9.6586052 2.8467256,9.6586052 2.8609504,9.7546227 2.8645066,9.7759599 2.871619,9.8346373 2.871619,9.9235423 2.871619,9.9839978 Z M 2.871619,9.9839978" />
    <path
       id="path9"
       style="fill:#000000;fill-opacity:1;stroke:none;stroke-width:0;shape-rendering:geometricPrecision"
       d="M 2.9886399,9.3647421 C 2.9886399,9.3238456 2.9459653,9.3238456 2.9335185,9.3238456 H 2.8535036 V 8.648164 C 2.8535036,8.6268267 2.8535036,8.5930426 2.8037166,8.5930426 2.7823792,8.5930426 2.7770449,8.5948207 2.76282,8.6090456 2.7432608,8.6268267 2.7005862,8.6695013 2.5885653,8.6712794 2.567228,8.6712794 2.5370002,8.68017 2.5370002,8.7121759 2.5370002,8.7530725 2.5778967,8.7530725 2.5921215,8.7530725 2.6259056,8.7530725 2.6668021,8.7477381 2.6988081,8.7388476 V 9.3238456 H 2.6099026 C 2.5956778,9.3238456 2.5565594,9.3238456 2.5565594,9.3647421 2.5565594,9.4056386 2.5956778,9.4056386 2.6099026,9.4056386 H 2.9335185 C 2.9459653,9.4056386 2.9886399,9.4056386 2.9886399,9.3647421 Z M 2.9886399,9.3647421" />
    <path
       id="path10"
       style="fill:#000000;fill-opacity:1;stroke:none;stroke-width:0;shape-rendering:geometricPrecision"
       d="M 3.0175534,8.3465172 V 8.3340704 C 3.0175534,8.3162894 3.0175534,8.2931739 2.9944379,8.2842834 2.9855474,8.2789491 2.9499852,8.2789491 2.9268698,8.2789491 L 2.8504111,8.2807272 H 2.6654877 L 2.816627,8.1384784 C 2.83263,8.1242535 2.8753046,8.0886914 2.8930857,8.0726884 2.9553195,8.0122326 3.0175534,7.9517769 3.0175534,7.8504247 3.0175534,7.7117322 2.9179792,7.5890426 2.7508369,7.5890426 2.7117185,7.5890426 2.6477066,7.5943769 2.5925852,7.6388297 2.5819166,7.6477202 2.5303514,7.6886167 2.5090141,7.7632973 L 2.5659136,7.8361998 C 2.573026,7.8450904 2.5765822,7.8504247 2.5836947,7.8504247 2.5943633,7.8504247 2.5961414,7.8415341 2.5996977,7.8290874 2.6228131,7.7508506 2.6619315,7.7028416 2.734834,7.7028416 2.8219613,7.7028416 2.8593016,7.7828565 2.8593016,7.8522028 2.8593016,7.9251053 2.816627,8.001564 2.7472807,8.0744665 L 2.5303514,8.3056207 C 2.5196827,8.3162894 2.5196827,8.3180675 2.5196827,8.3376267 V 8.3465172 C 2.5196827,8.3874137 2.5321295,8.4016386 2.5748041,8.4016386 H 2.9642101 C 3.0068847,8.4016386 3.0175534,8.3874137 3.0175534,8.3465172 Z M 3.0175534,8.3465172" />
    <path
       id="path11"
       style="fill:#000000;fill-opacity:1;stroke:none;stroke-width:0;shape-rendering:geometricPrecision"
       d="M 3.022222,7.1624844 C 3.022222,7.0611321 2.9671006,6.9917859 2.8657484,6.9651142 2.9582101,6.9153272 2.9884379,6.8424247 2.9884379,6.7784128 2.9884379,6.5952675 2.82663,6.5810426 2.7519494,6.5810426 2.5972539,6.5810426 2.5207952,6.6930635 2.5207952,6.7019541 2.5207952,6.7090665 2.5279076,6.717957 2.5279076,6.717957 L 2.5599136,6.7641879 C 2.5688041,6.7784128 2.5776947,6.7784128 2.5776947,6.7784128 2.5848071,6.7784128 2.5883633,6.7730784 2.5936976,6.765966 2.6505971,6.6823948 2.7323902,6.6823948 2.7466151,6.6823948 2.8195175,6.6823948 2.8284081,6.7197351 2.8284081,6.7748565 2.8284081,6.7908595 2.8284081,6.8459809 2.794624,6.8886555 2.7661743,6.9206615 2.7377245,6.9224396 2.7039404,6.9259958 2.6914937,6.9259958 2.6701564,6.9277739 2.6666001,6.9295521 2.6594877,6.9331083 2.6594877,6.9402207 2.6594877,6.9580018 V 6.977561 C 2.6594877,7.0077889 2.6594877,7.009567 2.6897156,7.009567 H 2.7395026 C 2.842633,7.009567 2.8550797,7.0735789 2.8550797,7.1607063 2.8550797,7.237165 2.8479673,7.3118456 2.7448369,7.3118456 2.7074967,7.3118456 2.6239255,7.3047331 2.5474668,7.2318306 2.5367982,7.2229401 2.5367982,7.221162 2.5314638,7.221162 2.5207952,7.221162 2.5190171,7.2318306 2.5172389,7.2336088 2.5172389,7.2336088 2.5030141,7.3065112 2.5030141,7.3118456 2.5030141,7.3260704 2.6008101,7.4185321 2.7501713,7.4185321 2.9457633,7.4185321 3.022222,7.3136237 3.022222,7.1624844 Z M 3.022222,7.1624844" />
    <path
       id="path12"
       style="fill:none;fill-opacity:1;stroke:#000000;stroke-width:0.25;stroke-linecap:round;stroke-linejoin:round;stroke-dasharray:none;stroke-opacity:1;shape-rendering:geometricPrecision"
       d="M 2,3 H 1" />
    <path
       id="path13"
       style="fill:none;fill-opacity:1;stroke:#000000;stroke-width:0.25;stroke-linecap:round;stroke-linejoin:round;stroke-dasharray:none;stroke-opacity:1;shape-rendering:geometricPrecision"
       d="M 2,4 H 1" />
    <path
       id="path14"
       style="fill:none;fill-opacity:1;stroke:#000000;stroke-width:0.25;stroke-linecap:round;stroke-linejoin:round;stroke-dasharray:none;stroke-opacity:1;shape-rendering:geometricPrecision"
       d="M 2,5 H 1" />
    <path
       id="path15"
       style="fill:none;fill-opacity:1;stroke:#000000;stroke-width:0.25;stroke-linecap:round;stroke-linejoin:round;stroke-dasharray:none;stroke-opacity:1;shape-rendering:geometricPrecision"
       d="M 2,6 H 1" />
    <path
       id="path16"
       style="fill:#000000;fill-opacity:1;stroke:none;stroke-width:0;shape-rendering:geometricPrecision"
       d="M 3.039157,6.1621186 C 3.039157,6.1212221 3.0249321,6.1087753 2.9858137,6.1087753 H 2.9378048 V 5.6571355 C 2.9378048,5.616239 2.925358,5.6020141 2.8826834,5.6020141 H 2.8008903 C 2.779553,5.6020141 2.7617719,5.6020141 2.7493252,5.6286858 L 2.4968336,6.0927723 C 2.4879431,6.1087753 2.4879431,6.1123315 2.4879431,6.1336688 V 6.1621186 C 2.4879431,6.1976808 2.4950555,6.2154619 2.5412864,6.2154619 H 2.7973341 V 6.3345952 C 2.7973341,6.3719355 2.8044466,6.3897166 2.8524555,6.3897166 H 2.8826834 C 2.9271361,6.3897166 2.9378048,6.3754917 2.9378048,6.3345952 V 6.2154619 H 2.9858137 C 3.0213759,6.2154619 3.039157,6.2083494 3.039157,6.1621186 Z M 2.8044466,6.1087753 H 2.6052983 C 2.7866655,5.7762689 2.7973341,5.7407067 2.8026684,5.7211475 H 2.8044466 Z M 2.8044466,6.1087753" />
    <path
       id="path17"
       style="fill:#000000;fill-opacity:1;stroke:none;stroke-width:0;shape-rendering:geometricPrecision"
       d="M 3.0214294,5.1300032 C 3.0214294,4.980642 2.9591955,4.8686211 2.7849408,4.8686211 2.7582692,4.8686211 2.7298194,4.8739554 2.7031478,4.8846241 V 4.7068131 H 2.9254114 C 2.9787547,4.7068131 2.9805328,4.6801415 2.9805328,4.6499136 2.9805328,4.6214639 2.9805328,4.5930141 2.9254114,4.5930141 H 2.6106861 C 2.5733458,4.5930141 2.5555647,4.6001266 2.5555647,4.6463574 V 4.9930888 C 2.5555647,5.0446539 2.5822363,5.0446539 2.6124642,5.0446539 2.6409139,5.0446539 2.6515826,5.0446539 2.6675856,5.0179823 2.6942572,4.9735296 2.7333756,4.9504141 2.7813846,4.9504141 2.8542871,4.9504141 2.8542871,5.0375415 2.8542871,5.1246689 2.8542871,5.2135743 2.8542871,5.2989236 2.7351537,5.2989236 2.7013697,5.2989236 2.6231329,5.2882549 2.5786801,5.1993494 2.5751239,5.192237 2.5715677,5.1851246 2.5626771,5.1851246 2.5537866,5.1851246 2.5520085,5.1904589 2.544896,5.2011276 2.5288931,5.2260211 2.5039995,5.2669176 2.5039995,5.27403 2.5039995,5.2829206 2.576902,5.4056101 2.73871,5.4056101 2.9218552,5.4056101 3.0214294,5.3131484 3.0214294,5.1300032 Z M 3.0214294,5.1300032" />
    <path
       id="path18"
       style="fill:#000000;fill-opacity:1;stroke:none;stroke-width:0;shape-rendering:geometricPrecision"
       d="M 3.023222,4.1211437 C 3.023222,4.0571317 3.023222,3.8455367 2.8027364,3.8455367 2.7387245,3.8455367 2.6942718,3.8810989 2.6640439,3.946889 2.6693782,3.8455367 2.6693782,3.8206432 2.6871593,3.7744124 2.7209434,3.6890631 2.795624,3.6783945 2.8347424,3.6783945 2.8543016,3.6783945 2.8845295,3.6819507 2.9112011,3.6961755 2.9200917,3.7015099 2.9236479,3.7050661 2.9289822,3.7050661 2.9432071,3.7050661 2.9432071,3.6908412 2.9432071,3.6730601 V 3.6321636 C 2.9432071,3.605492 2.9432071,3.6037139 2.9023106,3.589489 2.8738608,3.5770422 2.8418549,3.5770422 2.8311862,3.5770422 2.5040141,3.5770422 2.5040141,3.9042143 2.5040141,4.0037885 2.5040141,4.1211437 2.5040141,4.4145317 2.7689524,4.4145317 2.8560797,4.4145317 2.9112011,4.3931944 2.957432,4.3416292 3.0161096,4.2758392 3.023222,4.2100492 3.023222,4.1211437 Z M 2.8649703,4.1211437 C 2.8649703,4.2313865 2.8649703,4.3078452 2.7671743,4.3078452 2.6782688,4.3078452 2.665822,4.2064929 2.665822,4.1086969 2.665822,4.0144571 2.6924937,3.9273298 2.7742867,3.9273298 2.8649703,3.9273298 2.8649703,4.0091228 2.8649703,4.1211437 Z M 2.8649703,4.1211437" />
    <path
       id="path19"
       style="fill:#000000;fill-opacity:1;stroke:none;stroke-width:0;shape-rendering:geometricPrecision"
       d="M 3.022222,2.6569132 C 3.022222,2.6320197 3.022222,2.6017919 2.9742131,2.6000137 H 2.5812509 C 2.5261295,2.6000137 2.5030141,2.6000137 2.5030141,2.653357 V 2.66936 C 2.5030141,2.6871411 2.5030141,2.7084784 2.5279076,2.7191471 2.53502,2.7227033 2.5723603,2.7227033 2.5972539,2.7227033 L 2.6754907,2.7209252 H 2.8675265 C 2.6132569,3.0018665 2.6132569,3.2881421 2.6132569,3.3450416 2.6132569,3.3823819 2.6221474,3.400163 2.6683782,3.400163 H 2.7199434 C 2.7377245,3.400163 2.7750648,3.400163 2.7750648,3.3557102 2.778621,3.0747689 2.876417,2.8685083 3.0133315,2.6978098 3.022222,2.6871411 3.022222,2.6782506 3.022222,2.6569132 Z M 3.022222,2.6569132" />
  </g>
</svg>
