<?xml version="1.0" encoding="UTF-8" standalone="no"?>
<svg
   width="6mm"
   height="9mm"
   viewBox="0 0 6 9"
   version="1.1"
   id="schemalib-demux4-s"
   xmlns="http://www.w3.org/2000/svg"
   xmlns:svg="http://www.w3.org/2000/svg">
  <g
    id="demux4-s">
    <path
       id="path1"
       style="fill:none;fill-opacity:1;stroke:#000000;stroke-width:0.25;stroke-linecap:round;stroke-linejoin:round;stroke-dasharray:none;stroke-opacity:1;shape-rendering:geometricPrecision"
       d="M 2,4.5 H 1" />
    <path
       id="path2"
       style="fill:none;fill-opacity:1;stroke:#000000;stroke-width:0.25;stroke-linecap:round;stroke-linejoin:round;stroke-dasharray:none;stroke-opacity:1;shape-rendering:geometricPrecision"
       d="M 3,8 V 7" />
    <path
       id="path3"
       style="fill:none;fill-opacity:1;stroke:#000000;stroke-width:0.25;stroke-linecap:round;stroke-linejoin:round;stroke-dasharray:none;stroke-opacity:1;shape-rendering:geometricPrecision"
       d="M 4,3 H 5" />
    <path
       id="path4"
       style="fill:none;fill-opacity:1;stroke:#000000;stroke-width:0.25;stroke-linecap:round;stroke-linejoin:round;stroke-dasharray:none;stroke-opacity:1;shape-rendering:geometricPrecision"
       d="M 4,4 H 5" />
    <path
       id="path5"
       style="fill:#ffffff;fill-opacity:1;stroke:#000000;stroke-width:0.25;stroke-linecap:round;stroke-linejoin:round;stroke-dasharray:none;stroke-opacity:1;shape-rendering:geometricPrecision"
       d="M 4,7.5 V 1.5 L 2,2.5 2,6.5 Z" />
    <path
       id="path6"
       style="fill:none;fill-opacity:1;stroke:#000000;stroke-width:0.25;stroke-linecap:round;stroke-linejoin:round;stroke-dasharray:none;stroke-opacity:1;shape-rendering:geometricPrecision"
       d="M 4,5 H 5" />
    <path
       id="path7"
       style="fill:none;fill-opacity:1;stroke:#000000;stroke-width:0.25;stroke-linecap:round;stroke-linejoin:round;stroke-dasharray:none;stroke-opacity:1;shape-rendering:geometricPrecision"
       d="M 4,6 H 5" />
    <path
       id="path8"
       style="fill:#000000;fill-opacity:1;stroke:none;stroke-width:0;shape-rendering:geometricPrecision"
       d="M 3.5000039,6.0000009 C 3.5000039,5.8453061 3.5000039,5.5768127 3.2368448,5.5768127 2.9736857,5.5768127 2.9736857,5.8417499 2.9736857,6.0000009 2.9736857,6.1564739 2.9736857,6.4142986 3.2368448,6.4142986 3.5000039,6.4142986 3.5000039,6.158252 3.5000039,6.0000009 Z M 3.345309,5.983998 C 3.345309,6.0497878 3.345309,6.1369148 3.3381966,6.1991483 3.3346404,6.229376 3.3221937,6.3325059 3.2368448,6.3325059 3.153274,6.3325059 3.1408273,6.2275979 3.1372711,6.1973702 3.1283806,6.1369148 3.1283806,6.0302287 3.1283806,5.983998 3.1283806,5.9182082 3.1283806,5.8453061 3.135493,5.7884068 3.1390492,5.7581791 3.1497178,5.6586054 3.2368448,5.6586054 3.3204156,5.6586054 3.3346404,5.7546229 3.3381966,5.7759601 3.345309,5.8346375 3.345309,5.9235425 3.345309,5.983998 Z M 3.345309,5.983998" />
    <path
       id="path9"
       style="fill:#000000;fill-opacity:1;stroke:none;stroke-width:0;shape-rendering:geometricPrecision"
       d="M 3.4623299,5.3647421 C 3.4623299,5.3238456 3.4196553,5.3238456 3.4072085,5.3238456 H 3.3271936 V 4.648164 C 3.3271936,4.6268267 3.3271936,4.5930426 3.2774066,4.5930426 3.2560692,4.5930426 3.2507349,4.5948207 3.23651,4.6090456 3.2169508,4.6268267 3.1742762,4.6695013 3.0622553,4.6712794 3.040918,4.6712794 3.0106902,4.68017 3.0106902,4.7121759 3.0106902,4.7530725 3.0515867,4.7530725 3.0658115,4.7530725 3.0995956,4.7530725 3.1404921,4.7477381 3.1724981,4.7388476 V 5.3238456 H 3.0835926 C 3.0693678,5.3238456 3.0302494,5.3238456 3.0302494,5.3647421 3.0302494,5.4056386 3.0693678,5.4056386 3.0835926,5.4056386 H 3.4072085 C 3.4196553,5.4056386 3.4623299,5.4056386 3.4623299,5.3647421 Z M 3.4623299,5.3647421" />
    <path
       id="path10"
       style="fill:#000000;fill-opacity:1;stroke:none;stroke-width:0;shape-rendering:geometricPrecision"
       d="M 3.4912434,4.3465168 V 4.33407 C 3.4912434,4.3162889 3.4912434,4.2931735 3.4681279,4.284283 3.4592374,4.2789487 3.4236752,4.2789487 3.4005598,4.2789487 L 3.3241011,4.2807268 H 3.1391777 L 3.290317,4.138478 C 3.30632,4.1242531 3.3489946,4.0886909 3.3667757,4.072688 3.4290095,4.0122322 3.4912434,3.9517765 3.4912434,3.8504243 3.4912434,3.7117318 3.3916692,3.5890422 3.2245269,3.5890422 3.1854085,3.5890422 3.1213966,3.5943765 3.0662752,3.6388293 3.0556066,3.6477198 3.0040414,3.6886163 2.9827041,3.7632969 L 3.0396036,3.8361994 C 3.046716,3.84509 3.0502722,3.8504243 3.0573847,3.8504243 3.0680533,3.8504243 3.0698314,3.8415337 3.0733877,3.829087 3.0965031,3.7508502 3.1356215,3.7028412 3.208524,3.7028412 3.2956513,3.7028412 3.3329916,3.7828561 3.3329916,3.8522024 3.3329916,3.9251049 3.290317,4.0015636 3.2209707,4.0744661 L 3.0040414,4.3056203 C 2.9933727,4.3162889 2.9933727,4.3180671 2.9933727,4.3376263 V 4.3465168 C 2.9933727,4.3874133 3.0058195,4.4016382 3.0484941,4.4016382 H 3.4379001 C 3.4805747,4.4016382 3.4912434,4.3874133 3.4912434,4.3465168 Z M 3.4912434,4.3465168" />
    <path
       id="path11"
       style="fill:#000000;fill-opacity:1;stroke:none;stroke-width:0;shape-rendering:geometricPrecision"
       d="M 3.495912,3.162484 C 3.495912,3.0611317 3.4407906,2.9917855 3.3394384,2.9651138 3.4319001,2.9153268 3.4621279,2.8424243 3.4621279,2.7784124 3.4621279,2.5952671 3.30032,2.5810422 3.2256394,2.5810422 3.0709439,2.5810422 2.9944852,2.6930631 2.9944852,2.7019537 2.9944852,2.7090661 3.0015976,2.7179566 3.0015976,2.7179566 L 3.0336036,2.7641875 C 3.0424941,2.7784124 3.0513847,2.7784124 3.0513847,2.7784124 3.0584971,2.7784124 3.0620533,2.773078 3.0673876,2.7659656 3.1242871,2.6823945 3.2060802,2.6823945 3.2203051,2.6823945 3.2932075,2.6823945 3.3020981,2.7197347 3.3020981,2.7748561 3.3020981,2.7908591 3.3020981,2.8459805 3.268314,2.8886551 3.2398643,2.9206611 3.2114145,2.9224392 3.1776304,2.9259954 3.1651837,2.9259954 3.1438464,2.9277735 3.1402901,2.9295517 3.1331777,2.9331079 3.1331777,2.9402203 3.1331777,2.9580014 V 2.9775606 C 3.1331777,3.0077885 3.1331777,3.0095666 3.1634056,3.0095666 H 3.2131926 C 3.316323,3.0095666 3.3287697,3.0735785 3.3287697,3.1607059 3.3287697,3.2371646 3.3216573,3.3118452 3.2185269,3.3118452 3.1811867,3.3118452 3.0976155,3.3047327 3.0211568,3.2318302 3.0104882,3.2229397 3.0104882,3.2211616 3.0051538,3.2211616 2.9944852,3.2211616 2.9927071,3.2318302 2.9909289,3.2336084 2.9909289,3.2336084 2.9767041,3.3065108 2.9767041,3.3118452 2.9767041,3.32607 3.0745001,3.4185317 3.2238613,3.4185317 3.4194533,3.4185317 3.495912,3.3136233 3.495912,3.162484 Z M 3.495912,3.162484" />
  </g>
</svg>
