<?xml version="1.0" encoding="UTF-8" standalone="no"?>
<svg
   width="9mm"
   height="8mm"
   viewBox="0 0 9 8"
   version="1.1"
   id="schemalib-term-triax"
   xmlns="http://www.w3.org/2000/svg"
   xmlns:svg="http://www.w3.org/2000/svg">
  <g
     id="term-triax">
    <path
       id="path1"
       style="fill:#ffffff;fill-opacity:1;stroke:#000000;stroke-width:0.25;stroke-linecap:round;stroke-linejoin:round;stroke-dasharray:none;stroke-opacity:1;shape-rendering:geometricPrecision" 
       d="M 7,4 A 2.5,2.5 0 0 1 4.5,6.5 2.5,2.5 0 0 1 2,4 2.5,2.5 0 0 1 4.5,1.5 2.5,2.5 0 0 1 7,4 Z" />
    <path
       id="path2"
       style="fill:#ffffff;fill-opacity:1;stroke:#000000;stroke-width:0.25;stroke-linecap:round;stroke-linejoin:round;stroke-dasharray:none;stroke-opacity:1;shape-rendering:geometricPrecision" 
       d="M 7,7 C 7,7 6,6 6,6" />
    <path
       id="path3"
       style="fill:#ffffff;fill-opacity:1;stroke:#000000;stroke-width:0.25;stroke-linecap:round;stroke-linejoin:round;stroke-dasharray:none;stroke-opacity:1;shape-rendering:geometricPrecision" 
       d="M 6,4 A 1.5,1.5 0 0 1 4.5,5.5 1.5,1.5 0 0 1 3,4 1.5,1.5 0 0 1 4.5,2.5 1.5,1.5 0 0 1 6,4 Z" />
    <path
       id="path4"
       style="fill:none;fill-opacity:1;stroke:#000000;stroke-width:0.25;stroke-linecap:round;stroke-linejoin:round;stroke-dasharray:none;stroke-opacity:1;shape-rendering:geometricPrecision" 
       d="M 4,4 C 4,4 1,4 1,4" />
    <path
       id="path5"
       style="fill:none;fill-opacity:1;stroke:#000000;stroke-width:0.25;stroke-linecap:round;stroke-linejoin:round;stroke-dasharray:none;stroke-opacity:1;shape-rendering:geometricPrecision" 
       d="M 8,4 C 8,4 6,4 6,4" />
    <path
       id="path6"
       style="fill:#ffffff;fill-opacity:1;stroke:#000000;stroke-width:0.25;stroke-linecap:round;stroke-linejoin:round;stroke-dasharray:none;stroke-opacity:1;shape-rendering:geometricPrecision" 
       d="M 5,4 A 0.5,0.5 0 0 1 4.5,4.5 0.5,0.5 0 0 1 4,4 0.5,0.5 0 0 1 4.5,3.5 0.5,0.5 0 0 1 5,4 Z" />
  </g>
</svg>
