<?xml version="1.0" encoding="UTF-8" standalone="no"?>
<svg
   width="12mm"
   height="14mm"
   viewBox="0 0 12 14"
   version="1.1"
   id="schemalib-ffd-clkdn-setx-resh-qnx-m"
   xmlns="http://www.w3.org/2000/svg"
   xmlns:svg="http://www.w3.org/2000/svg">
  <g
     id="ffd-clkdn-setx-resh-qnx-m">
    <path
       id="path1" 
       style="fill:#ffffff;fill-opacity:1;stroke:#000000;stroke-width:0.25;stroke-linecap:round;stroke-linejoin:round;stroke-dasharray:none;stroke-opacity:1;shape-rendering:geometricPrecision"
       d="M 2.5,2.5 H 9.5 V 11.5 H 2.5 Z"  />
    <path
       id="path2"
       style="fill:none;fill-opacity:1;stroke:#000000;stroke-width:0.25;stroke-linecap:round;stroke-linejoin:round;stroke-dasharray:none;stroke-opacity:1;shape-rendering:geometricPrecision" 
       d="M 6,13 V 11.5"  />
    <path
       id="path3"
       style="fill:none;fill-opacity:1;stroke:#000000;stroke-width:0.25;stroke-linecap:round;stroke-linejoin:round;stroke-dasharray:none;stroke-opacity:1;shape-rendering:geometricPrecision" 
       d="M 9.5,5 H 11"  />
    <path
       id="path4"
       style="fill:none;fill-opacity:1;stroke:#000000;stroke-width:0.25;stroke-linecap:round;stroke-linejoin:round;stroke-dasharray:none;stroke-opacity:1;shape-rendering:geometricPrecision" 
       d="M 1,5 H 2.5"  />
    <path
       id="path6"
       style="fill:none;fill-opacity:1;stroke:#000000;stroke-width:0.25;stroke-linecap:round;stroke-linejoin:round;stroke-dasharray:none;stroke-opacity:1;shape-rendering:geometricPrecision" 
       d="M 1,7 H 2.5"  />
    <path
       id="path7" 
       style="fill:none;fill-opacity:1;stroke:#000000;stroke-width:0.25;stroke-linecap:round;stroke-linejoin:round;stroke-dasharray:none;stroke-opacity:1;shape-rendering:geometricPrecision"
       d="M 2.5,6 4,7 2.5,8"  />
    <path
       id="path9" 
       style="fill:none;fill-opacity:1;stroke:#000000;stroke-width:0.25;stroke-linecap:round;stroke-linejoin:round;stroke-dasharray:none;stroke-opacity:1;shape-rendering:geometricPrecision"
       d="M 4.5,6 H 5 V 8 H 5.5"  />
    <path
       id="path11" 
       style="fill:#000000;fill-opacity:1;stroke:none;stroke-width:0;shape-rendering:geometricPrecision"
       d="M 9.0000025,5.0000116 C 9.0000025,4.5766776 8.8445596,4.2095676 8.292241,4.2095676 7.7101568,4.2095676 7.5844795,4.6130578 7.5844795,5.0000116 7.5844795,5.3935799 7.7200786,5.7673045 8.292241,5.7673045 8.325314,5.7673045 8.374923,5.7673045 8.4443767,5.7573845 L 8.5204447,5.8698326 C 8.5667467,5.9392856 8.5733617,5.9459006 8.6428147,5.9459006 H 8.8114868 C 8.8379448,5.9459006 8.8875548,5.9459006 8.8875548,5.8995986 8.8875548,5.8797546 8.8809448,5.8764476 8.8544818,5.8400676 L 8.7188823,5.661471 C 8.9867734,5.4994134 9.0000025,5.1521472 9.0000025,5.0000116 Z M 8.6957312,4.9967016 C 8.6957312,5.1289935 8.6957312,5.3505823 8.5766685,5.4861815 L 8.4609132,5.3340486 C 8.4410694,5.3108975 8.4311475,5.3108975 8.3914599,5.3108975 H 8.2624753 C 8.2327093,5.3108975 8.1864073,5.3108975 8.1864073,5.3605065 8.1864073,5.3836575 8.2525533,5.4795692 8.2922408,5.532486 8.2988508,5.542406 8.3319288,5.592017 8.3319288,5.598632 8.3319288,5.598632 8.2988558,5.601942 8.2922408,5.601942 7.8887506,5.601942 7.8887506,5.1852226 7.8887506,4.9967067 7.8887506,4.8114981 7.8887506,4.3749349 8.2922408,4.3749349 8.695731,4.3749349 8.695731,4.8081908 8.695731,4.9967067 Z M 8.6957312,4.9967016"  />
    <path
       id="path15" 
       style="fill:#ffffff;fill-opacity:1;stroke:#000000;stroke-width:0.25;stroke-linecap:round;stroke-linejoin:round;stroke-dasharray:none;stroke-opacity:1;shape-rendering:geometricPrecision"
       d="M 2.5,7 C 2.5,7.3 2.3,7.5 2,7.5 1.7,7.5 1.5,7.3 1.5,7 1.5,6.7 1.7,6.5 2,6.5 2.3,6.5 2.5,6.7 2.5,7 Z"  />
    <path
       id="path18" 
       style="fill:#000000;fill-opacity:1;stroke:none;stroke-width:0;shape-rendering:geometricPrecision"
       d="M 4.3431275,5.0116686 C 4.3431275,4.8429964 4.3166692,4.6412513 4.1976065,4.4891157 4.0388562,4.2939852 3.7875017,4.2675268 3.6485952,4.2675268 H 3.0929693 C 3.0169015,4.2675268 2.9904431,4.2906779 2.9904431,4.370053 V 5.6301331 C 2.9904431,5.7062009 3.0135942,5.7326593 3.0929693,5.7326593 H 3.6485952 C 4.1645335,5.7326593 4.3431275,5.4250807 4.3431275,5.0116686 Z M 4.0388562,5.0116686 C 4.0388562,5.249794 4.0157051,5.550758 3.5659128,5.550758 H 3.2947144 V 4.4494281 H 3.5659128 C 4.0190124,4.4494281 4.0388562,4.7735432 4.0388562,5.0116686 Z M 4.0388562,5.0116686"  />
    <path
       id="path21" 
       style="fill:#000000;fill-opacity:1;stroke:none;stroke-width:0;shape-rendering:geometricPrecision"
       d="M 6.6381197,10.929316 6.2776243,10.317466 C 6.4099162,10.284396 6.6116613,10.205018 6.6116613,9.9437419 6.6116613,9.5270225 6.1552544,9.5270225 6.0593427,9.5270225 H 5.5533263 C 5.4772583,9.5270225 5.4508001,9.5501735 5.4508001,9.6295487 V 10.889629 C 5.4508001,10.965699 5.4739511,10.992155 5.5533263,10.992155 H 5.6525453 C 5.7352283,10.992155 5.7550715,10.965695 5.7550715,10.889629 V 10.33731 H 5.9898896 L 6.3338485,10.942546 C 6.3636145,10.992156 6.3867655,10.992156 6.4330675,10.992156 H 6.5587448 C 6.6017398,10.992156 6.6381198,10.992156 6.6381197,10.929316 Z M 6.3173119,9.9470492 C 6.3173119,10.069419 6.2875459,10.185175 6.0295771,10.185175 H 5.7550714 V 9.7089238 H 6.0295771 C 6.274317,9.7089238 6.3173119,9.8048358 6.3173119,9.9470492 Z M 6.3173119,9.9470492"  />
  </g>
</svg>
