<?xml version="1.0" encoding="UTF-8" standalone="no"?>
<svg
   width="5mm"
   height="10mm"
   viewBox="0 0 5 10"
   version="1.1"
   id="schemalib-ind-nonlinear-s"
   xmlns="http://www.w3.org/2000/svg"
   xmlns:svg="http://www.w3.org/2000/svg">
  <g
     id="ind-nonlinear-s">
    <path
       id="path1"
       style="fill:none;fill-opacity:1;stroke:#000000;stroke-width:0.25;stroke-linecap:round;stroke-linejoin:round;stroke-dasharray:none;stroke-opacity:1;shape-rendering:geometricPrecision"
       d="M 2,1 V 1.9 C 2.6,1.9 3,2.3 3,2.7 3,3.2 2.6,3.5 2,3.5 2.6,3.5 3,3.9 3,4.3 3,4.8 2.6,5.1 2,5.1 2.6,5.1 3,5.5 3,5.9 3,6.4 2.6,6.7 2,6.7 2.6,6.7 3,7.1 3,7.5 3,8 2.6,8.3 2,8.3 V 9"  />
    <path
       id="path2" 
       style="fill:none;fill-opacity:1;stroke:#000000;stroke-width:0.25;stroke-linecap:round;stroke-linejoin:round;stroke-dasharray:none;stroke-opacity:1;shape-rendering:geometricPrecision"
       d="M 1,7 C 3,7 2,3 4,3" />
  </g>
</svg>
