<?xml version="1.0" encoding="UTF-8" standalone="no"?>
<svg
   width="7mm"
   height="14mm"
   viewBox="0 0 7 14"
   version="1.1"
   id="schemalib-ind-nonlinear-m"
   xmlns="http://www.w3.org/2000/svg"
   xmlns:svg="http://www.w3.org/2000/svg">
  <g
     id="ind-nonlinear-m">
    <path
       id="path1"
       style="fill:none;fill-opacity:1;stroke:#000000;stroke-width:0.25;stroke-linecap:round;stroke-linejoin:round;stroke-dasharray:none;stroke-opacity:1;shape-rendering:geometricPrecision"
       d="M 3,1 V 3 C 3.9,3 4.5,3.4 4.5,4 4.5,4.6 3.9,5 3,5 3.9,5 4.5,5.4 4.5,6 4.5,6.6 3.9,7 3,7 3.9,7 4.5,7.4 4.5,8 4.5,8.6 3.9,9 3,9 3.9,9 4.5,9.4 4.5,10 4.5,10.6 3.9,11 3,11 V 13"  />
    <path
       id="path2" 
       style="fill:none;fill-opacity:1;stroke:#000000;stroke-width:0.25;stroke-linecap:round;stroke-linejoin:round;stroke-dasharray:none;stroke-opacity:1;shape-rendering:geometricPrecision"
       d="M 1,10 C 4,10 3,4 6,4" />
  </g>
</svg>
