<?xml version="1.0" encoding="UTF-8" standalone="no"?>
<svg
   width="16mm"
   height="18mm"
   viewBox="0 0 16 18"
   version="1.1"
   id="schemalib-ffd-clkdn-seth-resl-qnx-l"
   xmlns="http://www.w3.org/2000/svg"
   xmlns:svg="http://www.w3.org/2000/svg">
  <g
     id="ffd-clkdn-seth-resl-qnx-l">
    <path
       id="path1" 
       style="fill:#ffffff;fill-opacity:1;stroke:#000000;stroke-width:0.25;stroke-linecap:round;stroke-linejoin:round;stroke-dasharray:none;stroke-opacity:1;shape-rendering:geometricPrecision"
       d="M 3.5,3.5 H 12.5 V 14.5 H 3.5 Z"  />
    <path
       id="path2"
       style="fill:none;fill-opacity:1;stroke:#000000;stroke-width:0.25;stroke-linecap:round;stroke-linejoin:round;stroke-dasharray:none;stroke-opacity:1;shape-rendering:geometricPrecision" 
       d="M 8,17 V 14.5"  />
    <path
       id="path3"
       style="fill:none;fill-opacity:1;stroke:#000000;stroke-width:0.25;stroke-linecap:round;stroke-linejoin:round;stroke-dasharray:none;stroke-opacity:1;shape-rendering:geometricPrecision" 
       d="M 12.5,6 H 15"  />
    <path
       id="path4"
       style="fill:none;fill-opacity:1;stroke:#000000;stroke-width:0.25;stroke-linecap:round;stroke-linejoin:round;stroke-dasharray:none;stroke-opacity:1;shape-rendering:geometricPrecision" 
       d="M 1,6 H 3.5"  />
    <path
       id="path5" 
       style="fill:none;fill-opacity:1;stroke:#000000;stroke-width:0.25;stroke-linecap:round;stroke-linejoin:round;stroke-dasharray:none;stroke-opacity:1;shape-rendering:geometricPrecision"
       d="M 8,3.5 V 1"  />
    <path
       id="path6"
       style="fill:none;fill-opacity:1;stroke:#000000;stroke-width:0.25;stroke-linecap:round;stroke-linejoin:round;stroke-dasharray:none;stroke-opacity:1;shape-rendering:geometricPrecision" 
       d="M 1,9 H 3.5"  />
    <path
       id="path7" 
       style="fill:none;fill-opacity:1;stroke:#000000;stroke-width:0.25;stroke-linecap:round;stroke-linejoin:round;stroke-dasharray:none;stroke-opacity:1;shape-rendering:geometricPrecision"
       d="M 3.5,8 5,9 3.5,10"  />
    <path
       id="path9" 
       style="fill:none;fill-opacity:1;stroke:#000000;stroke-width:0.25;stroke-linecap:round;stroke-linejoin:round;stroke-dasharray:none;stroke-opacity:1;shape-rendering:geometricPrecision"
       d="M 5.5,8 H 6 V 10 H 6.5"  />
    <path
       id="path11" 
       style="fill:#000000;fill-opacity:1;stroke:none;stroke-width:0;shape-rendering:geometricPrecision"
       d="M 12.000003,6.0000106 C 12.000003,5.5766766 11.84456,5.2095666 11.292241,5.2095666 10.710157,5.2095666 10.58448,5.6130568 10.58448,6.0000106 10.58448,6.3935789 10.720079,6.7673035 11.292241,6.7673035 11.325311,6.7673035 11.374921,6.7673035 11.444377,6.7573835 L 11.520447,6.8698316 C 11.566747,6.9392846 11.573367,6.9458996 11.642817,6.9458996 H 11.811489 C 11.837949,6.9458996 11.887559,6.9458996 11.887559,6.8995976 11.887559,6.8797536 11.880959,6.8764466 11.854489,6.8400666 L 11.718889,6.6614726 C 11.98678,6.499415 12.00001,6.1521488 12.00001,6.0000132 Z M 11.695731,5.9967006 C 11.695731,6.1289925 11.695731,6.3505813 11.576669,6.4861805 L 11.460913,6.3340476 C 11.441073,6.3108966 11.431153,6.3108966 11.391463,6.3108966 H 11.262478 C 11.232718,6.3108966 11.186408,6.3108966 11.186408,6.3605056 11.186408,6.3836566 11.252558,6.4795683 11.292241,6.5324851 11.298841,6.5424051 11.331931,6.5920161 11.331931,6.5986311 11.331931,6.5986311 11.298861,6.6019411 11.292241,6.6019411 10.888751,6.6019411 10.888751,6.1852217 10.888751,5.9967058 10.888751,5.8114972 10.888751,5.374934 11.292241,5.374934 11.695731,5.374934 11.695731,5.8081899 11.695731,5.9967058 Z M 11.695731,5.9967006"  />
    <path
       id="path15" 
       style="fill:#ffffff;fill-opacity:1;stroke:#000000;stroke-width:0.25;stroke-linecap:round;stroke-linejoin:round;stroke-dasharray:none;stroke-opacity:1;shape-rendering:geometricPrecision"
       d="M 3.5,9 C 3.5,9.3 3.3,9.5 3,9.5 2.7,9.5 2.5,9.3 2.5,9 2.5,8.7 2.7,8.5 3,8.5 3.3,8.5 3.5,8.7 3.5,9 Z"  />
    <path
       id="path16" 
       style="fill:#ffffff;fill-opacity:1;stroke:#000000;stroke-width:0.25;stroke-linecap:round;stroke-linejoin:round;stroke-dasharray:none;stroke-opacity:1;shape-rendering:geometricPrecision"
       d="M 8.5,15 C 8.5,15.3 8.3,15.5 8,15.5 7.7,15.5 7.5,15.3 7.5,15 7.5,14.7 7.7,14.5 8,14.5 8.3,14.5 8.5,14.7 8.5,15 Z"  />
    <path
       id="path18" 
       style="fill:#000000;fill-opacity:1;stroke:none;stroke-width:0;shape-rendering:geometricPrecision"
       d="M 5.3130175,6.0117676 C 5.3130175,5.8430954 5.2865592,5.6413503 5.1674965,5.4892147 5.0087462,5.2940842 4.7573917,5.2676258 4.6184852,5.2676258 H 4.0628593 C 3.9867915,5.2676258 3.9603331,5.2907769 3.9603331,5.370152 V 6.6302321 C 3.9603331,6.7062999 3.9834842,6.7327583 4.0628593,6.7327583 H 4.6184852 C 5.1344235,6.7327583 5.3130175,6.4251797 5.3130175,6.0117676 Z M 5.0087462,6.0117676 C 5.0087462,6.249893 4.9855951,6.550857 4.5358028,6.550857 H 4.2646044 V 5.4495271 H 4.5358028 C 4.9889024,5.4495271 5.0087462,5.7736422 5.0087462,6.0117676 Z M 5.0087462,6.0117676"  />
    <path
       id="path20" 
       style="fill:none;fill-opacity:1;stroke:#000000;stroke-width:0.25;stroke-linecap:round;stroke-linejoin:round;stroke-dasharray:none;stroke-opacity:1;shape-rendering:geometricPrecision"
       d="M 7.243857,12.249468 H 8.7263529"  />
    <path
       id="path21" 
       style="fill:#000000;fill-opacity:1;stroke:none;stroke-width:0;shape-rendering:geometricPrecision"
       d="M 8.6232247,13.945979 8.2627293,13.334129 C 8.3950212,13.301059 8.5967663,13.221681 8.5967663,12.960405 8.5967663,12.543685 8.1403594,12.543685 8.0444477,12.543685 H 7.5384313 C 7.4623633,12.543685 7.4359051,12.566835 7.4359051,12.646212 V 13.906292 C 7.4359051,13.982362 7.4590561,14.008818 7.5384313,14.008818 H 7.6376503 C 7.7203323,14.008818 7.7401765,13.982358 7.7401765,13.906292 V 13.353973 H 7.9749946 L 8.3189535,13.959209 C 8.3487195,14.008819 8.3718705,14.008819 8.4181725,14.008819 H 8.5438498 C 8.5868448,14.008819 8.6232248,14.008819 8.6232247,13.945979 Z M 8.3024169,12.963712 C 8.3024169,13.086082 8.2726509,13.201838 8.0146821,13.201838 H 7.7401764 V 12.725587 H 8.0146821 C 8.259422,12.725587 8.3024169,12.821497 8.3024169,12.963712 Z M 8.3024169,12.963712"  />
    <path
       id="path23" 
       style="fill:#000000;fill-opacity:1;stroke:none;stroke-width:0;shape-rendering:geometricPrecision"
       d="M 8.4983658,5.3035473 C 8.4983658,5.0687292 8.3230791,4.8901352 8.1147194,4.843833 L 7.909667,4.7975309 C 7.8633648,4.7843017 7.7343802,4.7379995 7.7343802,4.6156295 7.7343802,4.4370355 7.9129743,4.4337282 7.9857348,4.4337282 8.1014902,4.4337282 8.2073237,4.4601862 8.3098499,4.5627128 8.3462299,4.5924788 8.3462299,4.5957858 8.3561519,4.5957858 8.3693809,4.5957858 8.3793029,4.5891758 8.3859179,4.5594058 L 8.4156839,4.3741972 C 8.4222939,4.3576612 8.4222939,4.3543532 8.4222939,4.3477392 8.4222939,4.3312032 8.4189839,4.3278952 8.3660699,4.3014372 8.2172416,4.2253692 8.0915643,4.2154472 7.9857308,4.2154472 7.7972149,4.2154472 7.4697925,4.2617492 7.4697925,4.6553177 7.4697925,4.8041461 7.5491675,4.903365 7.5888552,4.9430525 7.6946887,5.0521933 7.7939076,5.0753444 7.9592724,5.1117247 8.0783351,5.1414907 8.1246373,5.1514127 8.1709394,5.1944067 8.1907834,5.2142507 8.2370854,5.2572457 8.2370854,5.3399278 8.2370854,5.5383656 8.055184,5.5416729 7.9857308,5.5416729 7.8071368,5.5416729 7.6516938,5.4722199 7.5491676,5.376308 7.5227096,5.34985 7.5194016,5.34985 7.5094796,5.34985 7.4962506,5.34985 7.4863286,5.35646 7.4797136,5.389537 L 7.4499476,5.5714383 C 7.4433376,5.5912823 7.4433376,5.5945893 7.4433376,5.6012043 7.4433376,5.6441993 7.6649265,5.720267 7.6748484,5.7235743 7.8170622,5.7698763 7.9295102,5.7731833 7.9857343,5.7731833 8.2999275,5.7731833 8.4983653,5.6309695 8.4983658,5.3035473 Z M 8.4983658,5.3035473"  />
  </g>
</svg>
