<?xml version="1.0" encoding="UTF-8" standalone="no"?>
<svg
   width="10mm"
   height="13mm"
   viewBox="0 0 10 13"
   version="1.1"
   id="schemalib-mux4-l"
   xmlns="http://www.w3.org/2000/svg"
   xmlns:svg="http://www.w3.org/2000/svg">
  <g
    id="mux4-l">
    <path
       id="path1"
       style="fill:none;fill-opacity:1;stroke:#000000;stroke-width:0.25;stroke-linecap:round;stroke-linejoin:round;stroke-dasharray:none;stroke-opacity:1;shape-rendering:geometricPrecision"
       d="M 7,6 H 9" />
    <path
       id="path2"
       style="fill:none;fill-opacity:1;stroke:#000000;stroke-width:0.25;stroke-linecap:round;stroke-linejoin:round;stroke-dasharray:none;stroke-opacity:1;shape-rendering:geometricPrecision"
       d="M 3,3 H 1" />
    <path
       id="path3"
       style="fill:none;fill-opacity:1;stroke:#000000;stroke-width:0.25;stroke-linecap:round;stroke-linejoin:round;stroke-dasharray:none;stroke-opacity:1;shape-rendering:geometricPrecision"
       d="M 3,5 H 1" />
    <path
       id="path4"
       style="fill:none;fill-opacity:1;stroke:#000000;stroke-width:0.25;stroke-linecap:round;stroke-linejoin:round;stroke-dasharray:none;stroke-opacity:1;shape-rendering:geometricPrecision"
       d="M 3,7 H 1" />
    <path
       id="path5"
       style="fill:none;fill-opacity:1;stroke:#000000;stroke-width:0.25;stroke-linecap:round;stroke-linejoin:round;stroke-dasharray:none;stroke-opacity:1;shape-rendering:geometricPrecision"
       d="M 3,9 H 1" />
    <path
       id="path6"
       style="fill:#ffffff;fill-opacity:1;stroke:#000000;stroke-width:0.25;stroke-linecap:round;stroke-linejoin:round;stroke-dasharray:none;stroke-opacity:1;shape-rendering:geometricPrecision"
       d="M 3,11 V 1 L 7,3 V 9 Z" />
    <path
       id="path7"
       style="fill:#000000;fill-opacity:1;stroke:none;stroke-width:0;shape-rendering:geometricPrecision"
       d="M 4.3036985,8.9999962 C 4.3036985,8.7637717 4.3036985,8.3537728 3.9018453,8.3537728 3.4999922,8.3537728 3.4999922,8.7583412 3.4999922,8.9999962 3.4999922,9.2389359 3.4999922,9.6326434 3.9018453,9.6326434 4.3036985,9.6326434 4.3036985,9.2416512 4.3036985,8.9999962 Z M 4.067474,8.9755592 C 4.067474,9.0760225 4.067474,9.2090685 4.0566131,9.3041013 4.0511827,9.3502601 4.0321761,9.5077431 3.9018453,9.5077431 3.7742298,9.5077431 3.7552232,9.3475449 3.7497928,9.3013861 3.7362167,9.2090685 3.7362167,9.046155 3.7362167,8.9755592 3.7362167,8.8750959 3.7362167,8.7637717 3.7470776,8.6768845 3.752508,8.6307257 3.7687994,8.4786731 3.9018453,8.4786731 4.0294609,8.4786731 4.0511827,8.6252953 4.0566131,8.6578779 4.067474,8.7474803 4.067474,8.8832416 4.067474,8.9755592 Z M 4.067474,8.9755592" />
    <path
       id="path8"
       style="fill:#000000;fill-opacity:1;stroke:none;stroke-width:0;shape-rendering:geometricPrecision"
       d="M 4.2466552,7.5584731 C 4.2466552,7.496023 4.1814899,7.496023 4.1624834,7.496023 H 4.0402985 V 6.4642399 C 4.0402985,6.4316573 4.0402985,6.3800681 3.9642724,6.3800681 3.9316898,6.3800681 3.9235441,6.3827833 3.9018224,6.4045051 3.871955,6.4316573 3.8067897,6.4968225 3.6357309,6.4995378 3.6031483,6.4995378 3.5569896,6.5131138 3.5569896,6.5619878 3.5569896,6.6244378 3.6194396,6.6244378 3.6411614,6.6244378 3.6927505,6.6244378 3.7552006,6.6162922 3.8040745,6.6027161 V 7.496023 H 3.6683136 C 3.6465918,7.496023 3.586857,7.496023 3.586857,7.5584731 3.586857,7.6209231 3.6465918,7.6209231 3.6683136,7.6209231 H 4.1624834 C 4.1814899,7.6209231 4.2466552,7.6209231 4.2466552,7.5584731 Z M 4.2466552,7.5584731" />
    <path
       id="path9"
       style="fill:#000000;fill-opacity:1;stroke:none;stroke-width:0;shape-rendering:geometricPrecision"
       d="M 4.290563,5.5367513 V 5.5177448 C 4.290563,5.4905926 4.290563,5.4552948 4.2552652,5.4417187 4.2416891,5.433573 4.1873847,5.433573 4.1520868,5.433573 L 4.0353324,5.4362882 H 3.7529497 L 3.9837433,5.2190707 C 4.0081803,5.197349 4.0733455,5.1430446 4.1004977,5.1186076 4.1955303,5.0262902 4.290563,4.9339728 4.290563,4.7792053 4.290563,4.5674182 4.1385108,4.3800681 3.8832802,4.3800681 3.8235454,4.3800681 3.7257975,4.3882138 3.6416257,4.4560943 3.6253344,4.4696703 3.5465931,4.5321204 3.5140104,4.6461596 L 3.6008974,4.7574835 C 3.6117583,4.7710596 3.6171888,4.7792053 3.6280496,4.7792053 3.6443409,4.7792053 3.6470562,4.7656292 3.6524866,4.7466227 3.6877844,4.627153 3.7475193,4.5538421 3.8588432,4.5538421 3.9918889,4.5538421 4.0489085,4.676027 4.0489085,4.7819205 4.0489085,4.8932445 3.9837433,5.0099989 3.8778498,5.1213228 L 3.5465931,5.4743013 C 3.5303018,5.4905926 3.5303018,5.4933078 3.5303018,5.5231752 V 5.5367513 C 3.5303018,5.5992013 3.5493083,5.6209231 3.6144735,5.6209231 H 4.2091064 C 4.2742717,5.6209231 4.290563,5.5992013 4.290563,5.5367513 Z M 4.290563,5.5367513" />
    <path
       id="path10"
       style="fill:#000000;fill-opacity:1;stroke:none;stroke-width:0;shape-rendering:geometricPrecision"
       d="M 4.2978543,3.2659447 C 4.2978543,3.1111772 4.2136825,3.0052837 4.0589151,2.9645554 4.2001064,2.8885293 4.2462652,2.7772053 4.2462652,2.6794574 4.2462652,2.3997899 3.9991803,2.3780681 3.8851411,2.3780681 3.648917,2.3780681 3.5321626,2.5491269 3.5321626,2.562703 3.5321626,2.5735639 3.5430235,2.58714 3.5430235,2.58714 L 3.5918974,2.6577357 C 3.6054735,2.6794574 3.6190496,2.6794574 3.6190496,2.6794574 3.6299105,2.6794574 3.6353409,2.6713118 3.6434866,2.6604509 3.7303736,2.5328356 3.8552737,2.5328356 3.8769954,2.5328356 3.9883194,2.5328356 4.0018955,2.5898552 4.0018955,2.674027 4.0018955,2.6984639 4.0018955,2.7826357 3.9503063,2.847801 3.9068628,2.8966749 3.8634193,2.8993901 3.8118302,2.9048206 3.7928236,2.9048206 3.760241,2.9075358 3.7548106,2.910251 3.7439497,2.9156814 3.7439497,2.9265423 3.7439497,2.9536945 V 2.9835619 C 3.7439497,3.0297206 3.7439497,3.0324358 3.7901084,3.0324358 H 3.8661345 C 4.0236172,3.0324358 4.0426238,3.1301837 4.0426238,3.2632294 4.0426238,3.3799839 4.0317629,3.494023 3.8742802,3.494023 3.8172606,3.494023 3.6896453,3.4831622 3.5728909,3.3718382 3.5565996,3.3582621 3.5565996,3.3555469 3.5484539,3.3555469 3.5321626,3.3555469 3.5294474,3.3718382 3.5267322,3.3745534 3.5267322,3.3745534 3.5050104,3.4858774 3.5050104,3.494023 3.5050104,3.5157448 3.6543475,3.6569362 3.8824258,3.6569362 4.1810999,3.6569362 4.2978543,3.4967383 4.2978543,3.2659447 Z M 4.2978543,3.2659447" />
    <path
       id="path11"
       style="fill:none;fill-opacity:1;stroke:#000000;stroke-width:0.25;stroke-linecap:round;stroke-linejoin:round;stroke-dasharray:none;stroke-opacity:1;shape-rendering:geometricPrecision"
       d="M 5,10 V 12"  />
  </g>
</svg>
