<?xml version="1.0" encoding="UTF-8" standalone="no"?>
<svg
   width="7mm"
   height="20mm"
   viewBox="0 0 7 20"
   version="1.1"
   id="schemalib-mux8-m"
   xmlns="http://www.w3.org/2000/svg"
   xmlns:svg="http://www.w3.org/2000/svg">
  <g
    id="mux8-m">
    <path
       id="path1"
       style="fill:none;fill-opacity:1;stroke:#000000;stroke-width:0.25;stroke-linecap:round;stroke-linejoin:round;stroke-dasharray:none;stroke-opacity:1;shape-rendering:geometricPrecision"
       d="M 5,10 H 6" />
    <path
       id="path2"
       style="fill:none;fill-opacity:1;stroke:#000000;stroke-width:0.25;stroke-linecap:round;stroke-linejoin:round;stroke-dasharray:none;stroke-opacity:1;shape-rendering:geometricPrecision"
       d="M 3.5,19 V 18.3" />
    <path
       id="path3"
       style="fill:none;fill-opacity:1;stroke:#000000;stroke-width:0.25;stroke-linecap:round;stroke-linejoin:round;stroke-dasharray:none;stroke-opacity:1;shape-rendering:geometricPrecision"
       d="M 2,11 H 1" />
    <path
       id="path4"
       style="fill:none;fill-opacity:1;stroke:#000000;stroke-width:0.25;stroke-linecap:round;stroke-linejoin:round;stroke-dasharray:none;stroke-opacity:1;shape-rendering:geometricPrecision"
       d="M 2,13 H 1" />
    <path
       id="path5"
       style="fill:none;fill-opacity:1;stroke:#000000;stroke-width:0.25;stroke-linecap:round;stroke-linejoin:round;stroke-dasharray:none;stroke-opacity:1;shape-rendering:geometricPrecision"
       d="M 2,15 H 1" />
    <path
       id="path6"
       style="fill:none;fill-opacity:1;stroke:#000000;stroke-width:0.25;stroke-linecap:round;stroke-linejoin:round;stroke-dasharray:none;stroke-opacity:1;shape-rendering:geometricPrecision"
       d="M 2,17 H 1" />
    <path
       id="path7"
       style="fill:#ffffff;fill-opacity:1;stroke:#000000;stroke-width:0.25;stroke-linecap:round;stroke-linejoin:round;stroke-dasharray:none;stroke-opacity:1;shape-rendering:geometricPrecision"
       d="M 2,19 V 1 L 5,2.5 V 17.5 Z" />
    <path
       id="path8"
       style="fill:#000000;fill-opacity:1;stroke:none;stroke-width:0;shape-rendering:geometricPrecision"
       d="M 3.3037045,16.999999 C 3.3037045,16.763774 3.3037045,16.353776 2.9018513,16.353776 2.4999982,16.353776 2.4999982,16.758344 2.4999982,16.999999 2.4999982,17.238939 2.4999982,17.632646 2.9018513,17.632646 3.3037045,17.632646 3.3037045,17.241654 3.3037045,16.999999 Z M 3.06748,16.975562 C 3.06748,17.076025 3.06748,17.209071 3.0566191,17.304104 3.0511887,17.350263 3.0321821,17.507746 2.9018513,17.507746 2.7742358,17.507746 2.7552292,17.347548 2.7497988,17.301389 2.7362227,17.209071 2.7362227,17.046158 2.7362227,16.975562 2.7362227,16.875099 2.7362227,16.763774 2.7470836,16.676887 2.752514,16.630728 2.7688054,16.478676 2.9018513,16.478676 3.0294669,16.478676 3.0511887,16.625298 3.0566191,16.657881 3.06748,16.747483 3.06748,16.883244 3.06748,16.975562 Z M 3.06748,16.975562" />
    <path
       id="path9"
       style="fill:#000000;fill-opacity:1;stroke:none;stroke-width:0;shape-rendering:geometricPrecision"
       d="M 3.2466652,15.55846 C 3.2466652,15.49601 3.1814999,15.49601 3.1624934,15.49601 H 3.0403085 V 14.464227 C 3.0403085,14.431644 3.0403085,14.380055 2.9642824,14.380055 2.9316998,14.380055 2.9235541,14.38277 2.9018324,14.404492 2.871965,14.431644 2.8067997,14.496809 2.6357409,14.499525 2.6031583,14.499525 2.5569996,14.513101 2.5569996,14.561975 2.5569996,14.624425 2.6194496,14.624425 2.6411714,14.624425 2.6927605,14.624425 2.7552106,14.616279 2.8040845,14.602703 V 15.49601 H 2.6683236 C 2.6466018,15.49601 2.586867,15.49601 2.586867,15.55846 2.586867,15.62091 2.6466018,15.62091 2.6683236,15.62091 H 3.1624934 C 3.1814999,15.62091 3.2466652,15.62091 3.2466652,15.55846 Z M 3.2466652,15.55846" />
    <path
       id="path10"
       style="fill:#000000;fill-opacity:1;stroke:none;stroke-width:0;shape-rendering:geometricPrecision"
       d="M 3.290574,13.529748 V 13.510742 C 3.290574,13.48359 3.290574,13.448292 3.2552762,13.434716 3.2417001,13.42657 3.1873957,13.42657 3.1520979,13.42657 L 3.0353434,13.429285 H 2.7529607 L 2.9837543,13.212068 C 3.0081913,13.190346 3.0733565,13.136042 3.1005087,13.111605 3.1955414,13.019287 3.290574,12.92697 3.290574,12.772202 3.290574,12.560415 3.1385218,12.373065 2.8832912,12.373065 2.8235564,12.373065 2.7258085,12.381211 2.6416367,12.449091 2.6253454,12.462667 2.5466041,12.525117 2.5140214,12.639156 L 2.6009084,12.75048 C 2.6117693,12.764057 2.6171998,12.772202 2.6280606,12.772202 2.6443519,12.772202 2.6470672,12.758626 2.6524976,12.73962 2.6877954,12.62015 2.7475303,12.546839 2.8588542,12.546839 2.9918999,12.546839 3.0489195,12.669024 3.0489195,12.774917 3.0489195,12.886241 2.9837543,13.002996 2.8778608,13.11432 L 2.5466041,13.467298 C 2.5303128,13.48359 2.5303128,13.486305 2.5303128,13.516172 V 13.529748 C 2.5303128,13.592198 2.5493193,13.61392 2.6144845,13.61392 H 3.2091174 C 3.2742827,13.61392 3.290574,13.592198 3.290574,13.529748 Z M 3.290574,13.529748" />
    <path
       id="path11"
       style="fill:#000000;fill-opacity:1;stroke:none;stroke-width:0;shape-rendering:geometricPrecision"
       d="M 3.2978653,11.248942 C 3.2978653,11.094174 3.2136935,10.988281 3.0589261,10.947552 3.2001174,10.871526 3.2462762,10.760202 3.2462762,10.662454 3.2462762,10.382787 2.9991913,10.361065 2.8851521,10.361065 2.648928,10.361065 2.5321736,10.532124 2.5321736,10.5457 2.5321736,10.556561 2.5430345,10.570137 2.5430345,10.570137 L 2.5919084,10.640733 C 2.6054845,10.662454 2.6190606,10.662454 2.6190606,10.662454 2.6299215,10.662454 2.6353519,10.654309 2.6434976,10.643448 2.7303846,10.515833 2.8552847,10.515833 2.8770064,10.515833 2.9883304,10.515833 3.0019065,10.572852 3.0019065,10.657024 3.0019065,10.681461 3.0019065,10.765633 2.9503173,10.830798 2.9068738,10.879672 2.8634303,10.882387 2.8118412,10.887817 2.7928346,10.887817 2.760252,10.890533 2.7548216,10.893248 2.7439607,10.898678 2.7439607,10.909539 2.7439607,10.936691 V 10.966559 C 2.7439607,11.012718 2.7439607,11.015433 2.7901194,11.015433 H 2.8661455 C 3.0236282,11.015433 3.0426348,11.113181 3.0426348,11.246226 3.0426348,11.362981 3.0317739,11.47702 2.8742912,11.47702 2.8172716,11.47702 2.6896563,11.466159 2.5729019,11.354835 2.5566106,11.341259 2.5566106,11.338544 2.5484649,11.338544 2.5321736,11.338544 2.5294584,11.354835 2.5267432,11.35755 2.5267432,11.35755 2.5050214,11.468874 2.5050214,11.47702 2.5050214,11.498742 2.6543585,11.639933 2.8824369,11.639933 3.1811109,11.639933 3.2978653,11.479735 3.2978653,11.248942 Z M 3.2978653,11.248942" />
    <path
       id="path12"
       style="fill:none;fill-opacity:1;stroke:#000000;stroke-width:0.25;stroke-linecap:round;stroke-linejoin:round;stroke-dasharray:none;stroke-opacity:1;shape-rendering:geometricPrecision"
       d="M 2,3 H 1" />
    <path
       id="path13"
       style="fill:none;fill-opacity:1;stroke:#000000;stroke-width:0.25;stroke-linecap:round;stroke-linejoin:round;stroke-dasharray:none;stroke-opacity:1;shape-rendering:geometricPrecision"
       d="M 2,5 H 1" />
    <path
       id="path14"
       style="fill:none;fill-opacity:1;stroke:#000000;stroke-width:0.25;stroke-linecap:round;stroke-linejoin:round;stroke-dasharray:none;stroke-opacity:1;shape-rendering:geometricPrecision"
       d="M 2,7 H 1" />
    <path
       id="path15"
       style="fill:none;fill-opacity:1;stroke:#000000;stroke-width:0.25;stroke-linecap:round;stroke-linejoin:round;stroke-dasharray:none;stroke-opacity:1;shape-rendering:geometricPrecision"
       d="M 2,9 H 1" />
    <path
       id="path16"
       style="fill:#000000;fill-opacity:1;stroke:none;stroke-width:0;shape-rendering:geometricPrecision"
       d="M 3.3226313,9.2473261 C 3.3226313,9.1848761 3.3009095,9.1658695 3.2411747,9.1658695 H 3.1678638 V 8.476204 C 3.1678638,8.4137539 3.1488573,8.3920322 3.083692,8.3920322 H 2.958792 C 2.9262093,8.3920322 2.8990572,8.3920322 2.8800506,8.4327605 L 2.4944896,9.1414326 C 2.4809135,9.1658695 2.4809135,9.1713 2.4809135,9.2038826 V 9.2473261 C 2.4809135,9.3016305 2.4917744,9.3287827 2.56237,9.3287827 H 2.9533615 V 9.5107023 C 2.9533615,9.5677219 2.9642224,9.5948741 3.0375333,9.5948741 H 3.083692 C 3.1515725,9.5948741 3.1678638,9.5731524 3.1678638,9.5107023 V 9.3287827 H 3.2411747 C 3.2954791,9.3287827 3.3226313,9.3179218 3.3226313,9.2473261 Z M 2.9642224,9.1658695 H 2.6601179 C 2.9370702,8.6581236 2.9533615,8.6038193 2.9615072,8.5739519 H 2.9642224 Z M 2.9642224,9.1658695" />
    <path
       id="path17"
       style="fill:#000000;fill-opacity:1;stroke:none;stroke-width:0;shape-rendering:geometricPrecision"
       d="M 3.297129,7.2000283 C 3.297129,6.9719499 3.2020964,6.8008911 2.9360049,6.8008911 2.8952766,6.8008911 2.8518331,6.8090368 2.8111049,6.8253281 V 6.5538062 H 3.1505072 C 3.2319638,6.5538062 3.234679,6.5130779 3.234679,6.4669192 3.234679,6.4234757 3.234679,6.3800322 3.1505072,6.3800322 H 2.6699135 C 2.6128939,6.3800322 2.5857417,6.3908931 2.5857417,6.4614888 V 6.9909564 C 2.5857417,7.0696978 2.62647,7.0696978 2.6726287,7.0696978 2.7160722,7.0696978 2.7323635,7.0696978 2.7568005,7.0289695 2.7975288,6.961089 2.8572636,6.9257912 2.9305745,6.9257912 3.0418984,6.9257912 3.0418984,7.0588369 3.0418984,7.1918826 3.0418984,7.3276435 3.0418984,7.457974 2.8599788,7.457974 2.8083896,7.457974 2.68892,7.4416827 2.6210395,7.3059218 2.6156091,7.2950609 2.6101787,7.2842 2.5966026,7.2842 2.5830265,7.2842 2.5803113,7.2923457 2.5694504,7.308637 2.5450134,7.3466501 2.5070004,7.4091001 2.5070004,7.419961 2.5070004,7.4335371 2.6183243,7.6208872 2.8654092,7.6208872 3.1450768,7.6208872 3.297129,7.4796958 3.297129,7.2000283 Z M 3.297129,7.2000283" />
    <path
       id="path18"
       style="fill:#000000;fill-opacity:1;stroke:none;stroke-width:0;shape-rendering:geometricPrecision"
       d="M 3.2988653,5.1849321 C 3.2988653,5.0871842 3.2988653,4.7640732 2.9621782,4.7640732 2.8644303,4.7640732 2.7965499,4.8183775 2.7503911,4.9188406 2.7585368,4.7640732 2.7585368,4.7260601 2.785689,4.6554644 2.8372781,4.5251339 2.9513173,4.5088426 3.0110521,4.5088426 3.0409195,4.5088426 3.0870783,4.514273 3.1278065,4.5359948 3.1413826,4.5441404 3.1468131,4.5495709 3.1549587,4.5495709 3.1766805,4.5495709 3.1766805,4.5278491 3.1766805,4.5006969 V 4.4382469 C 3.1766805,4.3975186 3.1766805,4.3948034 3.1142304,4.3730817 3.0707869,4.3540751 3.021913,4.3540751 3.0056217,4.3540751 2.5060214,4.3540751 2.5060214,4.8536754 2.5060214,5.0057276 2.5060214,5.1849321 2.5060214,5.6329432 2.910589,5.6329432 3.0436348,5.6329432 3.1278065,5.6003605 3.1984022,5.5216192 3.2880044,5.4211561 3.2988653,5.320693 3.2988653,5.1849321 Z M 3.0572109,5.1849321 C 3.0572109,5.3532756 3.0572109,5.47003 2.9078738,5.47003 2.7721129,5.47003 2.7531064,5.3152626 2.7531064,5.1659255 2.7531064,5.0220189 2.7938346,4.8889732 2.9187347,4.8889732 3.0572109,4.8889732 3.0572109,5.0138733 3.0572109,5.1849321 Z M 3.0572109,5.1849321" />
    <path
       id="path19"
       style="fill:#000000;fill-opacity:1;stroke:none;stroke-width:0;shape-rendering:geometricPrecision"
       d="M 3.2978653,2.4769192 C 3.2978653,2.4389061 3.2978653,2.3927474 3.2245544,2.3900322 H 2.6244911 C 2.5403193,2.3900322 2.5050214,2.3900322 2.5050214,2.4714888 V 2.4959257 C 2.5050214,2.5230779 2.5050214,2.5556605 2.5430345,2.5719518 2.5538954,2.5773823 2.610915,2.5773823 2.648928,2.5773823 L 2.7683977,2.5746671 H 3.0616413 C 2.673365,3.0036716 2.673365,3.4408218 2.673365,3.5277088 2.673365,3.5847284 2.6869411,3.6118806 2.7575368,3.6118806 H 2.8362781 C 2.8634303,3.6118806 2.9204499,3.6118806 2.9204499,3.5440002 2.9258804,3.1149956 3.0752174,2.8000302 3.2842892,2.5393692 3.2978653,2.5230779 3.2978653,2.5095018 3.2978653,2.4769192 Z M 3.2978653,2.4769192" />
  </g>
</svg>
