<?xml version="1.0" encoding="UTF-8" standalone="no"?>
<svg
   width="11mm"
   height="14mm"
   viewBox="0 0 11 14"
   version="1.1"
   id="schemalib-source-i-pulse-m"
   xmlns="http://www.w3.org/2000/svg"
   xmlns:svg="http://www.w3.org/2000/svg">
  <g
     id="source-i-pulse-m">
    <path
       id="path1"
       style="fill:#ffffff;fill-opacity:1;stroke:#000000;stroke-width:0.25;stroke-linecap:round;stroke-linejoin:round;stroke-dasharray:none;stroke-opacity:1;shape-rendering:geometricPrecision"
       d="M 9.5,7 A 2.5,2.5 0 0 1 7,9.5 2.5,2.5 0 0 1 4.5,7 2.5,2.5 0 0 1 7,4.5 2.5,2.5 0 0 1 9.5,7 Z"  />
    <path
       id="path2"
       style="fill:none;fill-opacity:1;stroke:#000000;stroke-width:0.25;stroke-linecap:round;stroke-linejoin:round;stroke-dasharray:none;stroke-opacity:1;shape-rendering:geometricPrecision"
       d="M 7,9.5 V 13"  />
    <path
       id="path3"
       style="fill:none;fill-opacity:1;stroke:#000000;stroke-width:0.25;stroke-linecap:round;stroke-linejoin:round;stroke-dasharray:none;stroke-opacity:1;shape-rendering:geometricPrecision"
       d="M 7,4.5 V 1"  />
    <path
       id="path4"
       style="fill:none;fill-opacity:1;stroke:#000000;stroke-width:0.25;stroke-linecap:round;stroke-linejoin:round;stroke-dasharray:none;stroke-opacity:1;shape-rendering:geometricPrecision" 
       d="M 7,5.5 C 7,5.5 7,8.5 7,8.5" />
    <path
       id="path5"
       style="fill:none;fill-opacity:1;stroke:#000000;stroke-width:0.25;stroke-linecap:round;stroke-linejoin:round;stroke-dasharray:none;stroke-opacity:1;shape-rendering:geometricPrecision"
       d="M 7,8.5 8,6.5"  />
    <path
       id="path6"
       style="fill:none;fill-opacity:1;stroke:#000000;stroke-width:0.25;stroke-linecap:round;stroke-linejoin:round;stroke-dasharray:none;stroke-opacity:1;shape-rendering:geometricPrecision"
       d="M 7,8.5 6,6.5"  />
    <path
       id="path7"
       style="fill:none;fill-opacity:1;stroke:#000000;stroke-width:0.25;stroke-linecap:round;stroke-linejoin:round;stroke-dasharray:none;stroke-opacity:1;shape-rendering:geometricPrecision" 
       d="M 1,8 H 2 V 6 H 3 V 8 H 4" />
  </g>
</svg>
