<?xml version="1.0" encoding="UTF-8" standalone="no"?>
<svg
   width="6mm"
   height="13mm"
   viewBox="0 0 6 13"
   version="1.1"
   id="schemalib-demux8-s"
   xmlns="http://www.w3.org/2000/svg"
   xmlns:svg="http://www.w3.org/2000/svg">
  <g
    id="demux8-s">
    <path
       id="path1"
       style="fill:none;fill-opacity:1;stroke:#000000;stroke-width:0.25;stroke-linecap:round;stroke-linejoin:round;stroke-dasharray:none;stroke-opacity:1;shape-rendering:geometricPrecision"
       d="M 2,6.5 H 1" />
    <path
       id="path2"
       style="fill:none;fill-opacity:1;stroke:#000000;stroke-width:0.25;stroke-linecap:round;stroke-linejoin:round;stroke-dasharray:none;stroke-opacity:1;shape-rendering:geometricPrecision"
       d="M 3,12 V 11" />
    <path
       id="path3"
       style="fill:none;fill-opacity:1;stroke:#000000;stroke-width:0.25;stroke-linecap:round;stroke-linejoin:round;stroke-dasharray:none;stroke-opacity:1;shape-rendering:geometricPrecision"
       d="M 4,7 H 5" />
    <path
       id="path4"
       style="fill:none;fill-opacity:1;stroke:#000000;stroke-width:0.25;stroke-linecap:round;stroke-linejoin:round;stroke-dasharray:none;stroke-opacity:1;shape-rendering:geometricPrecision"
       d="M 4,8 H 5" />
    <path
       id="path5"
       style="fill:#ffffff;fill-opacity:1;stroke:#000000;stroke-width:0.25;stroke-linecap:round;stroke-linejoin:round;stroke-dasharray:none;stroke-opacity:1;shape-rendering:geometricPrecision"
       d="M 4,11.5 V 1.5 L 2,2.5 2,10.5 Z" />
    <path
       id="path6"
       style="fill:none;fill-opacity:1;stroke:#000000;stroke-width:0.25;stroke-linecap:round;stroke-linejoin:round;stroke-dasharray:none;stroke-opacity:1;shape-rendering:geometricPrecision"
       d="M 4,9 H 5" />
    <path
       id="path7"
       style="fill:none;fill-opacity:1;stroke:#000000;stroke-width:0.25;stroke-linecap:round;stroke-linejoin:round;stroke-dasharray:none;stroke-opacity:1;shape-rendering:geometricPrecision"
       d="M 4,10 H 5" />
    <path
       id="path8"
       style="fill:#000000;fill-opacity:1;stroke:none;stroke-width:0;shape-rendering:geometricPrecision"
       d="M 3.4992139,10.000001 C 3.4992139,9.8453059 3.4992139,9.5768125 3.2360548,9.5768125 2.9728957,9.5768125 2.9728957,9.8417497 2.9728957,10.000001 2.9728957,10.156474 2.9728957,10.414298 3.2360548,10.414298 3.4992139,10.414298 3.4992139,10.158252 3.4992139,10.000001 Z M 3.344519,9.9839978 C 3.344519,10.049788 3.344519,10.136915 3.3374066,10.199148 3.3338504,10.229376 3.3214037,10.332506 3.2360548,10.332506 3.152484,10.332506 3.1400373,10.227598 3.1364811,10.19737 3.1275906,10.136915 3.1275906,10.030228 3.1275906,9.9839978 3.1275906,9.918208 3.1275906,9.8453059 3.134703,9.7884066 3.1382592,9.7581789 3.1489278,9.6586052 3.2360548,9.6586052 3.3196256,9.6586052 3.3338504,9.7546227 3.3374066,9.7759599 3.344519,9.8346373 3.344519,9.9235423 3.344519,9.9839978 Z M 3.344519,9.9839978" />
    <path
       id="path9"
       style="fill:#000000;fill-opacity:1;stroke:none;stroke-width:0;shape-rendering:geometricPrecision"
       d="M 3.4615399,9.3647421 C 3.4615399,9.3238456 3.4188653,9.3238456 3.4064185,9.3238456 H 3.3264036 V 8.648164 C 3.3264036,8.6268267 3.3264036,8.5930426 3.2766166,8.5930426 3.2552792,8.5930426 3.2499449,8.5948207 3.23572,8.6090456 3.2161608,8.6268267 3.1734862,8.6695013 3.0614653,8.6712794 3.040128,8.6712794 3.0099002,8.68017 3.0099002,8.7121759 3.0099002,8.7530725 3.0507967,8.7530725 3.0650215,8.7530725 3.0988056,8.7530725 3.1397021,8.7477381 3.1717081,8.7388476 V 9.3238456 H 3.0828026 C 3.0685778,9.3238456 3.0294594,9.3238456 3.0294594,9.3647421 3.0294594,9.4056386 3.0685778,9.4056386 3.0828026,9.4056386 H 3.4064185 C 3.4188653,9.4056386 3.4615399,9.4056386 3.4615399,9.3647421 Z M 3.4615399,9.3647421" />
    <path
       id="path10"
       style="fill:#000000;fill-opacity:1;stroke:none;stroke-width:0;shape-rendering:geometricPrecision"
       d="M 3.4904534,8.3465172 V 8.3340704 C 3.4904534,8.3162894 3.4904534,8.2931739 3.4673379,8.2842834 3.4584474,8.2789491 3.4228852,8.2789491 3.3997698,8.2789491 L 3.3233111,8.2807272 H 3.1383877 L 3.289527,8.1384784 C 3.30553,8.1242535 3.3482046,8.0886914 3.3659857,8.0726884 3.4282195,8.0122326 3.4904534,7.9517769 3.4904534,7.8504247 3.4904534,7.7117322 3.3908792,7.5890426 3.2237369,7.5890426 3.1846185,7.5890426 3.1206066,7.5943769 3.0654852,7.6388297 3.0548166,7.6477202 3.0032514,7.6886167 2.9819141,7.7632973 L 3.0388136,7.8361998 C 3.045926,7.8450904 3.0494822,7.8504247 3.0565947,7.8504247 3.0672633,7.8504247 3.0690414,7.8415341 3.0725976,7.8290874 3.0957131,7.7508506 3.1348315,7.7028416 3.207734,7.7028416 3.2948613,7.7028416 3.3322016,7.7828565 3.3322016,7.8522028 3.3322016,7.9251053 3.289527,8.001564 3.2201807,8.0744665 L 3.0032514,8.3056207 C 2.9925827,8.3162894 2.9925827,8.3180675 2.9925827,8.3376267 V 8.3465172 C 2.9925827,8.3874137 3.0050295,8.4016386 3.0477041,8.4016386 H 3.4371101 C 3.4797847,8.4016386 3.4904534,8.3874137 3.4904534,8.3465172 Z M 3.4904534,8.3465172" />
    <path
       id="path11"
       style="fill:#000000;fill-opacity:1;stroke:none;stroke-width:0;shape-rendering:geometricPrecision"
       d="M 3.495122,7.1624844 C 3.495122,7.0611321 3.4400006,6.9917859 3.3386484,6.9651142 3.4311101,6.9153272 3.4613379,6.8424247 3.4613379,6.7784128 3.4613379,6.5952675 3.29953,6.5810426 3.2248494,6.5810426 3.0701539,6.5810426 2.9936952,6.6930635 2.9936952,6.7019541 2.9936952,6.7090665 3.0008076,6.717957 3.0008076,6.717957 L 3.0328136,6.7641879 C 3.0417041,6.7784128 3.0505947,6.7784128 3.0505947,6.7784128 3.0577071,6.7784128 3.0612633,6.7730784 3.0665976,6.765966 3.1234972,6.6823948 3.2052902,6.6823948 3.2195151,6.6823948 3.2924175,6.6823948 3.3013081,6.7197351 3.3013081,6.7748565 3.3013081,6.7908595 3.3013081,6.8459809 3.267524,6.8886555 3.2390743,6.9206615 3.2106245,6.9224396 3.1768404,6.9259958 3.1643937,6.9259958 3.1430564,6.9277739 3.1395001,6.9295521 3.1323877,6.9331083 3.1323877,6.9402207 3.1323877,6.9580018 V 6.977561 C 3.1323877,7.0077889 3.1323877,7.009567 3.1626156,7.009567 H 3.2124026 C 3.315533,7.009567 3.3279797,7.0735789 3.3279797,7.1607063 3.3279797,7.237165 3.3208673,7.3118456 3.2177369,7.3118456 3.1803967,7.3118456 3.0968255,7.3047331 3.0203668,7.2318306 3.0096982,7.2229401 3.0096982,7.221162 3.0043638,7.221162 2.9936952,7.221162 2.9919171,7.2318306 2.9901389,7.2336088 2.9901389,7.2336088 2.9759141,7.3065112 2.9759141,7.3118456 2.9759141,7.3260704 3.0737101,7.4185321 3.2230713,7.4185321 3.4186633,7.4185321 3.495122,7.3136237 3.495122,7.1624844 Z M 3.495122,7.1624844" />
    <path
       id="path12"
       style="fill:none;fill-opacity:1;stroke:#000000;stroke-width:0.25;stroke-linecap:round;stroke-linejoin:round;stroke-dasharray:none;stroke-opacity:1;shape-rendering:geometricPrecision"
       d="M 4,3 H 5" />
    <path
       id="path13"
       style="fill:none;fill-opacity:1;stroke:#000000;stroke-width:0.25;stroke-linecap:round;stroke-linejoin:round;stroke-dasharray:none;stroke-opacity:1;shape-rendering:geometricPrecision"
       d="M 4,4 H 5" />
    <path
       id="path14"
       style="fill:none;fill-opacity:1;stroke:#000000;stroke-width:0.25;stroke-linecap:round;stroke-linejoin:round;stroke-dasharray:none;stroke-opacity:1;shape-rendering:geometricPrecision"
       d="M 4,5 H 5" />
    <path
       id="path15"
       style="fill:none;fill-opacity:1;stroke:#000000;stroke-width:0.25;stroke-linecap:round;stroke-linejoin:round;stroke-dasharray:none;stroke-opacity:1;shape-rendering:geometricPrecision"
       d="M 4,6 H 5" />
    <path
       id="path16"
       style="fill:#000000;fill-opacity:1;stroke:none;stroke-width:0;shape-rendering:geometricPrecision"
       d="M 3.512057,6.1621186 C 3.512057,6.1212221 3.4978321,6.1087753 3.4587137,6.1087753 H 3.4107048 V 5.6571355 C 3.4107048,5.616239 3.398258,5.6020141 3.3555834,5.6020141 H 3.2737903 C 3.252453,5.6020141 3.2346719,5.6020141 3.2222252,5.6286858 L 2.9697336,6.0927723 C 2.9608431,6.1087753 2.9608431,6.1123315 2.9608431,6.1336688 V 6.1621186 C 2.9608431,6.1976808 2.9679555,6.2154619 3.0141864,6.2154619 H 3.2702341 V 6.3345952 C 3.2702341,6.3719355 3.2773466,6.3897166 3.3253555,6.3897166 H 3.3555834 C 3.4000361,6.3897166 3.4107048,6.3754917 3.4107048,6.3345952 V 6.2154619 H 3.4587137 C 3.4942759,6.2154619 3.512057,6.2083494 3.512057,6.1621186 Z M 3.2773466,6.1087753 H 3.0781983 C 3.2595655,5.7762689 3.2702341,5.7407067 3.2755684,5.7211475 H 3.2773466 Z M 3.2773466,6.1087753" />
    <path
       id="path17"
       style="fill:#000000;fill-opacity:1;stroke:none;stroke-width:0;shape-rendering:geometricPrecision"
       d="M 3.4943294,5.1300032 C 3.4943294,4.980642 3.4320955,4.8686211 3.2578408,4.8686211 3.2311692,4.8686211 3.2027194,4.8739554 3.1760478,4.8846241 V 4.7068131 H 3.3983114 C 3.4516547,4.7068131 3.4534328,4.6801415 3.4534328,4.6499136 3.4534328,4.6214639 3.4534328,4.5930141 3.3983114,4.5930141 H 3.0835861 C 3.0462458,4.5930141 3.0284647,4.6001266 3.0284647,4.6463574 V 4.9930888 C 3.0284647,5.0446539 3.0551363,5.0446539 3.0853642,5.0446539 3.1138139,5.0446539 3.1244826,5.0446539 3.1404856,5.0179823 3.1671572,4.9735296 3.2062756,4.9504141 3.2542846,4.9504141 3.3271871,4.9504141 3.3271871,5.0375415 3.3271871,5.1246689 3.3271871,5.2135743 3.3271871,5.2989236 3.2080537,5.2989236 3.1742697,5.2989236 3.0960329,5.2882549 3.0515801,5.1993494 3.0480239,5.192237 3.0444677,5.1851246 3.0355771,5.1851246 3.0266866,5.1851246 3.0249085,5.1904589 3.017796,5.2011276 3.0017931,5.2260211 2.9768995,5.2669176 2.9768995,5.27403 2.9768995,5.2829206 3.049802,5.4056101 3.21161,5.4056101 3.3947552,5.4056101 3.4943294,5.3131484 3.4943294,5.1300032 Z M 3.4943294,5.1300032" />
    <path
       id="path18"
       style="fill:#000000;fill-opacity:1;stroke:none;stroke-width:0;shape-rendering:geometricPrecision"
       d="M 3.496122,4.1211437 C 3.496122,4.0571317 3.496122,3.8455367 3.2756364,3.8455367 3.2116245,3.8455367 3.1671718,3.8810989 3.1369439,3.946889 3.1422782,3.8455367 3.1422782,3.8206432 3.1600593,3.7744124 3.1938434,3.6890631 3.268524,3.6783945 3.3076424,3.6783945 3.3272016,3.6783945 3.3574295,3.6819507 3.3841011,3.6961755 3.3929917,3.7015099 3.3965479,3.7050661 3.4018822,3.7050661 3.4161071,3.7050661 3.4161071,3.6908412 3.4161071,3.6730601 V 3.6321636 C 3.4161071,3.605492 3.4161071,3.6037139 3.3752106,3.589489 3.3467608,3.5770422 3.3147549,3.5770422 3.3040862,3.5770422 2.9769141,3.5770422 2.9769141,3.9042143 2.9769141,4.0037885 2.9769141,4.1211437 2.9769141,4.4145317 3.2418524,4.4145317 3.3289797,4.4145317 3.3841011,4.3931944 3.430332,4.3416292 3.4890096,4.2758392 3.496122,4.2100492 3.496122,4.1211437 Z M 3.3378703,4.1211437 C 3.3378703,4.2313865 3.3378703,4.3078452 3.2400743,4.3078452 3.1511688,4.3078452 3.138722,4.2064929 3.138722,4.1086969 3.138722,4.0144571 3.1653937,3.9273298 3.2471867,3.9273298 3.3378703,3.9273298 3.3378703,4.0091228 3.3378703,4.1211437 Z M 3.3378703,4.1211437" />
    <path
       id="path19"
       style="fill:#000000;fill-opacity:1;stroke:none;stroke-width:0;shape-rendering:geometricPrecision"
       d="M 3.495122,2.6569132 C 3.495122,2.6320197 3.495122,2.6017919 3.4471131,2.6000137 H 3.0541509 C 2.9990295,2.6000137 2.9759141,2.6000137 2.9759141,2.653357 V 2.66936 C 2.9759141,2.6871411 2.9759141,2.7084784 3.0008076,2.7191471 3.00792,2.7227033 3.0452603,2.7227033 3.0701539,2.7227033 L 3.1483907,2.7209252 H 3.3404265 C 3.0861569,3.0018665 3.0861569,3.2881421 3.0861569,3.3450416 3.0861569,3.3823819 3.0950474,3.400163 3.1412782,3.400163 H 3.1928434 C 3.2106245,3.400163 3.2479648,3.400163 3.2479648,3.3557102 3.251521,3.0747689 3.349317,2.8685083 3.4862315,2.6978098 3.495122,2.6871411 3.495122,2.6782506 3.495122,2.6569132 Z M 3.495122,2.6569132" />
  </g>
</svg>
