<?xml version="1.0" encoding="UTF-8" standalone="no"?>
<svg
   width="12mm"
   height="14mm"
   viewBox="0 0 12 14"
   version="1.1"
   id="schemalib-fft-clkup-setx-resl-qnq-m"
   xmlns="http://www.w3.org/2000/svg"
   xmlns:svg="http://www.w3.org/2000/svg">
  <g
     id="fft-clkup-setx-resl-qnq-m">
    <path
       id="path1" 
       style="fill:#ffffff;fill-opacity:1;stroke:#000000;stroke-width:0.25;stroke-linecap:round;stroke-linejoin:round;stroke-dasharray:none;stroke-opacity:1;shape-rendering:geometricPrecision"
       d="M 2.5,2.5 H 9.5 V 11.5 H 2.5 Z"  />
    <path
       id="path2"
       style="fill:none;fill-opacity:1;stroke:#000000;stroke-width:0.25;stroke-linecap:round;stroke-linejoin:round;stroke-dasharray:none;stroke-opacity:1;shape-rendering:geometricPrecision" 
       d="M 6,13 V 11.5"  />
    <path
       id="path3"
       style="fill:none;fill-opacity:1;stroke:#000000;stroke-width:0.25;stroke-linecap:round;stroke-linejoin:round;stroke-dasharray:none;stroke-opacity:1;shape-rendering:geometricPrecision" 
       d="M 9.5,5 H 11"  />
    <path
       id="path4"
       style="fill:none;fill-opacity:1;stroke:#000000;stroke-width:0.25;stroke-linecap:round;stroke-linejoin:round;stroke-dasharray:none;stroke-opacity:1;shape-rendering:geometricPrecision" 
       d="M 1,5 H 2.5"  />
    <path
       id="path6"
       style="fill:none;fill-opacity:1;stroke:#000000;stroke-width:0.25;stroke-linecap:round;stroke-linejoin:round;stroke-dasharray:none;stroke-opacity:1;shape-rendering:geometricPrecision" 
       d="M 1,7 H 2.5"  />
    <path
       id="path7" 
       style="fill:none;fill-opacity:1;stroke:#000000;stroke-width:0.25;stroke-linecap:round;stroke-linejoin:round;stroke-dasharray:none;stroke-opacity:1;shape-rendering:geometricPrecision"
       d="M 2.5,6 4,7 2.5,8"  />
    <path
       id="path8" 
       style="fill:none;fill-opacity:1;stroke:#000000;stroke-width:0.25;stroke-linecap:round;stroke-linejoin:round;stroke-dasharray:none;stroke-opacity:1;shape-rendering:geometricPrecision"
       d="M 9.5,9 H 11"  />
    <path
       id="path9" 
       style="fill:none;fill-opacity:1;stroke:#000000;stroke-width:0.25;stroke-linecap:round;stroke-linejoin:round;stroke-dasharray:none;stroke-opacity:1;shape-rendering:geometricPrecision"
       d="M 4.5,8 H 5 V 6 H 5.5"  />
    <path
       id="path11" 
       style="fill:#000000;fill-opacity:1;stroke:none;stroke-width:0;shape-rendering:geometricPrecision"
       d="M 9.0000025,5.0000116 C 9.0000025,4.5766776 8.8445596,4.2095676 8.292241,4.2095676 7.7101568,4.2095676 7.5844795,4.6130578 7.5844795,5.0000116 7.5844795,5.3935799 7.7200786,5.7673045 8.292241,5.7673045 8.325314,5.7673045 8.374923,5.7673045 8.4443767,5.7573845 L 8.5204447,5.8698326 C 8.5667467,5.9392856 8.5733617,5.9459006 8.6428147,5.9459006 H 8.8114868 C 8.8379448,5.9459006 8.8875548,5.9459006 8.8875548,5.8995986 8.8875548,5.8797546 8.8809448,5.8764476 8.8544818,5.8400676 L 8.7188823,5.661471 C 8.9867734,5.4994134 9.0000025,5.1521472 9.0000025,5.0000116 Z M 8.6957312,4.9967016 C 8.6957312,5.1289935 8.6957312,5.3505823 8.5766685,5.4861815 L 8.4609132,5.3340486 C 8.4410694,5.3108975 8.4311475,5.3108975 8.3914599,5.3108975 H 8.2624753 C 8.2327093,5.3108975 8.1864073,5.3108975 8.1864073,5.3605065 8.1864073,5.3836575 8.2525533,5.4795692 8.2922408,5.532486 8.2988508,5.542406 8.3319288,5.592017 8.3319288,5.598632 8.3319288,5.598632 8.2988558,5.601942 8.2922408,5.601942 7.8887506,5.601942 7.8887506,5.1852226 7.8887506,4.9967067 7.8887506,4.8114981 7.8887506,4.3749349 8.2922408,4.3749349 8.695731,4.3749349 8.695731,4.8081908 8.695731,4.9967067 Z M 8.6957312,4.9967016"  />
    <path
       id="path12" 
       style="fill:none;fill-opacity:1;stroke:#000000;stroke-width:0.25;stroke-linecap:round;stroke-linejoin:round;stroke-dasharray:none;stroke-opacity:1;shape-rendering:geometricPrecision"
       d="M 7.324027,8.0078776 H 8.9999996"  />
    <path
       id="path13" 
       style="fill:#000000;fill-opacity:1;stroke:none;stroke-width:0;shape-rendering:geometricPrecision"
       d="M 8.8687595,9.0462366 C 8.8687595,8.6229026 8.7133166,8.2557926 8.160998,8.2557926 7.5789138,8.2557926 7.4532365,8.6592828 7.4532365,9.0462366 7.4532365,9.4398049 7.5888356,9.8135295 8.160998,9.8135295 8.194071,9.8135295 8.24368,9.8135295 8.3131337,9.8036095 L 8.3892017,9.9160576 C 8.4355037,9.9855106 8.4421187,9.9921256 8.5115717,9.9921256 H 8.6802438 C 8.7067018,9.9921256 8.7563118,9.9921256 8.7563118,9.9458236 8.7563118,9.9259796 8.7497018,9.9226726 8.7232388,9.8862926 L 8.5876393,9.707696 C 8.8555304,9.5456384 8.8687595,9.1983722 8.8687595,9.0462366 Z M 8.5644882,9.0429266 C 8.5644882,9.1752185 8.5644882,9.3968074 8.4454255,9.5324065 L 8.3296702,9.3802736 C 8.3098264,9.3571225 8.2999045,9.3571225 8.2602169,9.3571225 H 8.1312323 C 8.1014663,9.3571225 8.0551643,9.3571225 8.0551643,9.4067315 8.0551643,9.4298825 8.1213103,9.5257942 8.1609978,9.578711 8.1676078,9.588631 8.2006858,9.638242 8.2006858,9.644857 8.2006858,9.644857 8.1676128,9.648167 8.1609978,9.648167 7.7575076,9.648167 7.7575076,9.2314476 7.7575076,9.0429317 7.7575076,8.8577231 7.7575076,8.4211599 8.1609978,8.4211599 8.564488,8.4211599 8.564488,8.8544158 8.564488,9.0429317 Z M 8.5644882,9.0429266"  />
    <path
       id="path14" 
       style="fill:#ffffff;fill-opacity:1;stroke:#000000;stroke-width:0.25;stroke-linecap:round;stroke-linejoin:round;stroke-dasharray:none;stroke-opacity:1;shape-rendering:geometricPrecision"
       d="M 10.5,9 C 10.5,9.3 10.3,9.5 10,9.5 9.7,9.5 9.5,9.3 9.5,9 9.5,8.7 9.7,8.5 10,8.5 10.3,8.5 10.5,8.7 10.5,9 Z"  />
    <path
       id="path17" 
       style="fill:#ffffff;fill-opacity:1;stroke:#000000;stroke-width:0.25;stroke-linecap:round;stroke-linejoin:round;stroke-dasharray:none;stroke-opacity:1;shape-rendering:geometricPrecision"
       d="M 6.5,12 C 6.5,12.3 6.3,12.5 6,12.5 5.7,12.5 5.5,12.3 5.5,12 5.5,11.7 5.7,11.5 6,11.5 6.3,11.5 6.5,11.7 6.5,12 Z"  />
    <path
       id="path18" 
       style="fill:#000000;fill-opacity:1;stroke:none;stroke-width:0;shape-rendering:geometricPrecision"
       d="M 4.3525808,4.3930837 V 4.3765472 C 4.3525808,4.3070939 4.3393516,4.274021 4.2533619,4.274021 H 3.0792715 C 3.0032037,4.274021 2.9800526,4.2971721 2.9800526,4.3765472 V 4.3930837 C 2.9800526,4.4923026 3.0296621,4.4923026 3.0891934,4.4923026 L 3.5125274,4.485688 V 5.6233981 C 3.5125274,5.6994659 3.5356785,5.7259243 3.6150536,5.7259243 H 3.7208871 C 3.8002622,5.7259243 3.8234133,5.6994659 3.8234133,5.6233981 V 4.485688 L 4.24344,4.4923026 C 4.3029714,4.4923026 4.3525808,4.4923026 4.3525808,4.3930837 Z M 4.3525808,4.3930837" />
    <path
       id="path20" 
       style="fill:none;fill-opacity:1;stroke:#000000;stroke-width:0.25;stroke-linecap:round;stroke-linejoin:round;stroke-dasharray:none;stroke-opacity:1;shape-rendering:geometricPrecision"
       d="M 5.258752,9.2328056 H 6.7412479"  />
    <path
       id="path21" 
       style="fill:#000000;fill-opacity:1;stroke:none;stroke-width:0;shape-rendering:geometricPrecision"
       d="M 6.6381197,10.929316 6.2776243,10.317466 C 6.4099162,10.284396 6.6116613,10.205018 6.6116613,9.9437419 6.6116613,9.5270225 6.1552544,9.5270225 6.0593427,9.5270225 H 5.5533263 C 5.4772583,9.5270225 5.4508001,9.5501735 5.4508001,9.6295487 V 10.889629 C 5.4508001,10.965699 5.4739511,10.992155 5.5533263,10.992155 H 5.6525453 C 5.7352283,10.992155 5.7550715,10.965695 5.7550715,10.889629 V 10.33731 H 5.9898896 L 6.3338485,10.942546 C 6.3636145,10.992156 6.3867655,10.992156 6.4330675,10.992156 H 6.5587448 C 6.6017398,10.992156 6.6381198,10.992156 6.6381197,10.929316 Z M 6.3173119,9.9470492 C 6.3173119,10.069419 6.2875459,10.185175 6.0295771,10.185175 H 5.7550714 V 9.7089238 H 6.0295771 C 6.274317,9.7089238 6.3173119,9.8048358 6.3173119,9.9470492 Z M 6.3173119,9.9470492"  />
  </g>
</svg>
