<?xml version="1.0" encoding="UTF-8" standalone="no"?>
<svg
   width="5mm"
   height="10mm"
   viewBox="0 0 5 10"
   version="1.1"
   id="schemalib-ind-coup-s"
   xmlns="http://www.w3.org/2000/svg"
   xmlns:svg="http://www.w3.org/2000/svg">
  <g
     id="ind-coup-s">
    <path
       id="path1"
       style="fill:none;fill-opacity:1;stroke:#000000;stroke-width:0.25;stroke-linecap:round;stroke-linejoin:round;stroke-dasharray:none;stroke-opacity:1;shape-rendering:geometricPrecision"
       d="M 3,1 V 1.9 C 3.6,1.9 4,2.3 4,2.7 4,3.2 3.6,3.5 3,3.5 3.6,3.5 4,3.9 4,4.3 4,4.8 3.6,5.1 3,5.1 3.6,5.1 4,5.5 4,5.9 4,6.4 3.6,6.7 3,6.7 3.6,6.7 4,7.1 4,7.5 4,8 3.6,8.3 3,8.3 V 9"  />
    <path
       id="path2"
       style="fill:#000000;fill-opacity:1;stroke:#000000;stroke-width:0.25;stroke-linecap:round;stroke-linejoin:round;stroke-dasharray:none;stroke-opacity:1;shape-rendering:geometricPrecision"
       d="M 2.4,2 A 0.4,0.4 0 0 1 2,2.4 0.4,0.4 0 0 1 1.6,2 0.4,0.4 0 0 1 2,1.6 0.4,0.4 0 0 1 2.4,2 Z"  />
  </g>
</svg>
