<?xml version="1.0" encoding="UTF-8" standalone="no"?>
<svg
   width="7mm"
   height="18mm"
   viewBox="0 0 7 18"
   version="1.1"
   id="schemalib-switch-to-open-l"
   xmlns="http://www.w3.org/2000/svg"
   xmlns:svg="http://www.w3.org/2000/svg">
  <g
     id="switch-to-open-l">
    <path
       id="path1"
       style="fill:none;fill-opacity:1;stroke:#000000;stroke-width:0.25;stroke-linecap:round;stroke-linejoin:round;stroke-dasharray:none;stroke-opacity:1;shape-rendering:geometricPrecision"
       d="M 3,1 V 6"  />
    <path
       id="path2"
       style="fill:none;fill-opacity:1;stroke:#000000;stroke-width:0.25;stroke-linecap:round;stroke-linejoin:round;stroke-dasharray:none;stroke-opacity:1;shape-rendering:geometricPrecision"
       d="M 3,12 V 17"  />
    <path
       id="path3"
       style="fill:none;fill-opacity:1;stroke:#000000;stroke-width:0.25;stroke-linecap:round;stroke-linejoin:round;stroke-dasharray:none;stroke-opacity:1;shape-rendering:geometricPrecision"
       d="M 3,6 3.7,12"  />
    <path
       id="path4"
       style="fill:none;fill-opacity:1;stroke:#000000;stroke-width:0.25;stroke-linecap:round;stroke-linejoin:round;stroke-dasharray:none;stroke-opacity:1;shape-rendering:geometricPrecision"
       d="M 5.1,8.8 A 3.5,3.5 0 0 1 1.8,9.3"  />
    <path
       id="path5" 
       style="fill:none;fill-opacity:1;stroke:#000000;stroke-width:0.25;stroke-linecap:round;stroke-linejoin:round;stroke-dasharray:none;stroke-opacity:1;shape-rendering:geometricPrecision"
       d="M 4.8,9.9 5.1,8.8 4,8.5" />
    <path
       id="path6"
       style="fill:#ffffff;fill-opacity:1;stroke:#000000;stroke-width:0.25;stroke-linecap:round;stroke-linejoin:round;stroke-dasharray:none;stroke-opacity:1;shape-rendering:geometricPrecision"
       d="M 3.5,6 A 0.5,0.5 0 0 1 3,6.5 0.5,0.5 0 0 1 2.5,6 0.5,0.5 0 0 1 3,5.5 0.5,0.5 0 0 1 3.5,6 Z"  />
    <path
       id="path7"
       style="fill:#ffffff;fill-opacity:1;stroke:#000000;stroke-width:0.25;stroke-linecap:round;stroke-linejoin:round;stroke-dasharray:none;stroke-opacity:1;shape-rendering:geometricPrecision"
       d="M 3.5,12 A 0.5,0.5 0 0 1 3,12.5 0.5,0.5 0 0 1 2.5,12 0.5,0.5 0 0 1 3,11.5 0.5,0.5 0 0 1 3.5,12 Z"  />
  </g>
</svg>
