<?xml version="1.0" encoding="UTF-8" standalone="no"?>
<svg
   width="7mm"
   height="12mm"
   viewBox="0 0 7 12"
   version="1.1"
   id="schemalib-mux4-m"
   xmlns="http://www.w3.org/2000/svg"
   xmlns:svg="http://www.w3.org/2000/svg">
  <g
    id="mux4-m">
    <path
       id="path1"
       style="fill:none;fill-opacity:1;stroke:#000000;stroke-width:0.25;stroke-linecap:round;stroke-linejoin:round;stroke-dasharray:none;stroke-opacity:1;shape-rendering:geometricPrecision"
       d="M 5,6 H 6" />
    <path
       id="path2"
       style="fill:none;fill-opacity:1;stroke:#000000;stroke-width:0.25;stroke-linecap:round;stroke-linejoin:round;stroke-dasharray:none;stroke-opacity:1;shape-rendering:geometricPrecision"
       d="M 3.5,11 V 10.3" />
    <path
       id="path3"
       style="fill:none;fill-opacity:1;stroke:#000000;stroke-width:0.25;stroke-linecap:round;stroke-linejoin:round;stroke-dasharray:none;stroke-opacity:1;shape-rendering:geometricPrecision"
       d="M 2,3 H 1" />
    <path
       id="path4"
       style="fill:none;fill-opacity:1;stroke:#000000;stroke-width:0.25;stroke-linecap:round;stroke-linejoin:round;stroke-dasharray:none;stroke-opacity:1;shape-rendering:geometricPrecision"
       d="M 2,5 H 1" />
    <path
       id="path5"
       style="fill:none;fill-opacity:1;stroke:#000000;stroke-width:0.25;stroke-linecap:round;stroke-linejoin:round;stroke-dasharray:none;stroke-opacity:1;shape-rendering:geometricPrecision"
       d="M 2,7 H 1" />
    <path
       id="path6"
       style="fill:none;fill-opacity:1;stroke:#000000;stroke-width:0.25;stroke-linecap:round;stroke-linejoin:round;stroke-dasharray:none;stroke-opacity:1;shape-rendering:geometricPrecision"
       d="M 2,9 H 1" />
    <path
       id="path7"
       style="fill:#ffffff;fill-opacity:1;stroke:#000000;stroke-width:0.25;stroke-linecap:round;stroke-linejoin:round;stroke-dasharray:none;stroke-opacity:1;shape-rendering:geometricPrecision"
       d="M 2,11 V 1 L 5,2.5 V 9.5 Z" />
    <path
       id="path8"
       style="fill:#000000;fill-opacity:1;stroke:none;stroke-width:0;shape-rendering:geometricPrecision"
       d="M 3.3037045,8.9999982 C 3.3037045,8.7637737 3.3037045,8.3537748 2.9018513,8.3537748 2.4999982,8.3537748 2.4999982,8.7583432 2.4999982,8.9999982 2.4999982,9.2389379 2.4999982,9.6326454 2.9018513,9.6326454 3.3037045,9.6326454 3.3037045,9.2416532 3.3037045,8.9999982 Z M 3.06748,8.9755612 C 3.06748,9.0760245 3.06748,9.2090705 3.0566191,9.3041033 3.0511887,9.3502621 3.0321821,9.5077451 2.9018513,9.5077451 2.7742358,9.5077451 2.7552292,9.3475469 2.7497988,9.3013881 2.7362227,9.2090705 2.7362227,9.046157 2.7362227,8.9755612 2.7362227,8.8750979 2.7362227,8.7637737 2.7470836,8.6768865 2.752514,8.6307277 2.7688054,8.4786751 2.9018513,8.4786751 3.0294669,8.4786751 3.0511887,8.6252973 3.0566191,8.6578799 3.06748,8.7474823 3.06748,8.8832436 3.06748,8.9755612 Z M 3.06748,8.9755612" />
    <path
       id="path9"
       style="fill:#000000;fill-opacity:1;stroke:none;stroke-width:0;shape-rendering:geometricPrecision"
       d="M 3.2466652,7.5584601 C 3.2466652,7.49601 3.1814999,7.49601 3.1624934,7.49601 H 3.0403085 V 6.4642269 C 3.0403085,6.4316443 3.0403085,6.3800551 2.9642824,6.3800551 2.9316998,6.3800551 2.9235541,6.3827703 2.9018324,6.4044921 2.871965,6.4316443 2.8067997,6.4968095 2.6357409,6.4995248 2.6031583,6.4995248 2.5569996,6.5131008 2.5569996,6.5619748 2.5569996,6.6244248 2.6194496,6.6244248 2.6411714,6.6244248 2.6927605,6.6244248 2.7552106,6.6162792 2.8040845,6.6027031 V 7.49601 H 2.6683236 C 2.6466018,7.49601 2.586867,7.49601 2.586867,7.5584601 2.586867,7.6209101 2.6466018,7.6209101 2.6683236,7.6209101 H 3.1624934 C 3.1814999,7.6209101 3.2466652,7.6209101 3.2466652,7.5584601 Z M 3.2466652,7.5584601" />
    <path
       id="path10"
       style="fill:#000000;fill-opacity:1;stroke:none;stroke-width:0;shape-rendering:geometricPrecision"
       d="M 3.290574,5.5297483 V 5.5107418 C 3.290574,5.4835896 3.290574,5.4482918 3.2552762,5.4347157 3.2417001,5.42657 3.1873957,5.42657 3.1520979,5.42657 L 3.0353434,5.4292852 H 2.7529607 L 2.9837543,5.2120677 C 3.0081913,5.190346 3.0733565,5.1360416 3.1005087,5.1116046 3.1955414,5.0192872 3.290574,4.9269698 3.290574,4.7722023 3.290574,4.5604152 3.1385218,4.3730651 2.8832912,4.3730651 2.8235564,4.3730651 2.7258085,4.3812108 2.6416367,4.4490913 2.6253454,4.4626673 2.5466041,4.5251174 2.5140214,4.6391566 L 2.6009084,4.7504805 C 2.6117693,4.7640566 2.6171998,4.7722023 2.6280606,4.7722023 2.6443519,4.7722023 2.6470672,4.7586262 2.6524976,4.7396197 2.6877954,4.62015 2.7475303,4.5468391 2.8588542,4.5468391 2.9918999,4.5468391 3.0489195,4.669024 3.0489195,4.7749175 3.0489195,4.8862415 2.9837543,5.0029959 2.8778608,5.1143198 L 2.5466041,5.4672983 C 2.5303128,5.4835896 2.5303128,5.4863048 2.5303128,5.5161722 V 5.5297483 C 2.5303128,5.5921983 2.5493193,5.6139201 2.6144845,5.6139201 H 3.2091174 C 3.2742827,5.6139201 3.290574,5.5921983 3.290574,5.5297483 Z M 3.290574,5.5297483" />
    <path
       id="path11"
       style="fill:#000000;fill-opacity:1;stroke:none;stroke-width:0;shape-rendering:geometricPrecision"
       d="M 3.2978653,3.2489417 C 3.2978653,3.0941742 3.2136935,2.9882807 3.0589261,2.9475524 3.2001174,2.8715263 3.2462762,2.7602023 3.2462762,2.6624544 3.2462762,2.3827869 2.9991913,2.3610651 2.8851521,2.3610651 2.648928,2.3610651 2.5321736,2.5321239 2.5321736,2.5457 2.5321736,2.5565609 2.5430345,2.570137 2.5430345,2.570137 L 2.5919084,2.6407327 C 2.6054845,2.6624544 2.6190606,2.6624544 2.6190606,2.6624544 2.6299215,2.6624544 2.6353519,2.6543088 2.6434976,2.6434479 2.7303846,2.5158326 2.8552847,2.5158326 2.8770064,2.5158326 2.9883304,2.5158326 3.0019065,2.5728522 3.0019065,2.657024 3.0019065,2.6814609 3.0019065,2.7656327 2.9503173,2.830798 2.9068738,2.8796719 2.8634303,2.8823871 2.8118412,2.8878176 2.7928346,2.8878176 2.760252,2.8905328 2.7548216,2.893248 2.7439607,2.8986784 2.7439607,2.9095393 2.7439607,2.9366915 V 2.9665589 C 2.7439607,3.0127176 2.7439607,3.0154328 2.7901194,3.0154328 H 2.8661455 C 3.0236282,3.0154328 3.0426348,3.1131807 3.0426348,3.2462264 3.0426348,3.3629809 3.0317739,3.47702 2.8742912,3.47702 2.8172716,3.47702 2.6896563,3.4661592 2.5729019,3.3548352 2.5566106,3.3412591 2.5566106,3.3385439 2.5484649,3.3385439 2.5321736,3.3385439 2.5294584,3.3548352 2.5267432,3.3575504 2.5267432,3.3575504 2.5050214,3.4688744 2.5050214,3.47702 2.5050214,3.4987418 2.6543585,3.6399332 2.8824369,3.6399332 3.1811109,3.6399332 3.2978653,3.4797353 3.2978653,3.2489417 Z M 3.2978653,3.2489417" />
  </g>
</svg>
