<?xml version="1.0" encoding="UTF-8" standalone="no"?>
<svg
   width="4mm"
   height="14mm"
   viewBox="0 0 4 14"
   version="1.1"
   id="schemalib-fuse-off-m"
   xmlns="http://www.w3.org/2000/svg"
   xmlns:svg="http://www.w3.org/2000/svg">
  <g
     id="fuse-off-m">
    <path
       id="path1" 
       style="fill:none;fill-opacity:1;stroke:#000000;stroke-width:0.25;stroke-linecap:round;stroke-linejoin:round;stroke-dasharray:none;stroke-opacity:1;shape-rendering:geometricPrecision"
       d="M 2,4.5 C 2.8,5.1 2.9,5.6 2.8,6.1" />
    <path
       id="path2" 
       style="fill:none;fill-opacity:1;stroke:#000000;stroke-width:0.25;stroke-linecap:round;stroke-linejoin:round;stroke-dasharray:none;stroke-opacity:1;shape-rendering:geometricPrecision"
       d="M 2,9.5 C 1.2,8.9 1.1,8.4 1.2,7.9" />
    <path
       id="path3"
       style="fill:none;fill-opacity:1;stroke:#000000;stroke-width:0.25;stroke-linecap:round;stroke-linejoin:round;stroke-dasharray:none;stroke-opacity:1;shape-rendering:geometricPrecision"
       d="M 2,1 V 4.5"  />
    <path
       id="path4"
       style="fill:none;fill-opacity:1;stroke:#000000;stroke-width:0.25;stroke-linecap:round;stroke-linejoin:round;stroke-dasharray:none;stroke-opacity:1;shape-rendering:geometricPrecision"
       d="M 2,9.5 V 13"  />
    <path
       id="path5"
       style="fill:#ffffff;fill-opacity:1;stroke:#000000;stroke-width:0.25;stroke-linecap:round;stroke-linejoin:round;stroke-dasharray:none;stroke-opacity:1;shape-rendering:geometricPrecision"
       d="M 2.5,4.5 A 0.5,0.5 0 0 1 2,5 0.5,0.5 0 0 1 1.5,4.5 0.5,0.5 0 0 1 2,4 0.5,0.5 0 0 1 2.5,4.5 Z"  />
    <path
       id="path6"
       style="fill:#ffffff;fill-opacity:1;stroke:#000000;stroke-width:0.25;stroke-linecap:round;stroke-linejoin:round;stroke-dasharray:none;stroke-opacity:1;shape-rendering:geometricPrecision"
       d="M 2.5,9.5 A 0.5,0.5 0 0 1 2,10 0.5,0.5 0 0 1 1.5,9.5 0.5,0.5 0 0 1 2,9 0.5,0.5 0 0 1 2.5,9.5 Z"  />
  </g>
</svg>
