<?xml version="1.0" encoding="UTF-8" standalone="no"?>
<svg
   width="17mm"
   height="18mm"
   viewBox="0 0 17 18"
   version="1.1"
   id="schemalib-ind-transfx-l"
   xmlns="http://www.w3.org/2000/svg"
   xmlns:svg="http://www.w3.org/2000/svg">
  <g
     id="ind-transfx-l">
    <path
       id="path1"
       style="fill:#000000;fill-opacity:1;stroke:#000000;stroke-width:0.25;stroke-linecap:round;stroke-linejoin:round;stroke-dasharray:none;stroke-opacity:1;shape-rendering:geometricPrecision"
       d="M 2.4,3 A 0.4,0.4 0 0 1 2,3.4 0.4,0.4 0 0 1 1.6,3 0.4,0.4 0 0 1 2,2.6 0.4,0.4 0 0 1 2.4,3 Z"  />
    <path
       id="path2"
       style="fill:#000000;fill-opacity:1;stroke:#000000;stroke-width:0.25;stroke-linecap:round;stroke-linejoin:round;stroke-dasharray:none;stroke-opacity:1;shape-rendering:geometricPrecision"
       d="M 14.6,15 A 0.4,0.4 0 0 0 15,15.4 0.4,0.4 0 0 0 15.4,15 0.4,0.4 0 0 0 15,14.6 0.4,0.4 0 0 0 14.6,15 Z"  />
    <path
       id="path3" 
       style="fill:none;fill-opacity:1;stroke:#000000;stroke-width:0.25;stroke-linecap:round;stroke-linejoin:round;stroke-dasharray:none;stroke-opacity:1;shape-rendering:geometricPrecision"
       d="M 8,3 V 15" />
    <path
       id="path4" 
       style="fill:none;fill-opacity:1;stroke:#000000;stroke-width:0.25;stroke-linecap:round;stroke-linejoin:round;stroke-dasharray:none;stroke-opacity:1;shape-rendering:geometricPrecision"
       d="M 9,3 V 15" />
    <path
       id="path5"
       style="fill:none;fill-opacity:1;stroke:#000000;stroke-width:0.25;stroke-linecap:round;stroke-linejoin:round;stroke-dasharray:none;stroke-opacity:1;shape-rendering:geometricPrecision"
       d="M 4,1 V 3 C 5.3,3 6.5,3.7 6.5,4.5 6.5,5.3 5.3,6 4,6 5.3,6 6.5,6.7 6.5,7.5 6.5,8.3 5.3,9 4,9 5.3,9 6.5,9.7 6.5,10.5 6.5,11.3 5.3,12 4,12 5.3,12 6.5,12.7 6.5,13.5 6.5,14.3 5.3,15 4,15 V 17"  />
    <path
       id="path6"
       style="fill:none;fill-opacity:1;stroke:#000000;stroke-width:0.25;stroke-linecap:round;stroke-linejoin:round;stroke-dasharray:none;stroke-opacity:1;shape-rendering:geometricPrecision"
       d="M 13,1 V 3 C 11.7,3 10.5,3.7 10.5,4.5 10.5,5.3 11.7,6 13,6 11.7,6 10.5,6.7 10.5,7.5 10.5,8.3 11.7,9 13,9 11.7,9 10.5,9.7 10.5,10.5 10.5,11.3 11.7,12 13,12 11.7,12 10.5,12.7 10.5,13.5 10.5,14.3 11.7,15 13,15 V 17"  />
  </g>
</svg>
