<?xml version="1.0" encoding="UTF-8" standalone="no"?>
<svg
   width="8mm"
   height="18mm"
   viewBox="0 0 8 18"
   version="1.1"
   id="schemalib-ind-nonlinear-l"
   xmlns="http://www.w3.org/2000/svg"
   xmlns:svg="http://www.w3.org/2000/svg">
  <g
     id="ind-nonlinear-l">
    <path
       id="path1" 
       style="fill:none;fill-opacity:1;stroke:#000000;stroke-width:0.25;stroke-linecap:round;stroke-linejoin:round;stroke-dasharray:none;stroke-opacity:1;shape-rendering:geometricPrecision"
       d="M 1,13 C 5,13 3,5 7,5" />
    <path
       id="path2"
       style="fill:none;fill-opacity:1;stroke:#000000;stroke-width:0.25;stroke-linecap:round;stroke-linejoin:round;stroke-dasharray:none;stroke-opacity:1;shape-rendering:geometricPrecision"
       d="M 3,1 V 3 C 4.3,3 5.5,3.7 5.5,4.5 5.5,5.3 4.3,6 3,6 4.3,6 5.5,6.7 5.5,7.5 5.5,8.3 4.3,9 3,9 4.3,9 5.5,9.7 5.5,10.5 5.5,11.3 4.3,12 3,12 4.3,12 5.5,12.7 5.5,13.5 5.5,14.3 4.3,15 3,15 V 17"  />
  </g>
</svg>
