<?xml version="1.0" encoding="UTF-8" standalone="no"?>
<svg
   width="15mm"
   height="8mm"
   viewBox="0 0 15 8"
   version="1.1"
   id="schemalib-mic-rec-l"
   xmlns="http://www.w3.org/2000/svg"
   xmlns:svg="http://www.w3.org/2000/svg">
  <g
     id="mic-rec-l">
    <path
       id="path1"
       style="fill:none;fill-opacity:1;stroke:#000000;stroke-width:0.25;stroke-linecap:round;stroke-linejoin:round;stroke-dasharray:none;stroke-opacity:1;shape-rendering:geometricPrecision" 
       d="M 5,1.3 V 6.7" />
    <path
       id="path2" 
       style="fill:none;fill-opacity:1;stroke:#000000;stroke-width:0.25;stroke-linecap:round;stroke-linejoin:round;stroke-dasharray:none;stroke-opacity:1;shape-rendering:geometricPrecision"
       d="M 14,4 H 10.4" />
    <path
       id="path3"
       style="fill:none;fill-opacity:1;stroke:#000000;stroke-width:0.25;stroke-linecap:round;stroke-linejoin:round;stroke-dasharray:none;stroke-opacity:1;shape-rendering:geometricPrecision"
       d="M 1.1,4.8 A 1,1 0 0 0 1.5,4 1,1 0 0 0 1.1,3.2"  />
    <path
       id="path4"
       style="fill:none;fill-opacity:1;stroke:#000000;stroke-width:0.25;stroke-linecap:round;stroke-linejoin:round;stroke-dasharray:none;stroke-opacity:1;shape-rendering:geometricPrecision"
       d="M 1.7,5.7 A 2,2 0 0 0 2.5,4 2,2 0 0 0 1.7,2.3"  />
    <path
       id="path5"
       style="fill:none;fill-opacity:1;stroke:#000000;stroke-width:0.25;stroke-linecap:round;stroke-linejoin:round;stroke-dasharray:none;stroke-opacity:1;shape-rendering:geometricPrecision"
       d="M 2.2,6.5 A 3,3 0 0 0 3.5,4 3,3 0 0 0 2.2,1.5"  />
    <path
       id="path6"
       style="fill:#ffffff;fill-opacity:1;stroke:#000000;stroke-width:0.25;stroke-linecap:round;stroke-linejoin:round;stroke-dasharray:none;stroke-opacity:1;shape-rendering:geometricPrecision"
       d="M 10.4,4 A 2.7,2.7 0 0 1 7.7,6.7 2.7,2.7 0 0 1 5,4 2.7,2.7 0 0 1 7.7,1.3 2.7,2.7 0 0 1 10.4,4 Z"  />
  </g>
</svg>
