<?xml version="1.0" encoding="UTF-8" standalone="no"?>
<svg
   width="7mm"
   height="8mm"
   viewBox="0 0 7 8"
   version="1.1"
   id="schemalib-demux2-m"
   xmlns="http://www.w3.org/2000/svg"
   xmlns:svg="http://www.w3.org/2000/svg">
  <g
    id="demux2-m">
    <path
       id="path1"
       style="fill:none;fill-opacity:1;stroke:#000000;stroke-width:0.25;stroke-linecap:round;stroke-linejoin:round;stroke-dasharray:none;stroke-opacity:1;shape-rendering:geometricPrecision"
       d="M 2,4 H 1" />
    <path
       id="path2"
       style="fill:none;fill-opacity:1;stroke:#000000;stroke-width:0.25;stroke-linecap:round;stroke-linejoin:round;stroke-dasharray:none;stroke-opacity:1;shape-rendering:geometricPrecision"
       d="M 3.5,7 V 6.3" />
    <path
       id="path3"
       style="fill:none;fill-opacity:1;stroke:#000000;stroke-width:0.25;stroke-linecap:round;stroke-linejoin:round;stroke-dasharray:none;stroke-opacity:1;shape-rendering:geometricPrecision"
       d="M 5,3 H 6" />
    <path
       id="path4"
       style="fill:none;fill-opacity:1;stroke:#000000;stroke-width:0.25;stroke-linecap:round;stroke-linejoin:round;stroke-dasharray:none;stroke-opacity:1;shape-rendering:geometricPrecision"
       d="M 5,5 H 6" />
    <path
       id="path5"
       style="fill:#ffffff;fill-opacity:1;stroke:#000000;stroke-width:0.25;stroke-linecap:round;stroke-linejoin:round;stroke-dasharray:none;stroke-opacity:1;shape-rendering:geometricPrecision"
       d="M 5,7 V 1 L 2,2.5 V 5.5 Z" />
    <path
       id="path6"
       style="fill:#000000;fill-opacity:1;stroke:none;stroke-width:0;shape-rendering:geometricPrecision"
       d="M 4.5000045,5.0000082 C 4.5000045,4.7637837 4.5000045,4.3537848 4.0981513,4.3537848 3.6962982,4.3537848 3.6962982,4.7583532 3.6962982,5.0000082 3.6962982,5.2389479 3.6962982,5.6326554 4.0981513,5.6326554 4.5000045,5.6326554 4.5000045,5.2416632 4.5000045,5.0000082 Z M 4.26378,4.9755712 C 4.26378,5.0760345 4.26378,5.2090805 4.2529191,5.3041133 4.2474887,5.3502721 4.2284821,5.5077551 4.0981513,5.5077551 3.9705358,5.5077551 3.9515292,5.3475569 3.9460988,5.3013981 3.9325227,5.2090805 3.9325227,5.046167 3.9325227,4.9755712 3.9325227,4.8751079 3.9325227,4.7637837 3.9433836,4.6768965 3.948814,4.6307377 3.9651054,4.4786851 4.0981513,4.4786851 4.2257669,4.4786851 4.2474887,4.6253073 4.2529191,4.6578899 4.26378,4.7474923 4.26378,4.8832536 4.26378,4.9755712 Z M 4.26378,4.9755712" />
    <path
       id="path7"
       style="fill:#000000;fill-opacity:1;stroke:none;stroke-width:0;shape-rendering:geometricPrecision"
       d="M 4.4429652,3.5584701 C 4.4429652,3.49602 4.3777999,3.49602 4.3587934,3.49602 H 4.2366085 V 2.4642369 C 4.2366085,2.4316543 4.2366085,2.3800651 4.1605824,2.3800651 4.1279998,2.3800651 4.1198541,2.3827804 4.0981324,2.4045021 4.068265,2.4316543 4.0030997,2.4968195 3.8320409,2.4995348 3.7994583,2.4995348 3.7532996,2.5131109 3.7532996,2.5619848 3.7532996,2.6244348 3.8157496,2.6244348 3.8374714,2.6244348 3.8890605,2.6244348 3.9515106,2.6162892 4.0003845,2.6027131 V 3.49602 H 3.8646236 C 3.8429018,3.49602 3.783167,3.49602 3.783167,3.5584701 3.783167,3.6209201 3.8429018,3.6209201 3.8646236,3.6209201 H 4.3587934 C 4.3777999,3.6209201 4.4429652,3.6209201 4.4429652,3.5584701 Z M 4.4429652,3.5584701" />
  </g>
</svg>
