<?xml version="1.0" encoding="UTF-8" standalone="no"?>
<svg
   width="8mm"
   height="7mm"
   viewBox="0 0 8 7"
   version="1.1"
   id="schemalib-nand6-s"
   xmlns="http://www.w3.org/2000/svg"
   xmlns:svg="http://www.w3.org/2000/svg">
  <g
     id="nand6-s">
    <path
       id="path1" 
       style="fill:#ffffff;fill-opacity:1;stroke:#000000;stroke-width:0.25;stroke-linecap:round;stroke-linejoin:round;stroke-dasharray:none;stroke-opacity:1;shape-rendering:geometricPrecision"
       d="M 3.4,5 H 2 V 2 H 3.4 C 4.2,2 5,2.6 5,3.5 5,4.4 4.2,5 3.4,5 Z" />
    <path
       id="path2"
       style="fill:none;fill-opacity:1;stroke:#000000;stroke-width:0.25;stroke-linecap:round;stroke-linejoin:round;stroke-dasharray:none;stroke-opacity:1;shape-rendering:geometricPrecision" 
       d="M 1,3 2,3" />
    <path
       id="path3"
       style="fill:none;fill-opacity:1;stroke:#000000;stroke-width:0.25;stroke-linecap:round;stroke-linejoin:round;stroke-dasharray:none;stroke-opacity:1;shape-rendering:geometricPrecision" 
       d="M 1,2 2,2" />
    <path
       id="path4"
       style="fill:none;fill-opacity:1;stroke:#000000;stroke-width:0.25;stroke-linecap:round;stroke-linejoin:round;stroke-dasharray:none;stroke-opacity:1;shape-rendering:geometricPrecision" 
       d="M 1,4 2,4" />
    <path
       id="path5"
       style="fill:none;fill-opacity:1;stroke:#000000;stroke-width:0.25;stroke-linecap:round;stroke-linejoin:round;stroke-dasharray:none;stroke-opacity:1;shape-rendering:geometricPrecision" 
       d="M 1,5 H 2" />
    <path
       id="path6"
       style="fill:none;fill-opacity:1;stroke:#000000;stroke-width:0.25;stroke-linecap:round;stroke-linejoin:round;stroke-dasharray:none;stroke-opacity:1;shape-rendering:geometricPrecision" 
       d="M 5,3.5 H 7" />
    <path
       id="path7" 
       style="fill:#ffffff;fill-opacity:1;stroke:#000000;stroke-width:0.25;stroke-linecap:round;stroke-linejoin:round;stroke-dasharray:none;stroke-opacity:1;shape-rendering:geometricPrecision"
       d="M 6,3.5 C 6,3.8 5.8,4 5.5,4 5.2,4 5,3.8 5,3.5 5,3.2 5.2,3 5.5,3 5.8,3 6,3.2 6,3.5 Z" />
    <path
       id="path8" 
       style="fill:none;fill-opacity:1;stroke:#000000;stroke-width:0.25;stroke-linecap:round;stroke-linejoin:round;stroke-dasharray:none;stroke-opacity:1;shape-rendering:geometricPrecision"
       d="M 1,1 H 2 V 2" />
    <path
       id="path9" 
       style="fill:none;fill-opacity:1;stroke:#000000;stroke-width:0.25;stroke-linecap:round;stroke-linejoin:round;stroke-dasharray:none;stroke-opacity:1;shape-rendering:geometricPrecision"
       d="M 1,6 2,6 V 5" />
  </g>
</svg>
